<?xml version="1.0" encoding="utf-8"?>
<!-- Generator: Adobe Illustrator 22.0.0, SVG Export Plug-In . SVG Version: 6.00 Build 0)  -->
<svg version="1.1" xmlns="http://www.w3.org/2000/svg" xmlns:xlink="http://www.w3.org/1999/xlink" x="0px" y="0px"
	 viewBox="0 0 750 500" style="enable-background:new 0 0 750 500;" xml:space="preserve">
<style type="text/css">
	.st0{fill:#EBEBEB;}
	.st1{fill:#E0E0E0;}
	.st2{display:none;}
	.st3{display:inline;fill:#EBEBEB;}
	.st4{fill:#E8505B;}
	.st5{fill:#263238;}
	.st6{fill:#455A64;}
	.st7{fill:#FAFAFA;}
	.st8{fill:#B78876;}
	.st9{fill:#AA6550;}
	.st10{opacity:0.3;}
	.st11{fill:#910F0F;}
	.st12{fill:#FFFFFF;}
	.st13{fill:none;}
	.st14{fill:#FF725E;}
	.st15{fill:#F5F5F5;}
</style>
<g id="Background_Complete">
	<g>
		<g>
			<polygon class="st0" points="310.7,476.5 310.7,155.7 306.7,155.7 306.7,476.6 273.9,479.1 306.7,479.1 310.7,479.1 343.5,479.1 
							"/>
		</g>
		<g>
			<polygon class="st1" points="286,127.7 271.3,193.7 346.1,193.7 329.3,128 			"/>
		</g>
		<g>
			<g>
				<path class="st1" d="M299.8,220.4c-0.2,0-0.3-8.1-0.3-18.1c0-10,0.2-18.1,0.3-18.1c0.2,0,0.3,8.1,0.3,18.1
					C300.1,212.3,299.9,220.4,299.8,220.4z"/>
			</g>
		</g>
		<g>
			<g>
				<path class="st1" d="M299.7,220.2c0-0.1,0.5,0,0.8,0.7c0.1,0.3,0.1,0.8-0.2,1.2c-0.3,0.4-1,0.6-1.5,0.4
					c-0.5-0.2-0.9-0.7-0.9-1.2c0-0.5,0.4-0.9,0.6-1c0.6-0.4,1.1-0.1,1,0c0,0.1-0.4,0-0.8,0.4c-0.2,0.2-0.3,0.4-0.3,0.7
					c0,0.3,0.2,0.5,0.5,0.6c0.3,0.1,0.7,0.1,0.8-0.1c0.2-0.2,0.2-0.5,0.2-0.7C300,220.5,299.7,220.3,299.7,220.2z"/>
			</g>
		</g>
	</g>
</g>
<g id="Background_Simple" class="st2">
	<path class="st3" d="M720.8,232.5C708.9,146.6,646.3,70.3,566,43.8c-80.3-26.5-174.5-2-232.8,60.6c-16.8,18-31,39-51.3,52.6
		c-41.4,27.7-96.5,17.8-143.2,34.3C84.5,210.4,45.8,268.2,47.8,327c2,58.8,44.5,113.7,99.8,128.8l475.8,2.2
		C693.3,409.5,732.7,318.3,720.8,232.5z"/>
</g>
<g id="Device">
</g>
<g id="Floor">
</g>
<g id="Character">
	<g>
		<g>
			<g>
				<g>
					<g>
						<g>
							<g>
								<g>
									<g>
										<g>
											<path class="st4" d="M520.9,439.3l17.1,21c0,0,27.1-10.4,30.6-6.8l-39.4,34.7l-28-31.6L520.9,439.3z"/>
										</g>
									</g>
								</g>
							</g>
						</g>
						<g>
							<g>
								<g>
									<g>
										<g>
											<g>
												<path class="st1" d="M524.6,468.5c-0.6,0.9-0.4,2.2,0.5,2.8c0.9,0.6,2.2,0.4,2.8-0.5c0.6-0.9,0.4-2.5-0.6-3
													c-0.9-0.5-2.5-0.2-2.9,0.8"/>
											</g>
										</g>
									</g>
								</g>
							</g>
						</g>
						<g>
							<g>
								<g>
									<g>
										<g>
											<g>
												<path class="st5" d="M565.5,452c0.1,0.1-8.6,7.5-19.4,16.4c-10.8,9-19.7,16.1-19.8,16c-0.1-0.1,8.6-7.5,19.4-16.4
													C556.6,459,565.4,451.9,565.5,452z"/>
											</g>
										</g>
									</g>
								</g>
							</g>
						</g>
						<g>
							<g>
								<g>
									<g>
										<g>
											<g>
												<path class="st5" d="M538.4,459.5c0.2,0.2-0.7,1.1-1.1,2.6c-0.4,1.5-0.2,2.7-0.4,2.8c-0.2,0.1-0.9-1.3-0.4-3.1
													C537,460.1,538.3,459.3,538.4,459.5z"/>
											</g>
										</g>
									</g>
								</g>
							</g>
						</g>
						<g>
							<g>
								<g>
									<g>
										<g>
											<g>
												<path class="st5" d="M544.1,457.6c0.2,0.1-0.3,1.2-0.3,2.6c0,1.4,0.6,2.4,0.4,2.6c-0.2,0.2-1.3-0.8-1.3-2.6
													C542.9,458.5,544,457.4,544.1,457.6z"/>
											</g>
										</g>
									</g>
								</g>
							</g>
						</g>
						<g>
							<g>
								<g>
									<g>
										<g>
											<g>
												<path class="st5" d="M550.9,460.5c-0.1,0.2-1.3-0.5-1.7-2c-0.4-1.5,0.1-2.7,0.3-2.6c0.2,0.1,0.2,1.2,0.5,2.4
													C550.4,459.4,551.1,460.3,550.9,460.5z"/>
											</g>
										</g>
									</g>
								</g>
							</g>
						</g>
						<g>
							<g>
								<g>
									<g>
										<g>
											<g>
												<path class="st5" d="M534,455.1c0.1,0.2-1.1,0.8-2.1,1.8c-1.1,1-1.6,2.1-1.8,2.1c-0.2,0,0-1.5,1.2-2.7
													C532.5,455.1,533.9,454.9,534,455.1z"/>
											</g>
										</g>
									</g>
								</g>
							</g>
						</g>
					</g>
					<g>
						<g>
							<g>
								<g>
									<g>
										<g>
											<path class="st5" d="M530.8,450.1c0.1,0.1-0.6,0.9-2,1.7c-0.7,0.4-1.6,0.9-2.6,1.2c-0.5,0.2-1.1,0.3-1.7,0.4
												c-0.3,0-0.6,0.1-1,0.1c-0.4,0-1-0.4-1-1c-0.1-0.5,0.2-0.9,0.5-1.2c0.3-0.3,0.6-0.4,0.8-0.6c0.5-0.3,1.1-0.5,1.6-0.7
												c1.1-0.3,2.1-0.4,2.9-0.4c1.7,0,2.6,0.5,2.6,0.6c0,0.1-1-0.1-2.6,0c-0.8,0.1-1.7,0.2-2.7,0.6c-0.5,0.2-1,0.4-1.5,0.7
												c-0.5,0.3-0.9,0.6-0.8,0.9c0,0.1,0,0.1,0.2,0.2c0.2,0,0.5,0,0.7,0c0.6-0.1,1.1-0.2,1.6-0.3c1-0.3,1.9-0.6,2.6-1
												C530,450.6,530.7,450,530.8,450.1z"/>
										</g>
									</g>
								</g>
							</g>
						</g>
					</g>
					<g>
						<g>
							<g>
								<g>
									<g>
										<g>
											<path class="st5" d="M530.8,450.6c0,0.1-1-0.3-2.2-1.5c-0.6-0.6-1.2-1.4-1.6-2.4c-0.2-0.5-0.4-1.1-0.6-1.7
												c-0.1-0.6-0.3-1.4,0.4-2.1c0.4-0.4,1-0.3,1.3-0.2c0.4,0.2,0.6,0.4,0.8,0.5c0.5,0.4,0.9,0.9,1.2,1.3c0.6,1,0.9,2,1,2.8
												c0.1,1.7-0.5,2.7-0.6,2.6c-0.2,0,0.2-1-0.1-2.5c-0.1-0.7-0.4-1.6-1-2.4c-0.3-0.4-0.6-0.8-1-1.1c-0.4-0.4-0.9-0.6-1-0.4
												c-0.2,0.2-0.3,0.8-0.1,1.3c0.1,0.5,0.3,1,0.5,1.5c0.4,0.9,0.9,1.7,1.4,2.3C530.1,450,530.9,450.5,530.8,450.6z"/>
										</g>
									</g>
								</g>
							</g>
						</g>
					</g>
				</g>
			</g>
			<g>
				<g>
					<g>
						<path class="st4" d="M458.6,458.2c0,0,9.4,3.2,18.1,3c8.2-0.2,26.1,3.2,24.8,13.8c-1.4,11.8-25.1,6-34.3,3
							c-9.2-3-18.3-5.8-18.3-5.8L458.6,458.2z"/>
					</g>
				</g>
				<g>
					<g>
						<g>
							<path class="st5" d="M478.3,476c0.1,0,0.9-1.7,1.7-4c0.8-2.2,1.3-4.1,1.2-4.1c-0.1,0-0.9,1.7-1.7,4
								C478.8,474.1,478.2,475.9,478.3,476z"/>
						</g>
					</g>
				</g>
				<g>
					<g>
						<g>
							<path class="st5" d="M475,475.7c0.1,0,0.7-1.8,1.3-4.1c0.6-2.3,1-4.2,0.9-4.2c-0.1,0-0.7,1.8-1.3,4.1
								C475.3,473.8,474.9,475.7,475,475.7z"/>
						</g>
					</g>
				</g>
				<g>
					<g>
						<g>
							<path class="st5" d="M472,474.1c0.1,0,0.6-1.6,1.1-3.6c0.5-2,0.8-3.7,0.7-3.7c-0.1,0-0.6,1.6-1.1,3.6
								C472.2,472.4,471.9,474.1,472,474.1z"/>
						</g>
					</g>
				</g>
				<g>
					<g>
						<g>
							<path class="st5" d="M467.2,472.3c0.1,0.1,1-1.2,1.6-3c0.7-1.8,0.9-3.3,0.8-3.3c-0.1,0-0.5,1.4-1.2,3.2
								C467.7,470.8,467.1,472.2,467.2,472.3z"/>
						</g>
					</g>
				</g>
				<g>
					<g>
						<g>
							<path class="st5" d="M466.6,467.8c0,0-0.4-0.2-1.2-0.2c-0.8-0.1-2-0.1-3.5,0.3c-0.4,0.1-0.7,0.2-1.1,0.4
								c-0.4,0.2-0.7,0.6-0.8,1.1c-0.1,1,0.9,1.9,2,1.8c1.1-0.1,2-0.7,2.7-1.5c0.8-0.8,1.4-1.7,1.8-2.8c0.8-2.1,0.7-4.5-0.3-6.3
								c-0.2-0.2-0.4-0.4-0.7-0.5c-0.3-0.1-0.6,0-0.8,0.2c-0.4,0.3-0.6,0.8-0.8,1.2c-0.2,0.9-0.3,1.7-0.2,2.4
								c0.2,1.5,0.8,2.6,1.3,3.2c0.2,0.3,0.5,0.6,0.6,0.7c0.2,0.1,0.3,0.2,0.3,0.2c0,0-0.3-0.3-0.7-1c-0.4-0.7-1-1.7-1.1-3.2
								c-0.1-0.7,0-1.5,0.2-2.3c0.1-0.4,0.3-0.8,0.6-1c0.3-0.2,0.7-0.1,0.9,0.3c0.9,1.6,1,3.8,0.2,5.9c-0.4,1-0.9,1.9-1.7,2.6
								c-0.7,0.7-1.5,1.3-2.4,1.4c-0.8,0.1-1.7-0.6-1.6-1.4c0-0.4,0.3-0.7,0.6-0.8c0.3-0.2,0.7-0.3,1-0.4c1.4-0.4,2.6-0.4,3.4-0.4
								C466.2,467.8,466.6,467.8,466.6,467.8z"/>
						</g>
					</g>
				</g>
				<g>
					<g>
						<g>
							<path class="st5" d="M450.1,470.7c0,0,0.1,0,0.2,0.1c0.2,0.1,0.4,0.2,0.7,0.3c0.7,0.2,1.6,0.6,2.7,1c2.4,0.8,5.8,2,10.1,3.4
								c4.3,1.4,9.4,3,15.1,4.5c2.9,0.7,6,1.5,9.2,1.6c1.6,0.1,3.3,0,5-0.3c0.8-0.2,1.7-0.4,2.5-0.8c0.8-0.4,1.6-0.7,2.2-1.4l0,0
								c0.3-0.3,0.7-0.5,1-0.9c1.2-1.5,1.4-3.4,1.1-5.1c-0.3-1.8-1.4-3.3-2.6-4.4c-1.2-1.2-2.7-2-4.1-2.7c-0.7-0.3-1.5-0.7-2.2-0.9
								c-0.7-0.2-1.5-0.5-2.2-0.7c-5.9-1.7-11.5-1.9-16-2.4c-2.3-0.2-4.3-0.5-6.1-0.9c-1.8-0.4-3.3-0.7-4.5-1.1
								c-0.6-0.2-1.1-0.4-1.6-0.5c-0.4-0.2-0.8-0.3-1.2-0.5c-0.3-0.1-0.5-0.2-0.7-0.3c-0.2-0.1-0.2-0.1-0.3-0.1c0,0,0.1,0.1,0.2,0.1
								c0.2,0.1,0.4,0.2,0.7,0.3c0.3,0.1,0.7,0.3,1.1,0.5c0.5,0.2,1,0.4,1.6,0.6c1.2,0.4,2.7,0.8,4.5,1.2c1.8,0.4,3.9,0.7,6.2,0.9
								c4.6,0.6,10.1,0.8,15.9,2.5c0.7,0.2,1.4,0.5,2.2,0.7c0.7,0.3,1.4,0.6,2.2,0.9c1.4,0.7,2.8,1.5,4,2.6c1.2,1.1,2.2,2.5,2.5,4.2
								c0.3,1.6,0,3.4-1,4.7c-0.2,0.3-0.6,0.6-0.9,0.8l0,0l0,0c-0.6,0.5-1.3,1-2.1,1.3c-0.8,0.3-1.6,0.5-2.4,0.7
								c-1.6,0.3-3.3,0.4-4.9,0.3c-3.2-0.1-6.3-0.8-9.1-1.5c-5.8-1.5-10.9-3-15.2-4.4c-4.3-1.3-7.7-2.5-10.1-3.2
								c-1.2-0.4-2.1-0.7-2.7-0.9c-0.3-0.1-0.5-0.2-0.7-0.2C450.1,470.7,450.1,470.7,450.1,470.7z"/>
						</g>
					</g>
				</g>
				<g>
					<g>
						<g>
							<path class="st5" d="M484.6,480.6c0.1,0,0.2-0.9,0.5-2.4c0.3-1.5,0.7-3.6,1.3-5.8c0.6-2.3,1.2-4.3,1.7-5.7
								c0.5-1.5,0.8-2.4,0.7-2.4c-0.1,0-0.5,0.8-1,2.3c-0.6,1.4-1.2,3.5-1.8,5.7c-0.6,2.3-1,4.4-1.2,5.9
								C484.5,479.7,484.5,480.6,484.6,480.6z"/>
						</g>
					</g>
				</g>
			</g>
			<g>
				<g>
					<g>
						<path class="st5" d="M498.9,479.6c0,0,0.3-0.3,0.8-0.9c0.5-0.6,1.1-1.6,1.5-2.9c0.2-0.7,0.4-1.4,0.3-2.2
							c-0.1-0.8-0.3-1.6-0.6-2.5c-0.7-1.7-1.9-3.3-3.5-4.7c-1.6-1.4-3.5-2.2-5.2-2.8c-1.7-0.6-3.4-0.9-4.7-1.2
							c-1.4-0.3-2.5-0.4-3.3-0.5c-0.8-0.1-1.2-0.2-1.2-0.2c0,0,0.4,0,1.2,0c0.8,0.1,1.9,0.2,3.3,0.4c1.4,0.2,3.1,0.5,4.8,1.1
							c1.8,0.6,3.7,1.5,5.4,2.9c1.7,1.4,3,3.1,3.6,4.9c0.3,0.9,0.5,1.8,0.6,2.6c0,0.9-0.2,1.7-0.4,2.3c-0.5,1.3-1.2,2.3-1.7,2.9
							C499.3,479.5,498.9,479.7,498.9,479.6z"/>
					</g>
				</g>
			</g>
		</g>
		<g>
			<g>
				<g>
					<g>
						<path class="st5" d="M460.9,457.1c0,0-24.9-38.6-31.2-40.6c-6.3-1.9-17.5-3.4-26.9,0c-9.4,3.4-36.7,15-36.7,15l-17.2,5.7
							c-15,5-26.1,17.7-29.1,33.3l0,0c0,0,21.7,17.8,38.1,14.7C374.3,482.1,419,462,419,462l0,0c4.8,2.8,12.5,4.1,16.1,5.6
							c10,4.3,15.4,5.5,15.4,5.5l0,0L460.9,457.1z"/>
					</g>
				</g>
				<g>
					<g>
						<g>
							<path class="st6" d="M431.7,456.2c0,0.1-1.1,0.6-3,1.5c-2,1-4.4,2.2-7.2,3.5c-2.8,1.4-5.4,2.6-7.3,3.4
								c-1.9,0.8-3.1,1.2-3.1,1.2c0-0.1,1.1-0.6,3-1.5c2-1,4.4-2.2,7.2-3.5c2.8-1.4,5.4-2.6,7.3-3.4
								C430.5,456.6,431.7,456.1,431.7,456.2z"/>
						</g>
					</g>
				</g>
				<g>
					<g>
						<g>
							<path class="st6" d="M438.9,439.4c-0.1,0-0.5-1.3-1.3-3.5c-0.8-2.1-2.1-5-3.9-8c-1.8-3-3.7-5.5-5.2-7.2
								c-1.5-1.7-2.5-2.7-2.5-2.8c0,0,0.3,0.2,0.8,0.6c0.5,0.4,1.2,1.1,1.9,1.9c1.6,1.7,3.6,4.2,5.4,7.2c1.8,3,3,6,3.8,8.1
								c0.4,1.1,0.6,2,0.8,2.6C438.9,439,439,439.4,438.9,439.4z"/>
						</g>
					</g>
				</g>
				<g>
					<g>
						<g>
							<path class="st6" d="M432.4,444.7c0.1,0-0.3,1.8-1.9,3.3c-1.6,1.5-3.4,1.8-3.4,1.7c-0.1-0.1,1.6-0.7,3-2.1
								C431.6,446.2,432.2,444.6,432.4,444.7z"/>
						</g>
					</g>
				</g>
			</g>
			<g>
				<g>
					<path class="st5" d="M533.9,447.2c0,0-72.8-79.1-76.9-81.3c-1.9-1-12.7-11.7-15.4-11.7c-3.6,0-7.2,1.2-10,3.5l-46.7,44.4
						l-13.7,29.8l29.1,15.7l39.3-34l67.8,55.5L533.9,447.2z"/>
				</g>
			</g>
			<g>
				<g>
					<g>
						<path class="st6" d="M436.3,422.6c0,0-0.2-0.2-0.5-0.6c-0.3-0.4-0.8-0.9-1.4-1.6c-1.3-1.3-3.4-3.2-6.5-4.4
							c-1.6-0.6-3.4-1-5.3-0.9c-2,0.1-4,0.5-6.1,1.1c-2.1,0.6-4.3,1.5-6.6,2.3c-2.3,0.8-4.6,1.7-7.1,2.5c-9.7,3.4-18.4,6.5-24.8,8.8
							c-3.1,1.1-5.7,2-7.5,2.6c-0.9,0.3-1.5,0.5-2.1,0.7c-0.5,0.2-0.7,0.2-0.7,0.2c0,0,0.2-0.1,0.7-0.3c0.5-0.2,1.2-0.5,2-0.8
							c1.8-0.7,4.4-1.6,7.5-2.8c6.4-2.3,15.1-5.4,24.8-8.9c2.4-0.9,4.8-1.7,7.1-2.5c2.3-0.8,4.5-1.6,6.6-2.3c2.1-0.6,4.3-1,6.3-1.1
							c2-0.1,3.9,0.4,5.5,1c3.2,1.3,5.3,3.2,6.5,4.6c0.6,0.7,1.1,1.3,1.4,1.7C436.2,422.3,436.3,422.6,436.3,422.6z"/>
					</g>
				</g>
			</g>
		</g>
		<g>
			<g>
				<g>
					<path class="st4" d="M416.9,389.1l61.3-19.5c3.8-1.2,6.1-5.1,5.2-9l-1.7-7.7l-52,2.6l-44-31.1c-2.7-1.9-5.8-3.2-9.1-3.7
						l-8.7-1.4l-26.8-7.7l-29.8,29.7c-2.4,2.4-3.9,5.6-4,9.1l-1.4,35.3c-0.2,5.3,0,10.7,0.6,16l5.7,50.3c0,0,1.6,25.9,12.8,21.9
						c0,0,12.6-24.2,27-33c14.4-8.8,34.6-15.9,34.6-15.9l-3.1-48l0.4-10.2L416.9,389.1z"/>
				</g>
			</g>
			<g>
				<g>
					<path class="st7" d="M441.2,380.9c0,0,0.1-0.4,0.2-1c0.1-0.7,0.2-1.7,0.3-2.9c0.1-1.2,0-2.7-0.1-4.3c-0.2-1.6-0.5-3.4-1-5.2
						c-1-3.6-2.6-6.7-3.9-8.8c-0.7-1-1.3-1.8-1.7-2.4c-0.4-0.5-0.7-0.8-0.7-0.8c-0.1,0.1,0.9,1.3,2.1,3.4c1.2,2.1,2.7,5.1,3.7,8.7
						c0.5,1.8,0.8,3.5,1,5.1c0.2,1.6,0.3,3.1,0.2,4.3C441.4,379.4,441.1,380.9,441.2,380.9z"/>
				</g>
			</g>
			<g>
				<g>
					<path class="st7" d="M462.5,375.3c0,0,0.1-0.3,0.3-0.8c0.2-0.5,0.3-1.4,0.4-2.4c0.3-2,0.3-4.8-0.2-7.9
						c-0.6-3.1-1.7-5.7-2.7-7.4c-0.5-0.9-0.9-1.6-1.3-2c-0.3-0.5-0.5-0.7-0.6-0.7c-0.1,0.1,0.6,1.1,1.5,2.9c0.9,1.8,1.9,4.4,2.5,7.4
						c0.6,3,0.6,5.8,0.4,7.8C462.7,374,462.4,375.2,462.5,375.3z"/>
				</g>
			</g>
		</g>
		<g>
			<g>
				<g>
					<g>
						<path class="st5" d="M486.5,331.7l-2.4-0.8c-0.4-0.1-0.9-0.2-1.3-0.1c-2.8,0.6-13.6,3.1-17.7,4c-1.1,0.3-2,1-2.5,2L446,371.6
							c-0.4,0.9-0.2,2,0.5,2.7l0,0L486.5,331.7z"/>
					</g>
				</g>
				<g>
					<g>
						<path class="st6" d="M486.5,331.7l-18.3,36.8l-21.8,5.8l18.6-36.4c0.4-0.8,1.2-1.4,2-1.6L486.5,331.7z"/>
					</g>
				</g>
			</g>
			<g>
				<g>
					<g>
						<g>
							<g>
								<path class="st8" d="M488.1,347.7c-0.4-0.6,3.8-20,2.6-20.6c-1.2-0.5-1.8-0.3-2.6,0.8c-0.8,1.2-5.6,12.6-5.6,12.6l-2.1-0.8
									c-0.6-0.2-1.2-0.3-1.8-0.2c-3.2,0.5-13.6,2-13.5,2.4c0,0-0.2,4,3.4,3.2l-5.1,1.6c0,0-1.7,3,1.4,3.5h3.6l-5.6,1.1
									c0,0,0.6,3.1,2.6,3.3c2,0.2,7.5-0.6,7.5-0.6l1.2,2.7l-5.8,11.7l9.8-3.3c0,0,5.2-2.7,4.8-5.4c0,0,3.8-2.2,3.8-5.1
									C486.7,354.8,490.4,350.8,488.1,347.7z"/>
							</g>
						</g>
					</g>
					<g>
						<g>
							<g>
								<path class="st9" d="M485.9,347.1c-0.1,0.1-0.8-0.6-2.3-1.5c-0.7-0.4-1.6-0.9-2.6-1.3c-1-0.4-2.2-0.7-3.4-0.7
									c-2.5,0-4.8,0.5-6.4,0.9c-1.6,0.4-2.6,0.7-2.6,0.6c0-0.1,0.9-0.5,2.6-1c1.6-0.5,3.9-1,6.5-1.1c1.3,0,2.6,0.3,3.6,0.8
									c1,0.4,1.9,0.9,2.6,1.4C485.2,346.2,485.9,347,485.9,347.1z"/>
							</g>
						</g>
					</g>
					<g>
						<g>
							<g>
								<path class="st9" d="M482.3,352c-0.1,0-0.5-0.8-1.5-1.7c-0.5-0.5-1.2-1-2-1.2c-0.8-0.2-1.9-0.2-2.9-0.1
									c-2.1,0.3-4,0.8-5.4,1.1c-1.4,0.3-2.3,0.4-2.2,0.3c-0.1-0.1,0.8-0.3,2.1-0.7c1.4-0.3,3.2-0.9,5.4-1.2
									c1.1-0.1,2.1-0.1,3.1,0.1c1,0.3,1.6,0.9,2.1,1.4C482.1,351.1,482.4,351.9,482.3,352z"/>
							</g>
						</g>
					</g>
				</g>
				<g>
					<g>
						<g>
							<path class="st9" d="M487.8,347.4c-0.1,0-0.3-0.6-0.8-1.7c-0.4-1-1.1-2.5-2.3-3.6c-1.2-1.1-2.7-1.6-3.8-1.9
								c-1.1-0.3-1.8-0.5-1.7-0.6c0-0.1,0.7,0,1.8,0.2c1.1,0.3,2.7,0.7,4.1,1.9c1.3,1.2,1.9,2.8,2.3,3.9
								C487.8,346.7,487.9,347.4,487.8,347.4z"/>
						</g>
					</g>
				</g>
			</g>
		</g>
		<g>
			<g>
				<g>
					<g>
						<g>
							<path class="st8" d="M428.5,363.4l16-16.7l13.2-4.7l4.1,1.6l9.6-1.9c1.5-0.3,2.7,1.4,1.8,2.6c-0.1,0.1-0.2,0.2-0.3,0.3
								c-0.9,0.5-13.4,4.5-13.4,4.5l16-1.3c0,0,1.7,0.8,0.3,2.1c-1.4,1.3-6.8,2.8-10.3,3.4c-1.8,0.4-6.2,2.5-6.2,2.5
								s13.3,2.3,13.2,3.3c-0.1,1,0.1,1.5-1,1.6c-1.1,0.1-12.4-0.3-14.1,0.1c-1.7,0.5-7.7,8.5-10.9,10.2c-3.2,1.7-6.4,0-6.4,0
								l-3,3.2l-7.3-10.2"/>
						</g>
					</g>
					<g>
						<g>
							<g>
								<path class="st9" d="M429.7,364.1c0,0,0.1,0.1,0.1,0.2c0.1,0.1,0.2,0.3,0.4,0.5c0.3,0.5,0.8,1.1,1.4,2
									c1.3,1.7,3.1,4.3,5.5,7.5l-0.2,0c0.9-1,1.9-2.1,3-3.2c0,0,0.1-0.1,0.2,0l0,0c1.3,0.6,3,0.9,4.6,0.6c0.8-0.2,1.6-0.5,2.3-1
									c0.7-0.5,1.4-1.1,2.1-1.8c1.3-1.3,2.7-2.8,4-4.3c0.7-0.8,1.4-1.5,2.2-2.3c0.4-0.4,0.8-0.7,1.2-1.1l0.3-0.2l0.4-0.2
									c0.3-0.1,0.6-0.1,0.8-0.1c2.2-0.2,4.5-0.1,6.8-0.1c1.2,0,2.3,0,3.5,0.1c0.6,0,1.2,0,1.8,0c0.6,0,1.3,0.1,1.7-0.1
									c0.2-0.1,0.2-0.3,0.2-0.6l0-0.5c0-0.1,0-0.2,0-0.2c0,0.1,0,0,0,0c-0.4-0.3-1.1-0.5-1.6-0.6c-1.2-0.3-2.4-0.6-3.7-0.9
									c-2.5-0.5-5.1-1-7.7-1.5c-0.1,0-0.2-0.2-0.2-0.3c0-0.1,0.1-0.2,0.1-0.2c1.4-0.7,2.7-1.3,4.2-1.9c0.7-0.3,1.5-0.6,2.3-0.7
									c0.8-0.1,1.5-0.3,2.3-0.5c1.5-0.4,3-0.8,4.5-1.3c0.7-0.3,1.5-0.5,2.2-0.9c0.3-0.2,0.7-0.4,1-0.6c0.3-0.2,0.5-0.5,0.5-0.8
									c0-0.3-0.3-0.7-0.7-0.9l0.1,0c-5.5,0.4-10.9,0.8-16,1.3c-0.1,0-0.3-0.1-0.3-0.2c0-0.1,0.1-0.2,0.2-0.3
									c2.4-0.8,4.8-1.6,7.2-2.3c1.2-0.4,2.3-0.8,3.5-1.2c0.6-0.2,1.1-0.4,1.7-0.6c0.3-0.1,0.6-0.2,0.8-0.3
									c0.1-0.1,0.2-0.1,0.3-0.2c0.1-0.1,0.1-0.2,0.2-0.3c0.2-0.5,0.2-1-0.1-1.4c-0.3-0.4-0.8-0.7-1.3-0.7
									c-1.1,0.2-2.2,0.4-3.3,0.6c-2.2,0.4-4.4,0.8-6.5,1.2c0,0-0.1,0-0.1,0c-1.4-0.5-2.8-1.1-4.1-1.6l0.1,0
									c-4.8,1.7-9.3,3.3-13.2,4.7l0.1,0c-5,5.2-9,9.3-11.8,12.2c-1.4,1.4-2.4,2.5-3.2,3.3c-0.4,0.4-0.6,0.6-0.8,0.8
									c-0.2,0.2-0.3,0.3-0.3,0.3s0.1-0.1,0.3-0.3c0.2-0.2,0.5-0.5,0.8-0.9c0.7-0.8,1.8-1.9,3.1-3.3c2.7-2.9,6.7-7.1,11.7-12.3
									c0,0,0,0,0.1,0c3.9-1.4,8.3-3,13.2-4.7c0,0,0.1,0,0.1,0c1.3,0.5,2.7,1,4.1,1.5l-0.1,0c2.1-0.4,4.3-0.8,6.5-1.3
									c1.1-0.2,2.2-0.5,3.4-0.6c0.7,0,1.3,0.3,1.7,0.9c0.4,0.5,0.5,1.3,0.2,1.9c-0.1,0.1-0.2,0.3-0.3,0.4
									c-0.1,0.1-0.3,0.2-0.5,0.3c-0.3,0.1-0.6,0.2-0.9,0.3c-0.6,0.2-1.1,0.4-1.7,0.6c-1.2,0.4-2.3,0.8-3.5,1.2
									c-2.4,0.8-4.8,1.5-7.2,2.3l-0.1-0.5c5.2-0.4,10.6-0.8,16-1.3l0,0c0,0,0.1,0,0.1,0c0.3,0.1,0.5,0.3,0.7,0.5
									c0.2,0.2,0.3,0.5,0.3,0.8c0,0.6-0.4,0.9-0.7,1.2c-0.3,0.3-0.7,0.5-1.1,0.7c-0.7,0.4-1.5,0.6-2.3,0.9
									c-1.5,0.5-3.1,0.9-4.6,1.3c-0.8,0.2-1.5,0.4-2.3,0.5c-0.7,0.1-1.5,0.4-2.2,0.7c-1.4,0.6-2.8,1.2-4.2,1.8l-0.1-0.5
									c2.6,0.5,5.2,0.9,7.7,1.5c1.3,0.3,2.5,0.6,3.7,0.9c0.6,0.2,1.2,0.3,1.8,0.7c0.1,0.1,0.2,0.1,0.2,0.3c0,0.2,0,0.2,0,0.3
									l0,0.5c0,0.2,0,0.3-0.1,0.5c-0.1,0.2-0.2,0.4-0.4,0.5c-0.7,0.3-1.3,0.2-1.9,0.2c-0.6,0-1.2,0-1.8,0c-1.2,0-2.4,0-3.5-0.1
									c-2.3,0-4.6-0.1-6.7,0.1c-0.3,0-0.5,0.1-0.8,0.1l-0.3,0.1l-0.3,0.2c-0.4,0.3-0.8,0.7-1.2,1c-0.7,0.7-1.5,1.5-2.2,2.2
									c-1.4,1.5-2.7,2.9-4.1,4.3c-0.7,0.6-1.4,1.3-2.1,1.8c-0.8,0.5-1.6,0.9-2.5,1.1c-1.7,0.4-3.4,0-4.8-0.7l0.2,0
									c-1.1,1.1-2.1,2.2-3,3.2c0,0.1-0.1,0.1-0.2,0l0,0c-2.3-3.3-4.1-5.8-5.4-7.6c-0.6-0.9-1.1-1.5-1.4-2
									c-0.1-0.2-0.3-0.4-0.3-0.5C429.7,364.1,429.7,364.1,429.7,364.1z"/>
							</g>
						</g>
					</g>
				</g>
				<g>
					<g>
						<g>
							<path class="st9" d="M449.4,347.3c0-0.1,0.9-0.4,2.5-1c1.6-0.6,3.8-1.4,6.3-2.2l0,0c0.6-0.1,1.2-0.3,1.9-0.4
								c3.1-0.6,5.8-1.2,7.9-1.5c2-0.4,3.3-0.6,3.3-0.5c0,0.1-1.2,0.4-3.2,0.8c-2,0.5-4.8,1.1-7.8,1.7c-0.6,0.1-1.3,0.3-1.9,0.4l0,0
								c-2.5,0.8-4.8,1.6-6.4,2.1C450.4,347.1,449.4,347.4,449.4,347.3z"/>
						</g>
					</g>
				</g>
			</g>
			<g>
				<g>
					<g>
						<path class="st4" d="M340.6,347.5l43,37.3l44.3-25.3c0,0,14,7.4,11,19.8l-39.2,31c-11.3,9-27.3,9.2-38.9,0.6l-15-11.1
							l-34-28.5c0,0-5.6-18.1,6.7-23.7C330.8,341.9,340.6,347.5,340.6,347.5z"/>
					</g>
				</g>
			</g>
			<g>
				<g>
					<g>
						<path class="st5" d="M346.6,352.7c0,0,0.2,0.2,0.7,0.5c0.5,0.4,1.1,0.9,1.9,1.7c1.7,1.5,4.2,3.6,7.4,6.4
							c6.4,5.6,15.7,13.6,27.1,23.4l-0.2,0c12.6-7.2,27.7-15.9,44.3-25.4l0.1-0.1l0.1,0.1c3.4,1.9,6.7,4.5,9,8
							c2.2,3.5,3.3,7.9,2.2,12.1l0,0.1l-0.1,0.1c-3.9,3.1-8,6.3-12.2,9.6c-7.6,6-15,11.9-22.2,17.6l0,0c-6,5.4-13.2,8.9-20.5,10.3
							c-3.7,0.6-7.4,0.7-10.9-0.1c-3.5-0.9-6.7-2.3-9.6-3.9c-5.9-3.2-10.9-7.2-15.5-11c-4.5-3.8-8.7-7.4-12.5-10.6
							c-7.6-6.4-13.7-11.6-17.9-15.2c-2.1-1.8-3.7-3.1-4.8-4.1c-0.5-0.5-0.9-0.8-1.2-1.1c-0.3-0.2-0.4-0.4-0.4-0.4s0.2,0.1,0.4,0.3
							c0.3,0.2,0.7,0.6,1.3,1c1.1,0.9,2.7,2.3,4.8,4c4.2,3.5,10.3,8.7,18,15c3.8,3.2,8,6.7,12.6,10.5c4.6,3.7,9.6,7.7,15.5,10.9
							c2.9,1.6,6.1,3,9.5,3.9c3.4,0.8,7.1,0.7,10.7,0.1c7.2-1.4,14.4-4.9,20.3-10.2l0,0l0,0c7.2-5.7,14.6-11.6,22.2-17.6
							c4.2-3.3,8.3-6.6,12.2-9.6l-0.1,0.1c0.5-2,0.5-4.1,0.2-6.1c-0.4-2-1.2-3.9-2.2-5.6c-2.2-3.4-5.4-5.9-8.8-7.8l0.2,0
							c-16.6,9.5-31.7,18.1-44.3,25.3l-0.1,0.1l-0.1-0.1c-11.4-9.9-20.6-17.9-27-23.5c-3.2-2.8-5.7-5-7.4-6.5
							c-0.8-0.7-1.5-1.3-1.9-1.7C346.8,352.9,346.6,352.7,346.6,352.7z"/>
					</g>
				</g>
			</g>
		</g>
		<g>
			<g>
				<g>
					<path class="st5" d="M338.7,346.9c-0.1,0.1-1.6-1.1-4.4-1.8c-2.9-0.7-7.1-1-11.4,0.3c-2.2,0.6-4.1,1.7-5.6,2.9
						c-1.5,1.2-2.6,2.7-3.5,3.9c-0.8,1.2-1.5,2.3-1.9,3c-0.5,0.7-0.7,1.1-0.8,1.1c0,0,0.2-0.4,0.6-1.2c0.4-0.7,1-1.8,1.8-3.1
						c0.8-1.2,1.9-2.7,3.5-4c1.5-1.3,3.5-2.4,5.7-3c4.5-1.3,8.8-1,11.7-0.2c1.5,0.4,2.6,0.9,3.3,1.4c0.4,0.2,0.6,0.4,0.8,0.5
						C338.6,346.8,338.7,346.9,338.7,346.9z"/>
				</g>
			</g>
		</g>
		<g>
			<g>
				<g>
					<path class="st5" d="M385.3,340.9c0,0,0,0.6,0,1.7c-0.1,1.2-0.2,2.8-0.3,4.7c-0.2,4-0.4,9.5-0.6,15.5c-0.2,6-0.3,11.5-0.4,15.5
						c-0.1,1.9-0.1,3.5-0.2,4.7c-0.1,1.1-0.1,1.7-0.1,1.7c0,0-0.1-0.6-0.1-1.7c0-1.2,0-2.8,0-4.7c0-4,0.1-9.5,0.3-15.6
						c0.2-6.1,0.5-11.6,0.8-15.5c0.2-2,0.3-3.6,0.4-4.7C385.1,341.5,385.2,340.9,385.3,340.9z"/>
				</g>
			</g>
		</g>
		<g>
			<g>
				<g>
					<path class="st5" d="M380.8,324.8c0.1,0,0.6,0.5,1.2,1.5c0.7,1,1.5,2.4,2.1,4.1c0.7,1.7,1,3.3,1.2,4.5c0.2,1.2,0.2,1.9,0.1,1.9
						c-0.2,0-0.5-2.9-1.8-6.2C382.4,327.3,380.7,324.9,380.8,324.8z"/>
				</g>
			</g>
		</g>
		<g>
			<g>
				<path class="st7" d="M358.6,409.3c1.6-2.1,5.3-6.8,10.6-13.8c2.9-3.8,5.5-7.2,7.5-9.8c0.9-1.2,1.6-2.2,2.2-3
					c0.5-0.7,0.8-1.1,0.8-1.1s-0.4,0.3-0.9,1c-0.6,0.8-1.4,1.7-2.3,2.9c-2,2.5-4.6,5.9-7.6,9.7c-2.9,3.8-5.5,7.3-7.4,9.8
					C359.6,407.6,358.5,409.2,358.6,409.3z"/>
			</g>
		</g>
		<g>
			<g>
				<path class="st7" d="M339.4,394.6c0,0,0.4-0.3,1-1c0.6-0.6,1.6-1.6,2.7-2.8c2.2-2.4,5.3-5.7,8.5-9.5c3.2-3.8,6-7.3,8-9.9
					c1-1.3,1.8-2.3,2.3-3.1c0.5-0.7,0.8-1.2,0.8-1.2c0,0-0.4,0.4-0.9,1.1c-0.6,0.8-1.5,1.8-2.5,3c-2.1,2.5-4.9,6-8.2,9.8
					c-3.2,3.8-6.2,7.2-8.4,9.6c-1,1.2-1.9,2.1-2.6,2.9C339.7,394.1,339.4,394.5,339.4,394.6z"/>
			</g>
		</g>
		<g>
			<g>
				<path class="st7" d="M319.6,377.7c0,0,0.4-0.3,1.1-0.9c0.7-0.6,1.7-1.5,2.9-2.6c2.4-2.2,5.7-5.4,9.1-9c3.4-3.7,6.3-7.2,8.3-9.7
					c1-1.3,1.8-2.4,2.3-3.1c0.5-0.7,0.8-1.2,0.8-1.2c0,0-0.4,0.4-0.9,1.1c-0.6,0.8-1.5,1.8-2.5,3c-2.1,2.5-5,6-8.4,9.6
					c-3.4,3.7-6.6,6.9-9,9.1c-1.1,1.1-2.1,2-2.8,2.7C319.9,377.4,319.6,377.7,319.6,377.7z"/>
			</g>
		</g>
		<g>
			<g>
				<path class="st7" d="M387.9,414.3c0.1,0-0.3-6.3-1-14.1c-0.7-7.8-1.4-14-1.5-14c-0.1,0,0.3,6.3,1,14.1
					C387.1,408,387.8,414.3,387.9,414.3z"/>
			</g>
		</g>
		<g>
			<g>
				<path class="st7" d="M397.9,378.5c-0.1,0.1,0.9,1.1,2.3,2.8c1.4,1.7,3.4,4.1,5.4,6.9c2,2.8,3.8,5.3,5,7.2c1.2,1.9,2,3.1,2,3
					c0,0-0.1-0.3-0.4-0.9c-0.3-0.6-0.7-1.4-1.3-2.3c-1.2-1.9-2.9-4.6-4.9-7.3c-2.1-2.8-4.1-5.2-5.6-6.8c-0.8-0.8-1.4-1.5-1.8-1.9
					C398.2,378.7,397.9,378.5,397.9,378.5z"/>
			</g>
		</g>
		<g>
			<g>
				<path class="st7" d="M416.9,366.3c-0.1,0.1,0.9,1,2.4,2.5c1.5,1.5,3.4,3.6,5.5,6.1c2,2.5,3.7,4.8,4.9,6.6
					c1.2,1.7,1.9,2.8,1.9,2.8c0,0-0.1-0.3-0.4-0.8c-0.3-0.5-0.7-1.3-1.2-2.2c-1.1-1.8-2.7-4.2-4.8-6.7c-2-2.5-4.1-4.6-5.6-6
					c-0.8-0.7-1.4-1.3-1.9-1.7C417.2,366.5,416.9,366.3,416.9,366.3z"/>
			</g>
		</g>
		<g>
			<g>
				<path class="st7" d="M397.7,373.7c0.1,0,0.5-1.8,1.5-4.7c0.5-1.4,1.2-3.1,2.2-4.9c0.9-1.8,2.1-3.7,3.4-5.6
					c1.4-1.9,2.8-3.5,4.2-5c1.4-1.4,2.8-2.6,4-3.6c2.4-1.9,4-2.8,4-2.9c0,0-0.4,0.2-1.2,0.6c-0.4,0.2-0.8,0.5-1.3,0.8
					c-0.5,0.3-1.1,0.7-1.7,1.2c-1.2,0.9-2.6,2.1-4.1,3.5c-1.4,1.4-2.9,3.1-4.3,5c-1.4,1.9-2.5,3.8-3.4,5.7c-0.9,1.8-1.6,3.5-2.1,5
					c-0.3,0.7-0.4,1.4-0.6,2c-0.2,0.6-0.3,1.1-0.4,1.5C397.7,373.2,397.6,373.7,397.7,373.7z"/>
			</g>
		</g>
		<g>
			<g>
				<path class="st7" d="M385.2,364.6c0.1,0-0.1-1.9,0.1-4.9c0.1-1.5,0.4-3.3,0.8-5.3c0.5-1.9,1.1-4.1,2-6.2c0.9-2.1,2-4.1,3-5.7
					c1.1-1.7,2.2-3.1,3.2-4.2c2-2.3,3.5-3.5,3.4-3.5c0,0-0.4,0.3-1.1,0.8c-0.3,0.3-0.7,0.6-1.2,1c-0.4,0.4-1,0.9-1.5,1.5
					c-1.1,1.1-2.2,2.5-3.3,4.2c-1.1,1.7-2.2,3.7-3.1,5.8c-0.9,2.2-1.5,4.3-2,6.3c-0.4,2-0.6,3.8-0.7,5.3c-0.1,0.8,0,1.5,0,2.1
					c0,0.6,0,1.1,0.1,1.6C385.1,364.2,385.2,364.7,385.2,364.6z"/>
			</g>
		</g>
		<g>
			<g>
				<path class="st7" d="M358.3,359.9c0,0,0.4,0,1.1,0c0.7,0,1.7-0.2,3-0.3c2.5-0.4,5.9-1.1,9.5-2.3c3.6-1.3,6.8-2.8,9-4
					c1.1-0.6,2-1.2,2.5-1.6c0.6-0.4,0.9-0.6,0.9-0.7c0-0.1-1.4,0.7-3.6,1.9c-2.2,1.2-5.4,2.6-9,3.9c-3.6,1.2-7,2-9.4,2.5
					C359.9,359.7,358.3,359.8,358.3,359.9z"/>
			</g>
		</g>
		<g>
			<g>
				<path class="st7" d="M371.2,374.4c0,0.1,0.8,0.1,2-0.1c1.2-0.1,2.9-0.5,4.7-1c1.8-0.5,3.3-1.2,4.4-1.8c1.1-0.6,1.7-1,1.7-1
					c-0.1-0.1-2.7,1.2-6.3,2.3C374.1,373.9,371.1,374.3,371.2,374.4z"/>
			</g>
		</g>
		<g>
			<g>
				<path class="st7" d="M336.5,344.3c0,0,0.2,0,0.5,0c0.4,0,0.8,0,1.4,0c1.2,0,3-0.2,5.2-0.4c4.3-0.4,10.3-1.3,16.8-2.9
					c6.5-1.6,12.2-3.7,16.2-5.3c2-0.8,3.6-1.6,4.7-2.1c0.5-0.2,0.9-0.5,1.3-0.6c0.3-0.1,0.4-0.2,0.4-0.3s-0.2,0-0.5,0.2
					c-0.4,0.1-0.8,0.3-1.3,0.5c-1.1,0.5-2.7,1.2-4.8,1.9c-4.1,1.6-9.7,3.6-16.2,5.2c-6.4,1.6-12.4,2.5-16.7,3
					c-2.2,0.3-3.9,0.4-5.1,0.5c-0.6,0.1-1,0.1-1.4,0.1C336.6,344.3,336.5,344.3,336.5,344.3z"/>
			</g>
		</g>
		<g>
			<g>
				<path class="st7" d="M322.1,334.9c0,0.1,1.1-0.5,2.7-1.4c1.7-0.9,4-2.1,6.7-3.2c2.7-1.1,5.2-2,7-2.6c1.8-0.6,3-0.9,2.9-1
					c0-0.1-1.2,0.1-3,0.6c-1.9,0.5-4.4,1.3-7.1,2.4c-2.7,1.1-5,2.4-6.7,3.4C323,334.2,322.1,334.9,322.1,334.9z"/>
			</g>
		</g>
		<g>
			<g>
				<path class="st7" d="M309.9,412.5c0,0,0.6,0.1,1.7,0.2c1.1,0.1,2.6,0.2,4.6,0.2c1.9,0,4.2-0.1,6.8-0.3c2.5-0.2,5.3-0.6,8.2-1.2
					c2.9-0.6,5.6-1.4,8-2.1c2.4-0.8,4.6-1.6,6.3-2.4c1.8-0.8,3.2-1.5,4.1-2c0.9-0.5,1.5-0.8,1.4-0.8c0,0-0.6,0.2-1.5,0.7
					c-1,0.5-2.4,1.1-4.2,1.8c-1.8,0.7-3.9,1.5-6.3,2.3c-2.4,0.8-5.1,1.5-8,2.1c-2.9,0.6-5.6,1-8.1,1.3c-2.5,0.2-4.8,0.4-6.7,0.4
					c-1.9,0-3.5,0-4.5,0C310.5,412.5,309.9,412.5,309.9,412.5z"/>
			</g>
		</g>
		<g>
			<g>
				<path class="st7" d="M307.8,387.9c0,0,0.3,0.1,0.9,0.3c0.6,0.1,1.4,0.3,2.5,0.4c2.1,0.3,5,0.5,8.3,0.4c3.2-0.1,6.1-0.6,8.2-1.1
					c1-0.2,1.9-0.5,2.4-0.7c0.6-0.2,0.9-0.3,0.9-0.3c0-0.1-1.3,0.2-3.4,0.6c-2.1,0.4-4.9,0.8-8.1,1c-3.2,0.1-6.1,0-8.2-0.2
					C309.1,388,307.8,387.8,307.8,387.9z"/>
			</g>
		</g>
		<g>
			<g>
				<path class="st7" d="M312.1,432.6c0,0,0.3,0,0.7,0.1c0.5,0,1.2,0.1,2.1,0.1c0.9,0,2,0.1,3.4,0.1c1.3,0,2.8,0,4.4,0
					c3.3-0.1,7.2-0.3,11.5-0.7c4.3-0.4,9.1-1.1,14-2c4.9-0.9,9.6-2,13.8-3.2c4.2-1.2,7.9-2.4,11-3.5c1.6-0.5,2.9-1.1,4.2-1.6
					c1.2-0.5,2.3-0.9,3.1-1.3c0.8-0.3,1.5-0.6,1.9-0.8c0.4-0.2,0.7-0.3,0.7-0.3c0,0-0.2,0.1-0.7,0.2c-0.5,0.2-1.2,0.4-2,0.8
					c-0.9,0.3-1.9,0.7-3.1,1.2c-1.2,0.4-2.6,1-4.2,1.5c-3.1,1.1-6.8,2.2-11,3.4c-4.2,1.1-8.9,2.2-13.8,3.1c-4.9,0.9-9.7,1.5-14,2
					c-4.3,0.4-8.2,0.7-11.5,0.8c-1.6,0.1-3.1,0.1-4.4,0.1c-1.3,0-2.4,0-3.3,0c-0.9,0-1.6,0-2.1,0
					C312.4,432.5,312.1,432.6,312.1,432.6z"/>
			</g>
		</g>
		<g>
			<g>
				<path class="st7" d="M312.6,449.1c0,0,0.3,0.2,0.9,0.5c0.6,0.3,1.5,0.7,2.6,1.1c2.3,0.8,5.5,1.8,9.2,2.2c3.7,0.5,7,0.4,9.4,0.2
					c1.2-0.1,2.2-0.2,2.8-0.4c0.7-0.1,1-0.2,1-0.2c0-0.1-1.5,0.1-3.9,0.3c-2.4,0.1-5.7,0.1-9.3-0.3c-3.6-0.5-6.8-1.3-9.1-2.1
					C314,449.6,312.7,449,312.6,449.1z"/>
			</g>
		</g>
		<g>
			<g>
				<path class="st7" d="M314.8,462.1c-0.1,0,0.4,0.7,1.2,1.6c0.8,0.9,2.1,2.1,3.6,3.2c1.6,1.1,3.1,1.8,4.3,2.2
					c1.2,0.4,1.9,0.6,1.9,0.5c0.1-0.2-2.9-1-6-3.1C316.8,464.4,314.9,462,314.8,462.1z"/>
			</g>
		</g>
		<g class="st10">
			<g>
				<path d="M386.8,416.2c-9.1,5.9-21.2,5.5-31.2,1.4c-10-4.1-18.4-11.3-26.5-18.5c-6.3-5.6-12.9-11.8-15-20
					c-0.4-1.5-0.4-3.4,0.9-4.1c1.4-0.7,3,0.5,4.1,1.6c10.5,10.4,22.5,19.2,34.4,28c4.7,3.4,9.4,6.9,14.6,9.3
					c5.3,2.4,11.2,3.7,16.9,2.6"/>
			</g>
		</g>
		<g class="st10">
			<g>
				<path d="M398.5,376.3c-4.6-3.2-8.1-5.7-12.7-8.9c-0.5-0.3-0.9-0.7-1.2-1.1c-0.3-0.5-0.3-1.2,0.2-1.5c4.6,3.5,10.4,5.4,16.1,5.4
					c5.8,0,11.5-2,16.1-5.6c2.2-1.7,4.1-3.7,6.5-5c2.4-1.3,5.5-1.8,7.8-0.3l1.3,0.7l-1.7,1.1l-3-1.8L398.5,376.3z"/>
			</g>
		</g>
		<g>
			<g>
				<g>
					<g>
						<g>
							<g>
								<g>
									<g>
										<g>
											<g>
												<path class="st8" d="M352,335L352,335c8.3,1.6,16.3-4.2,17.3-12.7c0.3-2.8,0.6-4.8,0.6-4.8s11.8,0.5,14.2-11
													c2.4-11.5,5.5-38.2,5.5-38.2l0,0c-12.2-8.3-27.9-9.4-41.1-2.8l-2,1l-6.4,52.3C339.3,326.5,344.4,333.5,352,335z"/>
											</g>
										</g>
									</g>
								</g>
							</g>
							<g>
								<g>
									<g>
										<g>
											<g>
												<path class="st9" d="M369.9,317.5c0,0-7.3-1-14.1-7.3c0,0,2,9,13.7,10.2L369.9,317.5z"/>
											</g>
										</g>
									</g>
								</g>
							</g>
						</g>
					</g>
				</g>
				<g>
					<g>
						<g>
							<g>
								<g>
									<g>
										<path class="st8" d="M345.7,278.7c-0.2-0.1-7.4-3.9-8.7,4c-1.3,7.9,6.9,7.6,7,7.3C344,289.8,345.7,278.7,345.7,278.7z"/>
									</g>
								</g>
							</g>
						</g>
					</g>
					<g>
						<g>
							<g>
								<g>
									<g>
										<g>
											<path class="st9" d="M342,286.6c0,0-0.2,0.1-0.4,0.1c-0.2,0.1-0.6,0.1-1-0.1c-0.8-0.4-1.3-1.9-1.1-3.3
												c0.1-0.7,0.4-1.4,0.7-1.9c0.3-0.5,0.8-0.9,1.2-0.9c0.4,0,0.7,0.3,0.8,0.5c0.1,0.2,0,0.4,0,0.4c0,0,0.2-0.1,0.2-0.4
												c0-0.2-0.1-0.4-0.2-0.5c-0.2-0.2-0.4-0.3-0.7-0.3c-0.6-0.1-1.3,0.4-1.6,1c-0.4,0.6-0.7,1.3-0.8,2.1
												c-0.2,1.6,0.4,3.2,1.5,3.7c0.5,0.2,1,0.1,1.3,0C341.9,286.8,342,286.7,342,286.6z"/>
										</g>
									</g>
								</g>
							</g>
						</g>
					</g>
				</g>
				<g>
					<g>
						<g>
							<g>
								<g>
									<g>
										<g>
											<g>
												<g>
													<g>
														<g>
															<path class="st5" d="M383.6,286.6c-0.1,0.9-1,1.5-1.9,1.3c-0.9-0.1-1.5-0.9-1.4-1.8c0.1-0.9,1-1.5,1.9-1.3
																C383.1,285,383.8,285.8,383.6,286.6z"/>
														</g>
													</g>
												</g>
											</g>
										</g>
										<g>
											<g>
												<g>
													<g>
														<g>
															<g>
																<path class="st5" d="M384.3,284c-0.2,0.2-1.3-1-3.1-1.3c-1.8-0.4-3.2,0.3-3.4,0c-0.1-0.1,0.2-0.5,0.9-0.8
																	c0.6-0.3,1.7-0.5,2.8-0.3c1.1,0.2,1.9,0.8,2.4,1.3C384.3,283.5,384.4,283.9,384.3,284z"/>
															</g>
														</g>
													</g>
												</g>
											</g>
										</g>
									</g>
									<g>
										<g>
											<g>
												<g>
													<g>
														<g>
															<path class="st5" d="M366.5,283.3c-0.1,0.9-1,1.5-1.9,1.3c-0.9-0.1-1.5-0.9-1.4-1.8c0.1-0.9,1-1.5,1.9-1.3
																C366,281.6,366.6,282.4,366.5,283.3z"/>
														</g>
													</g>
												</g>
											</g>
										</g>
										<g>
											<g>
												<g>
													<g>
														<g>
															<g>
																<path class="st5" d="M366.9,281c-0.2,0.2-1.3-1-3.1-1.3c-1.8-0.4-3.2,0.3-3.4,0c-0.1-0.1,0.2-0.5,0.9-0.8
																	c0.6-0.3,1.7-0.5,2.8-0.3c1.1,0.2,1.9,0.8,2.4,1.3C366.9,280.5,367,280.9,366.9,281z"/>
															</g>
														</g>
													</g>
												</g>
											</g>
										</g>
									</g>
									<g>
										<g>
											<g>
												<g>
													<g>
														<g>
															<path class="st5" d="M370.7,295.3c0-0.1,1.1-0.1,3,0c0.5,0,0.9,0,1-0.3c0.2-0.3,0.1-0.8,0-1.4
																c-0.2-1.2-0.4-2.4-0.7-3.7c-0.9-5.2-1.5-9.5-1.2-9.6c0.2,0,1.1,4.2,2,9.4c0.2,1.3,0.4,2.5,0.6,3.7
																c0.1,0.5,0.3,1.2-0.1,1.8c-0.2,0.3-0.6,0.5-0.9,0.5c-0.3,0-0.6,0-0.8,0C371.8,295.6,370.7,295.4,370.7,295.3z"/>
														</g>
													</g>
												</g>
											</g>
										</g>
									</g>
									<g>
										<g>
											<g>
												<g>
													<g>
														<g>
															<path class="st5" d="M365.3,295.5c0.3,0-0.1,2,1.3,3.6c1.4,1.7,3.5,1.9,3.4,2.1c0,0.1-0.5,0.3-1.4,0.1
																c-0.9-0.1-2-0.6-2.9-1.7c-0.8-1-1.1-2.2-1-3C364.9,295.9,365.2,295.5,365.3,295.5z"/>
														</g>
													</g>
												</g>
											</g>
										</g>
									</g>
								</g>
							</g>
						</g>
						<g>
							<g>
								<g>
									<g>
										<g>
											<path class="st5" d="M368.7,274.1c-0.3,0.4-2-0.1-4.1-0.3c-2.1-0.2-3.9,0.1-4.1-0.4c-0.1-0.2,0.3-0.6,1.1-1
												c0.8-0.3,1.9-0.6,3.2-0.5c1.3,0.1,2.4,0.5,3.1,1C368.5,273.5,368.8,273.9,368.7,274.1z"/>
										</g>
									</g>
								</g>
							</g>
						</g>
						<g>
							<g>
								<g>
									<g>
										<g>
											<path class="st5" d="M384.6,278.8c-0.4,0.3-1.5-0.3-3-0.6c-1.4-0.4-2.8-0.3-3-0.7c-0.1-0.2,0.2-0.6,0.8-0.9
												c0.6-0.3,1.6-0.4,2.6-0.2c1,0.2,1.8,0.8,2.2,1.3C384.7,278.2,384.8,278.6,384.6,278.8z"/>
										</g>
									</g>
								</g>
							</g>
						</g>
					</g>
				</g>
			</g>
			<g>
				<g>
					<g>
						<path class="st5" d="M396.6,262.1c0.4-1.4,0.2-3-0.8-4.1c-1-1.1-2.8-1.4-4-0.5c0.9-1.8-0.2-4.3-2.2-4.8
							c-1.8-0.5-3.7,0.6-5.6,0.8c-1.9,0.1-3.7-0.6-5.2-1.7c-1.6-1-3-2.3-4.6-3.2c-3.3-2-7.5-2.6-11.3-1.7c-3.8,0.9-7.2,3.4-9.2,6.7
							c-2.4-1.3-5.5-0.6-7.4,1.3c-2,1.8-2.9,4.5-3.1,7.2c-0.1,1.8,0,3.6,0.3,5.4c0,0.1-0.1,0.3-0.1,0.4c-1.1,6.3-1.8,13.9,0.8,14.5
							c4.7,1,5.3-8.1,5.3-8.1c6.2-1.1,5.7-10.2,7.4-11.2c1.7-1,5.3-3.5,16.2,5c4.2,3.3,10.5,4.4,14,4.3c0.1,0,0.2,0,0.3,0
							c0,0,0.1,0,0.1,0c0,0,0.1,0,0.1,0c1.1-0.1,2.3-0.3,3.4-0.7c1.2-0.5,2.4-1.2,3.1-2.3c0.7-1.1,0.8-2.7,0-3.7
							C395.3,264.7,396.2,263.5,396.6,262.1z"/>
					</g>
				</g>
			</g>
		</g>
	</g>
</g>
<g id="Plant">
	<g>
		<g>
			<g>
				<path class="st4" d="M261.9,379c12.7-13,32.7-18.5,50.3-13.8c-15.3,10.3-32.5,15.8-50.9,15.9"/>
			</g>
		</g>
		<g>
			<g>
				<g>
					<path class="st4" d="M278.9,318.6c-2.1-14.8,3.7-31.5,14.8-42.3C294,291,287.8,307.5,278.9,318.6"/>
				</g>
			</g>
			<g>
				<g>
					<path class="st4" d="M270,346.6c7.9-15.1,20.9-27.5,36.4-34.7c-4.6,17.1-19.2,31-36.5,34.9"/>
				</g>
			</g>
			<g>
				<g>
					<path class="st4" d="M268.2,352c9,0.3,18-0.1,26.7-2.4c8.7-2.3,17-6.7,22.7-13.6c-17.4,0-34.8,5.3-49.3,15"/>
				</g>
			</g>
			<g>
				<g>
					<path class="st4" d="M272.7,334.2c-4.5-17-12-28.8-25.4-38.4c-1,8.3,1,16.9,5.6,23.9C257.6,326.7,264.7,331.9,272.7,334.2"/>
				</g>
			</g>
			<g>
				<g>
					<path class="st4" d="M238.9,363.6c-0.2-9.9,6.1-19.6,15.3-23.4C253.5,349,246.6,359.2,238.9,363.6"/>
				</g>
			</g>
			<g>
				<g>
					<path class="st4" d="M234.7,349.2c-1-14.2-11.1-27.4-24.6-32C213.2,331.4,221.4,343.2,234.7,349.2"/>
				</g>
			</g>
			<g>
				<g>
					<path class="st4" d="M241.1,374.7c-3.2-4.5-8.3-7.3-13.6-8.7c-5.3-1.4-10.9-1.5-16.4-1.6c7.4,8.2,18.6,12.8,29.6,12.3"/>
				</g>
			</g>
			<g>
				<g>
					<path class="st4" d="M247.5,411c-9.9-3.1-21-2.3-30.4,2.2c-9.4,4.5-17,12.5-20.9,22.1C214.8,431.8,233.2,423.5,247.5,411"/>
				</g>
			</g>
			<g>
				<g>
					<path class="st4" d="M268,398.4c-3.1,9.2-2.5,20.2,4.4,28.1C275.2,417.1,273.5,406.5,268,398.4"/>
				</g>
			</g>
			<g>
				<g>
					<path class="st4" d="M280.1,393.3c0.9,11.8,8.4,22.8,19,28c0.5,0.3,1.1,0.5,1.7,0.3c0.8-0.3,0.9-1.5,0.8-2.4
						C300.3,407.4,291.6,396,280.1,393.3"/>
				</g>
			</g>
			<g>
				<g>
					<path class="st4" d="M288,392.1c5.2,5.7,12.9,9,20.6,9.1c7.7,0,15.4-3.2,20.7-8.9C316.1,390.9,301,389.9,288,392.1"/>
				</g>
			</g>
			<g>
				<g>
					<g>
						<g>
							<path class="st5" d="M289.9,287.2c0,0,0,0.1-0.1,0.4c-0.1,0.3-0.2,0.6-0.4,1.1c-0.4,1-0.9,2.4-1.6,4.2
								c-0.7,1.8-1.5,4.1-2.5,6.7c-0.5,1.3-1,2.7-1.5,4.2c-0.5,1.5-1.1,3.1-1.6,4.7c-2.3,6.6-4.9,14.6-7.7,23.5
								c-2.7,8.9-5.6,18.7-8.4,29.1c-2.8,10.4-5.3,20.3-7.4,29.4c-2,9.1-3.8,17.3-5.1,24.2c-0.3,1.7-0.6,3.4-0.9,4.9
								c-0.3,1.6-0.5,3-0.7,4.4c-0.5,2.8-0.9,5.1-1.2,7.1c-0.3,1.9-0.5,3.4-0.7,4.5c-0.1,0.5-0.1,0.9-0.2,1.2c0,0.3-0.1,0.4-0.1,0.4
								c0,0,0-0.1,0-0.4c0-0.3,0.1-0.7,0.1-1.2c0.1-1.1,0.3-2.6,0.6-4.5c0.2-2,0.6-4.3,1.1-7.1c0.2-1.4,0.5-2.9,0.7-4.4
								c0.3-1.6,0.6-3.2,0.9-4.9c1.2-6.9,2.9-15.1,5-24.2c2.1-9.1,4.5-19,7.3-29.4c2.8-10.4,5.7-20.2,8.5-29.1
								c2.8-8.9,5.4-16.8,7.8-23.5c0.6-1.7,1.1-3.2,1.7-4.7c0.6-1.5,1.1-2.9,1.6-4.2c1-2.6,1.8-4.9,2.5-6.7c0.7-1.8,1.3-3.2,1.7-4.2
								c0.2-0.5,0.3-0.8,0.4-1.1C289.9,287.3,289.9,287.2,289.9,287.2z"/>
						</g>
					</g>
				</g>
				<g>
					<g>
						<g>
							<path class="st5" d="M217.9,324.7c0,0,0.1,0.1,0.2,0.2c0.2,0.2,0.4,0.4,0.6,0.7c0.5,0.6,1.3,1.5,2.3,2.6
								c2,2.3,4.8,5.7,7.7,10.3c2.9,4.6,6,10.4,8.1,17.3c2.2,6.9,3.5,14.7,4.8,22.9c2.7,16.4,5.9,31,8.3,41.6
								c1.2,5.3,2.2,9.5,2.8,12.5c0.3,1.5,0.6,2.6,0.8,3.4c0.1,0.4,0.1,0.7,0.2,0.9c0,0.2,0.1,0.3,0,0.3c0,0,0-0.1-0.1-0.3
								c-0.1-0.2-0.1-0.5-0.2-0.9c-0.2-0.8-0.5-1.9-0.8-3.4c-0.7-3-1.7-7.3-3-12.5c-2.5-10.6-5.8-25.2-8.5-41.6
								c-1.3-8.2-2.7-16-4.8-22.8c-2.1-6.9-5-12.7-7.9-17.2c-2.9-4.6-5.6-8-7.6-10.4c-1-1.2-1.7-2.1-2.3-2.7
								c-0.2-0.3-0.4-0.5-0.6-0.7C217.9,324.8,217.9,324.8,217.9,324.7z"/>
						</g>
					</g>
				</g>
				<g>
					<g>
						<g>
							<path class="st5" d="M291.9,391.5c0,0-0.2,0-0.5,0.1c-0.4,0-0.8,0.1-1.4,0.1c-0.3,0-0.6,0.1-1,0.1c-0.4,0.1-0.7,0.1-1.2,0.2
								c-0.8,0.1-1.8,0.2-2.8,0.5c-0.5,0.1-1.1,0.2-1.6,0.3c-0.6,0.1-1.1,0.3-1.7,0.4c-1.2,0.3-2.5,0.7-3.8,1.1
								c-2.6,0.9-5.5,2.1-8.3,3.7c-2.8,1.6-5.3,3.4-7.4,5.2c-1,0.9-2,1.8-2.9,2.7c-0.9,0.9-1.6,1.8-2.3,2.6
								c-0.7,0.8-1.2,1.6-1.7,2.3c-0.5,0.7-0.9,1.3-1.1,1.8c-0.3,0.5-0.5,0.9-0.7,1.2c-0.2,0.3-0.3,0.4-0.3,0.4c0,0,0-0.2,0.2-0.4
								c0.2-0.3,0.4-0.7,0.6-1.2c0.3-0.5,0.6-1.2,1.1-1.9c0.5-0.7,0.9-1.6,1.6-2.4c0.7-0.8,1.4-1.8,2.2-2.7c0.8-1,1.8-1.9,2.9-2.8
								c2.1-1.8,4.7-3.7,7.5-5.3c2.9-1.6,5.7-2.8,8.4-3.7c1.4-0.4,2.6-0.8,3.9-1.1c0.6-0.1,1.2-0.3,1.8-0.4c0.6-0.1,1.1-0.2,1.6-0.3
								c1-0.2,2-0.3,2.8-0.4c0.4,0,0.8-0.1,1.2-0.1c0.4,0,0.7,0,1-0.1c0.5,0,1,0,1.4-0.1C291.7,391.5,291.9,391.5,291.9,391.5z"/>
						</g>
					</g>
				</g>
			</g>
			<g>
				<g>
					<g>
						<path class="st5" d="M295.6,325.1c0,0-0.3,0.3-0.9,0.9c-0.7,0.6-1.6,1.4-2.7,2.3c-2.3,2-5.5,4.6-9,7.6
							c-3.5,2.9-6.8,5.6-9.1,7.5c-1.1,0.9-2.1,1.6-2.8,2.2c-0.7,0.5-1,0.8-1.1,0.8c0,0,0.3-0.4,0.9-0.9c0.7-0.6,1.6-1.4,2.7-2.3
							c2.3-2,5.5-4.6,9-7.6c3.5-2.9,6.8-5.6,9.1-7.5c1.1-0.9,2.1-1.6,2.8-2.2C295.2,325.3,295.6,325,295.6,325.1z"/>
					</g>
				</g>
			</g>
			<g>
				<g>
					<g>
						<path class="st5" d="M298.9,342.4c0,0.1-6.8,2.3-15.4,4.8c-8.5,2.5-15.5,4.5-15.5,4.3c0-0.1,6.8-2.3,15.4-4.8
							C291.9,344.2,298.8,342.3,298.9,342.4z"/>
					</g>
				</g>
			</g>
			<g>
				<g>
					<g>
						<path class="st5" d="M273.4,335.5c0,0-0.3-0.3-0.7-1c-0.5-0.7-1.1-1.7-1.8-2.8c-1.5-2.3-3.7-5.5-6.3-8.9
							c-2.6-3.4-5.1-6.3-6.9-8.4c-0.9-1-1.6-1.8-2.2-2.5c-0.5-0.6-0.8-0.9-0.8-1s0.3,0.3,0.9,0.8c0.6,0.5,1.3,1.4,2.3,2.4
							c1.9,2,4.5,5,7.1,8.4c2.6,3.4,4.7,6.6,6.2,9c0.7,1.2,1.3,2.2,1.7,2.9C273.3,335.1,273.5,335.5,273.4,335.5z"/>
					</g>
				</g>
			</g>
			<g>
				<g>
					<g>
						<path class="st5" d="M249.5,345.1c0.1,0-0.6,1-1.6,2.7c-1,1.6-2.4,3.9-3.9,6.4c-1.4,2.5-2.7,4.9-3.5,6.6
							c-0.9,1.7-1.4,2.8-1.5,2.7c-0.1,0,0.4-1.1,1.1-2.9c0.8-1.8,2-4.1,3.4-6.7c1.5-2.6,2.9-4.8,4-6.4
							C248.7,346,249.5,345.1,249.5,345.1z"/>
					</g>
				</g>
			</g>
			<g>
				<g>
					<g>
						<path class="st5" d="M241.3,375.2c0,0.1-1.3-0.6-3.5-1.5c-2.2-1-5.2-2.2-8.5-3.4c-3.4-1.2-6.5-2.1-8.8-2.7
							c-2.3-0.6-3.7-0.9-3.7-1c0,0,0.4,0,1,0.1c0.7,0.1,1.6,0.3,2.8,0.5c2.3,0.5,5.5,1.3,8.9,2.5c3.4,1.2,6.4,2.5,8.5,3.6
							c1.1,0.5,1.9,1,2.5,1.3C241,374.9,241.3,375.1,241.3,375.2z"/>
					</g>
				</g>
			</g>
			<g>
				<g>
					<g>
						<path class="st5" d="M247.8,411c0,0-0.1,0.1-0.4,0.1c-0.3,0.1-0.7,0.2-1.2,0.3c-1.2,0.3-2.7,0.6-4.6,1.1
							c-3.9,0.9-9.2,2-15,3.9c-5.7,1.9-10.6,4.4-14,6.6c-1.7,1.1-3,2-3.8,2.7c-0.9,0.7-1.4,1.1-1.4,1c0,0,0.1-0.1,0.3-0.3
							c0.2-0.2,0.5-0.5,1-0.9c0.8-0.7,2.1-1.7,3.8-2.8c3.3-2.2,8.2-4.8,14-6.7c5.8-1.9,11.2-3,15.1-3.8c1.9-0.4,3.4-0.7,4.6-0.9
							C247.2,411.1,247.8,411,247.8,411z"/>
					</g>
				</g>
			</g>
			<g>
				<g>
					<g>
						<path class="st5" d="M271.1,419.9c-0.1,0-1-4.8-1.8-10.8c-0.9-6-1.5-10.8-1.3-10.9c0.1,0,1,4.8,1.8,10.8
							C270.6,415,271.2,419.9,271.1,419.9z"/>
					</g>
				</g>
			</g>
			<g>
				<g>
					<g>
						<path class="st5" d="M295.3,411.1c-0.1,0-0.9-1-2.2-2.6c-1.3-1.6-3.1-3.9-5.2-6.3c-2.1-2.4-4-4.6-5.3-6.2
							c-1.4-1.6-2.2-2.6-2.2-2.6c0,0,0.3,0.2,0.7,0.6c0.4,0.4,1,1,1.7,1.8c1.5,1.5,3.4,3.7,5.5,6.1c2.1,2.5,3.8,4.7,5.1,6.4
							c0.6,0.8,1.1,1.5,1.4,2C295.2,410.8,295.4,411.1,295.3,411.1z"/>
					</g>
				</g>
			</g>
		</g>
		<g>
			<g>
				<polygon class="st5" points="231.1,433.6 231.1,445.6 234.1,445.6 244.8,479.2 268.4,479.2 278.7,445.9 282.7,445.6 
					282.7,433.6 				"/>
			</g>
		</g>
		<g>
			<g>
				<g>
					<path class="st6" d="M280.7,445.9c0,0.1-10.4,0.3-23.3,0.3c-12.9,0-23.3-0.1-23.3-0.3c0-0.1,10.4-0.3,23.3-0.3
						C270.3,445.6,280.7,445.8,280.7,445.9z"/>
				</g>
			</g>
		</g>
		<g>
			<g>
				<g>
					<path class="st5" d="M297.7,368.8c0,0-0.5,0.2-1.5,0.4c-1.1,0.3-2.5,0.6-4.1,1c-3.5,0.9-8.3,2.2-13.5,3.9
						c-5.2,1.8-9.8,3.6-13.1,5c-1.6,0.7-2.9,1.3-3.9,1.7c-0.9,0.4-1.4,0.6-1.5,0.6c0,0,0.5-0.3,1.4-0.8c0.9-0.5,2.2-1.1,3.8-1.9
						c3.3-1.5,7.9-3.4,13.1-5.2c5.2-1.8,10.1-3,13.6-3.8c1.8-0.4,3.2-0.7,4.2-0.8C297.2,368.8,297.7,368.8,297.7,368.8z"/>
				</g>
			</g>
		</g>
		<g>
			<g>
				<g>
					<path class="st7" d="M272.9,464.6c0,0.1-7.3,0.3-16.3,0.3c-9,0-16.3-0.1-16.3-0.3c0-0.1,7.3-0.3,16.3-0.3
						C265.6,464.3,272.9,464.4,272.9,464.6z"/>
				</g>
			</g>
		</g>
		<g>
			<g>
				<g>
					<path class="st7" d="M273.8,461.8c0,0.1-7.8,0.3-17.3,0.3c-9.6,0-17.3-0.1-17.3-0.3s7.8-0.3,17.3-0.3
						C266,461.5,273.8,461.7,273.8,461.8z"/>
				</g>
			</g>
		</g>
	</g>
</g>
<g id="Capa_7">
	<g>
		<g>
			<g>
				<g>
					<g>
						<path class="st11" d="M473.8,293.2c-0.1,0-0.2-0.8-0.2-1.7c0-1,0.1-1.7,0.2-1.7c0.1,0,0.2,0.8,0.2,1.7
							C474,292.4,473.9,293.2,473.8,293.2z"/>
					</g>
				</g>
			</g>
			<g>
				<g>
					<g>
						<path class="st11" d="M473.8,300.2c-0.1,0-0.2-0.8-0.2-1.7c0-1,0.1-1.7,0.2-1.7c0.1,0,0.2,0.8,0.2,1.7
							C474,299.4,473.9,300.2,473.8,300.2z"/>
					</g>
				</g>
			</g>
			<g>
				<g>
					<g>
						<path class="st11" d="M473.8,307.2c-0.1,0-0.2-0.8-0.2-1.7c0-1,0.1-1.7,0.2-1.7c0.1,0,0.2,0.8,0.2,1.7
							C474,306.4,473.9,307.2,473.8,307.2z"/>
					</g>
				</g>
			</g>
			<g>
				<g>
					<g>
						<path class="st11" d="M473.8,311.9c-0.1,0-0.2-0.3-0.2-0.6c0-0.3,0.1-0.6,0.2-0.6c0.1,0,0.2,0.3,0.2,0.6
							C474,311.6,473.9,311.9,473.8,311.9z"/>
					</g>
				</g>
			</g>
		</g>
		<g>
			<g>
				<g>
					<g>
						<g>
							<g>
								<ellipse class="st12" cx="522" cy="289" rx="14.1" ry="15.7"/>
							</g>
						</g>
						<g>
							<g>
								<g>
									<path class="st5" d="M536.1,289c0,0,0-0.3-0.1-1c0-0.3,0-0.7-0.1-1.2c-0.1-0.5-0.1-1-0.3-1.6c-0.2-1.2-0.8-2.6-1.6-4.2
										c-0.8-1.5-2-3.1-3.6-4.4c-1.6-1.3-3.6-2.5-5.9-2.9c-2.3-0.4-4.9-0.4-7.4,0.7c-1.2,0.5-2.4,1.2-3.5,2.1
										c-0.6,0.4-1.1,1-1.6,1.5c-0.5,0.6-1,1.1-1.4,1.8c-1.7,2.5-2.7,5.8-2.7,9.2c0,3.4,1,6.7,2.7,9.2c0.4,0.7,0.9,1.2,1.4,1.8
										c0.5,0.5,1,1.1,1.6,1.5c1.1,0.9,2.3,1.6,3.5,2.1c2.5,1,5.1,1.1,7.4,0.7c2.3-0.5,4.3-1.6,5.9-2.9c1.6-1.3,2.8-2.9,3.6-4.4
										c0.8-1.5,1.3-2.9,1.6-4.2c0.2-0.6,0.2-1.1,0.3-1.6c0.1-0.5,0.1-0.9,0.1-1.2C536,289.3,536.1,289,536.1,289s0,0.3,0,1
										c0,0.3,0,0.7-0.1,1.2c-0.1,0.5-0.1,1-0.3,1.6c-0.2,1.2-0.7,2.7-1.5,4.2c-0.8,1.5-2,3.1-3.6,4.5c-1.6,1.3-3.6,2.5-5.9,3
										c-2.3,0.5-4.9,0.4-7.4-0.7c-1.3-0.5-2.5-1.2-3.6-2.1c-0.6-0.4-1.1-1-1.6-1.5c-0.5-0.6-1-1.2-1.4-1.8
										c-1.7-2.6-2.7-5.9-2.8-9.3c0-3.4,1-6.7,2.8-9.3c0.4-0.7,0.9-1.2,1.4-1.8c0.5-0.5,1-1.1,1.6-1.5c1.1-0.9,2.3-1.7,3.6-2.1
										c2.5-1,5.1-1.1,7.4-0.7c2.3,0.5,4.3,1.6,5.9,3c1.6,1.4,2.8,3,3.6,4.5c0.8,1.5,1.3,3,1.5,4.2c0.2,0.6,0.2,1.2,0.3,1.6
										c0.1,0.5,0.1,0.9,0.1,1.2C536.1,288.6,536.1,289,536.1,289z"/>
								</g>
							</g>
						</g>
					</g>
				</g>
				<g>
					<g>
						<g>
							<g>
								<path class="st13" d="M522,278.8c-5.1,0-9.2,4.6-9.2,10.2s4.1,10.2,9.2,10.2c5.1,0,9.2-4.6,9.2-10.2S527,278.8,522,278.8z"
									/>
							</g>
						</g>
						<g>
							<g>
								<g>
									<path class="st14" d="M522,278.8c0,0,0.8-0.1,2.3,0.2c1.4,0.4,3.5,1.4,5.2,3.7c0.8,1.2,1.5,2.6,1.8,4.4
										c0.3,1.7,0.2,3.6-0.4,5.5c-0.3,0.9-0.7,1.8-1.3,2.6c-0.5,0.8-1.2,1.6-2,2.2c-1.5,1.3-3.5,2-5.6,2c-2,0-4-0.8-5.6-2
										c-0.8-0.6-1.5-1.4-2-2.2c-0.6-0.8-1-1.7-1.3-2.6c-0.6-1.8-0.7-3.8-0.4-5.5c0.3-1.7,1-3.2,1.8-4.4c1.6-2.4,3.7-3.4,5.2-3.7
										C521.2,278.6,522,278.8,522,278.8c0,0.1-0.8,0-2.2,0.4c-1.4,0.4-3.4,1.4-5,3.7c-0.8,1.1-1.4,2.6-1.7,4.2
										c-0.3,1.6-0.2,3.5,0.4,5.3c0.3,0.9,0.7,1.7,1.2,2.5c0.5,0.8,1.2,1.5,1.9,2.1c1.5,1.2,3.4,1.9,5.3,1.9
										c1.9,0,3.8-0.7,5.3-1.9c0.7-0.6,1.4-1.3,1.9-2.1c0.5-0.8,1-1.6,1.2-2.5c0.6-1.8,0.7-3.6,0.4-5.3c-0.3-1.7-0.9-3.1-1.7-4.2
										c-1.6-2.3-3.6-3.3-5-3.7C522.8,278.8,522,278.8,522,278.8z"/>
								</g>
							</g>
						</g>
					</g>
				</g>
				<g>
					<g>
						<g>
							<g>
								<path class="st13" d="M522,285.7c-1.6,0-2.9,1.5-2.9,3.2c0,1.8,1.3,3.2,2.9,3.2c1.6,0,2.9-1.5,2.9-3.2
									C524.9,287.2,523.6,285.7,522,285.7z"/>
							</g>
						</g>
						<g>
							<g>
								<g>
									<path class="st14" d="M522,285.7c0,0,0.3-0.1,0.7,0c0.5,0.1,1.2,0.4,1.7,1.2c0.6,0.7,0.9,2,0.5,3.2
										c-0.4,1.2-1.5,2.3-2.9,2.3c-1.4,0-2.6-1.1-2.9-2.3c-0.4-1.2-0.1-2.5,0.5-3.2c0.6-0.8,1.2-1.1,1.7-1.2
										C521.7,285.7,522,285.7,522,285.7c0,0-0.3,0-0.7,0.2c-0.4,0.1-1,0.5-1.5,1.2c-0.5,0.7-0.7,1.8-0.4,2.9c0.3,1.1,1.4,2,2.6,2
										c1.2,0,2.2-0.9,2.6-2c0.4-1.1,0.1-2.2-0.4-2.9c-0.5-0.7-1.1-1.1-1.5-1.2C522.2,285.8,522,285.8,522,285.7z"/>
								</g>
							</g>
						</g>
					</g>
				</g>
				<g>
					<g>
						<g>
							<path class="st15" d="M507,300.3c4.9-3.8,10.1-7.5,15-11.3"/>
						</g>
					</g>
					<g>
						<g>
							<g>
								<path class="st5" d="M522,289c0,0-3.3,2.6-7.5,5.7c-4.1,3.1-7.5,5.6-7.5,5.6c0,0,3.3-2.6,7.5-5.7
									C518.6,291.4,522,288.9,522,289z"/>
							</g>
						</g>
					</g>
				</g>
				<g>
					<g>
						<g>
							<path class="st5" d="M508.6,299.2c0,0.1-0.8,0.1-1.7,0c-1,0-1.7-0.1-1.7-0.2c0-0.1,0.8-0.1,1.7,0
								C507.9,299,508.6,299.1,508.6,299.2z"/>
						</g>
					</g>
				</g>
				<g>
					<g>
						<g>
							<path class="st5" d="M508,301.7c0,0,0-0.6,0.2-1.3c0.1-0.7,0.3-1.3,0.3-1.3c0,0,0,0.6-0.2,1.3
								C508.2,301.1,508.1,301.7,508,301.7z"/>
						</g>
					</g>
				</g>
				<g>
					<g>
						<g>
							<path class="st5" d="M508.9,301.4c0,0,0-0.6,0.1-1.4c0.1-0.8,0.3-1.4,0.3-1.3c0,0,0,0.6-0.1,1.4
								C509.1,300.8,508.9,301.4,508.9,301.4z"/>
						</g>
					</g>
				</g>
				<g>
					<g>
						<g>
							<path class="st5" d="M506.9,298.1c0-0.1,0.6,0,1.2,0.2c0.7,0.2,1.2,0.4,1.2,0.4c0,0.1-0.6,0-1.2-0.2
								C507.4,298.3,506.9,298.1,506.9,298.1z"/>
						</g>
					</g>
				</g>
			</g>
		</g>
		<g>
			<g>
				<g>
					<g>
						<g>
							<path class="st14" d="M547.7,339.2c0,0,0,0.1,0.1,0.2c0,0.1,0.1,0.3,0.1,0.6c0,0.5-0.1,1.3-0.5,2.2c-0.4,0.9-1.1,1.8-2,2.7
								c-0.8,1-1.8,2.1-2.8,3.2l-0.1,0.1l-0.1-0.1c-0.9-0.8-1.9-1.7-3-2.7c-1-0.9-2.3-1.9-2.9-3.5c-0.4-1-0.5-2.1-0.1-3.1
								c0.4-0.9,1.2-1.6,2-1.9c0.9-0.3,1.8,0,2.4,0.5c0.7,0.5,1.1,1.3,1.3,2.1l-0.3,0c0.1-1.4,1.1-2.5,2-2.8c1-0.4,1.9-0.1,2.5,0.4
								c0.6,0.4,0.9,1,1.1,1.4c0.1,0.2,0.1,0.3,0.1,0.5C547.7,339.1,547.7,339.2,547.7,339.2c0,0-0.1-0.2-0.2-0.6
								c-0.2-0.4-0.5-0.9-1.1-1.3c-0.6-0.4-1.5-0.7-2.4-0.3c-0.9,0.4-1.7,1.4-1.8,2.6l-0.1,1l-0.2-1c-0.1-0.7-0.6-1.4-1.2-1.9
								c-0.6-0.5-1.4-0.7-2.2-0.4c-0.8,0.2-1.5,0.9-1.8,1.7c-0.4,0.8-0.3,1.9,0.1,2.8c0.6,1.5,1.7,2.4,2.8,3.4c1,1,2,1.9,3,2.7
								l-0.2,0c1-1.2,2-2.2,2.8-3.2c0.9-0.9,1.6-1.8,2-2.6c0.4-0.8,0.5-1.6,0.5-2.1C547.8,339.5,547.7,339.2,547.7,339.2z"/>
						</g>
					</g>
				</g>
			</g>
			<g>
				<g>
					<g>
						<g>
							<g>
								<path class="st14" d="M532,330.3c0,0,0,0.1,0,0.4c0,0.3,0,0.7,0.1,1.2c0.1,1.1,0.1,2.7,0.2,4.7c0.2,4,0.5,9.9,0.8,17.1
									l-0.1-0.1c4-0.2,8.6-0.5,13.5-0.8l0.1,0l0,0.2c0.1,2.3,0.2,4.7,0.3,7.1l-0.3-0.1c1.9-2.4,4-4.9,6.1-7.5l0-0.1l0.1,0
									c4.7-0.3,9.7-0.5,14.8-0.8c1.5-0.1,3-0.2,4.5-0.3l-0.2,0.2c-0.4-8.3-0.7-16.1-1-23.4l0.2,0.2c-11.5,0.6-21.3,1.1-28.2,1.5
									c-3.5,0.2-6.2,0.3-8.1,0.4c-0.9,0-1.7,0.1-2.2,0.1c-0.2,0-0.4,0-0.6,0C532.1,330.3,532,330.3,532,330.3s0.1,0,0.2,0
									c0.1,0,0.3,0,0.5,0c0.5,0,1.2-0.1,2.1-0.1c1.9-0.1,4.6-0.3,8.1-0.5c6.9-0.4,16.8-1,28.3-1.7l0.1,0l0,0.2
									c0.3,7.2,0.7,15.1,1.1,23.4l0,0.2l-0.2,0c-1.5,0.1-3,0.2-4.5,0.3c-5.1,0.3-10.1,0.6-14.8,0.8l0.1-0.1
									c-2.1,2.6-4.2,5.1-6.1,7.5l-0.2,0.3l0-0.4c-0.1-2.5-0.2-4.9-0.3-7.1l0.1,0.1c-4.9,0.3-9.5,0.5-13.5,0.7l-0.1,0l0-0.1
									c-0.3-7.2-0.5-13.1-0.7-17.1c-0.1-2-0.1-3.6-0.2-4.6c0-0.5,0-0.9,0-1.2C532,330.4,532,330.3,532,330.3z"/>
							</g>
						</g>
					</g>
				</g>
			</g>
			<g>
				<g>
					<path class="st5" d="M554.2,341.2l-1.7,0.1l0.1,1.8l-0.4,0l-0.1-1.8l-1.7,0.1l0-0.4l1.7-0.1l-0.1-1.8l0.4,0l0.1,1.8l1.7-0.1
						L554.2,341.2z"/>
				</g>
				<g>
					<path class="st5" d="M556.5,337.5l0.3,6.8l-0.4,0l-0.3-6.3l-1.5,0.1l0-0.4L556.5,337.5z"/>
				</g>
				<g>
					<path class="st5" d="M558.2,340.8c-0.1-2.1,0.8-3.5,2.2-3.6c1.4-0.1,2.4,1.2,2.5,3.3c0.1,2.1-0.8,3.5-2.2,3.6
						C559.3,344.2,558.3,342.9,558.2,340.8z M562.5,340.5c-0.1-1.9-0.9-2.9-2.1-2.9s-1.9,1.2-1.8,3.1c0.1,1.9,0.9,2.9,2.1,2.9
						C561.9,343.6,562.6,342.4,562.5,340.5z"/>
				</g>
				<g>
					<path class="st5" d="M563.9,340.5c-0.1-2.1,0.8-3.5,2.2-3.6c1.4-0.1,2.4,1.2,2.5,3.3c0.1,2.1-0.8,3.5-2.2,3.6
						C565.1,343.8,564,342.6,563.9,340.5z M568.3,340.2c-0.1-1.9-0.9-2.9-2.1-2.9c-1.1,0.1-1.9,1.2-1.8,3.1c0.1,1.9,0.9,2.9,2.1,2.9
						C567.6,343.2,568.4,342.1,568.3,340.2z"/>
				</g>
			</g>
		</g>
		<g>
			<g>
				<g>
					<path class="st14" d="M524.8,386.5c-0.6,1.7-2.3,2.6-3.9,1.9c-1.5-0.7-2.3-2.6-1.7-4.3c0.6-1.7,2.3-2.6,3.9-1.9
						C524.7,382.8,525.4,384.8,524.8,386.5z"/>
				</g>
			</g>
			<g>
				<g>
					<path class="st14" d="M534.8,383.7c-0.6,1.7-2.3,2.6-3.9,1.9c-1.5-0.7-2.3-2.6-1.7-4.3c0.6-1.7,2.3-2.6,3.9-1.9
						C534.7,380,535.4,382,534.8,383.7z"/>
				</g>
			</g>
			<g>
				<g>
					<path class="st14" d="M530.2,396.8c-0.7,1.9-2.4,2.8-4,2.2c-1.5-0.7-2.3-2.7-1.6-4.6c0.7-1.9,2.4-2.8,4-2.2
						C530.1,392.9,530.9,395,530.2,396.8z"/>
				</g>
			</g>
			<g>
				<g>
					<g>
						<path class="st14" d="M526.7,394.9c-0.2,0.1-1.6-1.8-3.2-4.4c-1.6-2.6-2.7-4.8-2.5-4.9c0.2-0.1,1.6,1.8,3.2,4.4
							C525.8,392.5,526.9,394.7,526.7,394.9z"/>
					</g>
				</g>
			</g>
			<g>
				<g>
					<g>
						<path class="st14" d="M531.5,382c0.1,0.2-1.9,1.1-4.4,1.9c-2.5,0.8-4.5,1.3-4.6,1c-0.1-0.2,1.9-1.1,4.4-1.9
							C529.4,382.2,531.5,381.8,531.5,382z"/>
					</g>
				</g>
			</g>
		</g>
		<g>
			<g>
				<g>
					<g>
						<g>
							<g>
								<path class="st14" d="M485.6,274.1c0,0,0-0.3-0.1-0.8c0-0.3,0-0.6-0.1-1c-0.1-0.4-0.1-0.8-0.2-1.3c-0.2-1-0.6-2.1-1.2-3.4
									c-0.6-1.2-1.6-2.5-2.8-3.6c-1.3-1.1-2.8-2-4.7-2.4c-1.8-0.4-3.9-0.4-5.9,0.4c-1,0.4-2,0.9-2.9,1.6c-0.5,0.3-0.9,0.8-1.3,1.2
									c-0.4,0.5-0.8,0.9-1.1,1.4c-1.4,2-2.2,4.6-2.3,7.3c0,2.7,0.7,5.3,2,7.4c0.3,0.5,0.7,1,1.1,1.5c0.4,0.4,0.8,0.9,1.2,1.2
									c0.9,0.8,1.8,1.4,2.8,1.8c1.9,0.9,4,1,5.9,0.7c1.9-0.3,3.5-1.2,4.8-2.2c1.3-1,2.3-2.3,3-3.4c0.7-1.2,1.1-2.3,1.4-3.3
									c0.1-0.5,0.2-0.9,0.3-1.3c0.1-0.4,0.1-0.7,0.1-1C485.5,274.4,485.5,274.1,485.6,274.1c0,0,0,0.3,0,0.8c0,0.3,0,0.6-0.1,1
									c-0.1,0.4-0.1,0.8-0.2,1.3c-0.2,1-0.6,2.2-1.3,3.4c-0.7,1.2-1.7,2.5-3,3.6c-1.3,1.1-3,2-5,2.3c-1.9,0.3-4.1,0.2-6.2-0.7
									c-1-0.4-2-1.1-2.9-1.8c-0.5-0.4-0.9-0.8-1.3-1.3c-0.4-0.5-0.8-1-1.1-1.5c-1.4-2.2-2.2-5-2.1-7.8c0.1-2.8,1-5.6,2.5-7.7
									c0.4-0.5,0.8-1,1.2-1.5c0.4-0.4,0.9-0.9,1.4-1.2c0.9-0.7,2-1.3,3-1.7c2.1-0.8,4.3-0.8,6.2-0.4c1.9,0.4,3.6,1.5,4.8,2.6
									c1.3,1.2,2.2,2.5,2.8,3.8c0.6,1.3,1,2.5,1.2,3.5c0.1,0.5,0.1,1,0.2,1.3c0,0.4,0,0.7,0,1
									C485.6,273.8,485.6,274.1,485.6,274.1z"/>
							</g>
						</g>
					</g>
				</g>
			</g>
			<g>
				<g>
					<g>
						<g>
							<g>
								<path class="st14" d="M483.3,266.1c0,0-0.2,0.2-0.6,0.6c-0.2,0.2-0.5,0.4-0.7,0.6c-0.1,0.1-0.3,0.2-0.5,0.4
									c-0.2,0.1-0.4,0.2-0.6,0.3c-1.5,1-4,2-6.7,1.9c-0.3,0-0.7,0-1-0.1c-0.3-0.1-0.7-0.1-1-0.2c-0.2,0-0.3-0.1-0.5-0.1
									c-0.2,0-0.3-0.1-0.5-0.1c-0.3-0.1-0.6-0.2-0.9-0.3c-1.1-0.4-2.1-0.9-2.9-1.5c-1.5-1-2.3-2-2.2-2c0.1-0.1,0.9,0.7,2.4,1.6
									c0.8,0.5,1.7,0.9,2.8,1.3c0.3,0.1,0.6,0.2,0.8,0.2c0.1,0,0.3,0.1,0.4,0.1c0.2,0,0.3,0.1,0.5,0.1c0.3,0.1,0.6,0.1,0.9,0.2
									c0.3,0,0.6,0,1,0c2.6,0.1,5-0.8,6.5-1.6c0.2-0.1,0.4-0.2,0.6-0.3c0.2-0.1,0.3-0.2,0.5-0.3c0.3-0.2,0.5-0.3,0.8-0.5
									C483,266.2,483.2,266.1,483.3,266.1z"/>
							</g>
						</g>
					</g>
				</g>
			</g>
			<g>
				<g>
					<g>
						<g>
							<g>
								<path class="st14" d="M464.9,281.6c0,0,0.2-0.2,0.6-0.6c0.2-0.2,0.5-0.4,0.7-0.6c0.1-0.1,0.3-0.2,0.5-0.4
									c0.2-0.1,0.4-0.2,0.6-0.3c1.5-1,4-2,6.7-1.9c0.3,0,0.7,0,1,0.1c0.3,0.1,0.7,0.1,1,0.2c0.2,0,0.3,0.1,0.5,0.1
									c0.2,0,0.3,0.1,0.5,0.1c0.3,0.1,0.6,0.2,0.9,0.3c1.1,0.4,2.1,0.9,2.9,1.5c1.5,1,2.3,2,2.2,2c-0.1,0.1-0.9-0.7-2.4-1.6
									c-0.8-0.5-1.7-0.9-2.8-1.3c-0.3-0.1-0.6-0.2-0.8-0.2c-0.1,0-0.3-0.1-0.4-0.1c-0.2,0-0.3-0.1-0.5-0.1
									c-0.3-0.1-0.6-0.1-0.9-0.2c-0.3,0-0.6,0-1,0c-2.6-0.1-5,0.8-6.5,1.6c-0.2,0.1-0.4,0.2-0.6,0.3c-0.2,0.1-0.3,0.2-0.5,0.3
									c-0.3,0.2-0.5,0.3-0.8,0.5C465.2,281.5,465,281.7,464.9,281.6z"/>
							</g>
						</g>
					</g>
				</g>
			</g>
			<g>
				<g>
					<g>
						<g>
							<g>
								<path class="st14" d="M485.5,274.4c0,0.2-5.1,0.2-11.5,0c-6.3-0.2-11.4-0.5-11.4-0.7c0-0.2,5.1-0.2,11.5,0
									C480.4,273.9,485.5,274.2,485.5,274.4z"/>
							</g>
						</g>
					</g>
				</g>
			</g>
			<g>
				<g>
					<g>
						<g>
							<g>
								<path class="st14" d="M473.6,286.5c-0.2,0-0.2-5.7,0-12.7c0.2-7,0.4-12.7,0.6-12.7c0.2,0,0.2,5.7,0,12.7
									C474,280.8,473.7,286.5,473.6,286.5z"/>
							</g>
						</g>
					</g>
				</g>
			</g>
			<g>
				<g>
					<g>
						<g>
							<g>
								<path class="st14" d="M473.6,286.5c0,0.1-1.3-0.9-2.8-3c-0.7-1.1-1.5-2.5-2-4.1c-0.6-1.7-0.9-3.6-0.9-5.7
									c0-2.1,0.5-4,1.2-5.7c0.7-1.6,1.5-3,2.2-4c1.5-2.1,2.8-3,2.9-2.9c0.1,0.1-1.1,1.1-2.5,3.2c-0.7,1.1-1.5,2.4-2.1,4
									c-0.6,1.6-1,3.4-1.1,5.4c0,2,0.3,3.9,0.8,5.5c0.5,1.6,1.2,3,1.9,4.1C472.5,285.3,473.6,286.4,473.6,286.5z"/>
							</g>
						</g>
					</g>
				</g>
			</g>
			<g>
				<g>
					<g>
						<g>
							<g>
								<path class="st14" d="M474.4,261.1c0-0.1,1.3,0.9,2.8,3c0.7,1.1,1.5,2.5,2,4.1c0.6,1.7,0.9,3.6,0.9,5.7c0,2.1-0.5,4-1.2,5.7
									c-0.7,1.6-1.5,3-2.2,4c-1.5,2.1-2.8,3-2.9,2.9c-0.1-0.1,1.1-1.1,2.5-3.2c0.7-1.1,1.5-2.4,2.1-4c0.6-1.6,1-3.4,1.1-5.4
									c0-2-0.3-3.9-0.8-5.5c-0.5-1.6-1.2-3-1.9-4.1C475.4,262.2,474.3,261.1,474.4,261.1z"/>
							</g>
						</g>
					</g>
				</g>
			</g>
		</g>
		<g>
			<g>
				<g>
					<g>
						<path class="st11" d="M499,321.4c0.1,0.1-0.3,0.7-0.8,1.5c-0.5,0.8-1,1.3-1.1,1.3c-0.1-0.1,0.3-0.7,0.8-1.5
							C498.4,321.9,498.9,321.3,499,321.4z"/>
					</g>
				</g>
			</g>
			<g>
				<g>
					<g>
						<path class="st11" d="M502.8,315.8c0.1,0.1-0.3,0.7-0.8,1.5c-0.5,0.8-1,1.3-1.1,1.3c-0.1-0.1,0.3-0.7,0.8-1.5
							C502.2,316.3,502.7,315.7,502.8,315.8z"/>
					</g>
				</g>
			</g>
			<g>
				<g>
					<g>
						<path class="st11" d="M506.6,310.3c0.1,0.1-0.3,0.7-0.8,1.5c-0.5,0.8-1,1.3-1.1,1.3c-0.1-0.1,0.3-0.7,0.8-1.5
							C506,310.8,506.5,310.2,506.6,310.3z"/>
					</g>
				</g>
			</g>
			<g>
				<g>
					<g>
						<path class="st11" d="M510.4,304.7c0.1,0.1-0.3,0.7-0.8,1.5c-0.5,0.8-1,1.3-1.1,1.3c-0.1-0.1,0.3-0.7,0.8-1.5
							C509.8,305.2,510.3,304.6,510.4,304.7z"/>
					</g>
				</g>
			</g>
		</g>
		<g>
			<g>
				<g>
					<g>
						<path class="st11" d="M482.1,313.4c0,0.1-0.8-0.1-1.7-0.4c-0.9-0.3-1.6-0.5-1.6-0.6c0-0.1,0.8,0,1.7,0.2
							C481.4,313,482.1,313.3,482.1,313.4z"/>
					</g>
				</g>
			</g>
			<g>
				<g>
					<g>
						<path class="st11" d="M488.3,316.4c0,0.1-0.7-0.3-1.6-0.7c-0.8-0.5-1.5-0.9-1.5-0.9c0-0.1,0.8,0.2,1.6,0.7
							C487.7,315.9,488.3,316.3,488.3,316.4z"/>
					</g>
				</g>
			</g>
			<g>
				<g>
					<g>
						<path class="st11" d="M493.8,320.7c-0.1,0.1-0.7-0.4-1.4-1c-0.7-0.6-1.3-1.2-1.2-1.3c0.1-0.1,0.7,0.4,1.4,1
							C493.3,320,493.9,320.6,493.8,320.7z"/>
					</g>
				</g>
			</g>
			<g>
				<g>
					<g>
						<path class="st11" d="M498.5,325.8c-0.1,0.1-0.6-0.5-1.2-1.2c-0.6-0.7-1.1-1.4-1-1.4c0.1-0.1,0.6,0.5,1.2,1.2
							C498.1,325.1,498.6,325.8,498.5,325.8z"/>
					</g>
				</g>
			</g>
			<g>
				<g>
					<g>
						<path class="st11" d="M502.2,331.6c-0.1,0-0.5-0.6-1-1.4c-0.5-0.8-0.8-1.5-0.7-1.6c0.1,0,0.5,0.6,1,1.4
							C502,330.9,502.3,331.6,502.2,331.6z"/>
					</g>
				</g>
			</g>
			<g>
				<g>
					<g>
						<path class="st11" d="M505,337.8c-0.1,0-0.4-0.7-0.8-1.5c-0.3-0.9-0.5-1.6-0.5-1.6c0.1,0,0.4,0.7,0.8,1.5
							C504.9,337.1,505.1,337.8,505,337.8z"/>
					</g>
				</g>
			</g>
			<g>
				<g>
					<g>
						<path class="st11" d="M506.5,344.3c-0.1,0-0.3-0.7-0.5-1.6c-0.2-0.9-0.2-1.6-0.1-1.6c0.1,0,0.3,0.7,0.5,1.6
							C506.6,343.6,506.6,344.3,506.5,344.3z"/>
					</g>
				</g>
			</g>
			<g>
				<g>
					<g>
						<path class="st11" d="M506.7,350.9c-0.1,0-0.2-0.8-0.1-1.6c0-0.9,0.1-1.6,0.2-1.6c0.1,0,0.2,0.7,0.1,1.6
							C506.9,350.2,506.8,350.9,506.7,350.9z"/>
					</g>
				</g>
			</g>
			<g>
				<g>
					<g>
						<path class="st11" d="M505.6,357.2c-0.1,0,0-0.8,0.2-1.6c0.2-0.9,0.4-1.5,0.5-1.5c0.1,0,0,0.7-0.2,1.6
							C505.9,356.5,505.6,357.2,505.6,357.2z"/>
					</g>
				</g>
			</g>
			<g>
				<g>
					<g>
						<path class="st11" d="M503.2,363c-0.1-0.1,0.1-0.7,0.5-1.5c0.4-0.8,0.7-1.4,0.8-1.3c0.1,0-0.1,0.7-0.5,1.5
							C503.6,362.5,503.2,363.1,503.2,363z"/>
					</g>
				</g>
			</g>
			<g>
				<g>
					<g>
						<path class="st11" d="M499.6,368.2c-0.1-0.1,0.3-0.7,0.8-1.4c0.5-0.7,1-1.2,1.1-1.1c0.1,0.1-0.3,0.7-0.8,1.4
							C500.2,367.7,499.7,368.3,499.6,368.2z"/>
					</g>
				</g>
			</g>
			<g>
				<g>
					<g>
						<path class="st11" d="M494.9,372.4c-0.1-0.1,0.4-0.6,1.1-1.1c0.7-0.5,1.3-0.9,1.3-0.9c0.1,0.1-0.4,0.6-1.1,1.1
							C495.6,372.1,495,372.5,494.9,372.4z"/>
					</g>
				</g>
			</g>
		</g>
		<g>
			<g>
				<g>
					<g>
						<path class="st11" d="M503,369.1c-0.1,0.1-0.6-0.4-1.3-1c-0.7-0.6-1.2-1.2-1.1-1.3c0.1-0.1,0.6,0.4,1.3,1
							C502.5,368.4,503,369,503,369.1z"/>
					</g>
				</g>
			</g>
			<g>
				<g>
					<g>
						<path class="st11" d="M507.8,373.5c-0.1,0.1-0.6-0.4-1.3-1c-0.7-0.6-1.2-1.2-1.1-1.3c0.1-0.1,0.6,0.4,1.3,1
							C507.3,372.9,507.8,373.5,507.8,373.5z"/>
					</g>
				</g>
			</g>
			<g>
				<g>
					<g>
						<path class="st11" d="M512.6,378c-0.1,0.1-0.6-0.4-1.3-1c-0.7-0.6-1.2-1.2-1.1-1.3c0.1-0.1,0.6,0.4,1.3,1
							C512.2,377.4,512.7,377.9,512.6,378z"/>
					</g>
				</g>
			</g>
			<g>
				<g>
					<g>
						<path class="st11" d="M516.9,382c-0.1,0.1-0.5-0.2-1-0.7c-0.5-0.5-0.9-0.9-0.8-1c0.1-0.1,0.5,0.2,1,0.7
							C516.6,381.4,516.9,381.9,516.9,382z"/>
					</g>
				</g>
			</g>
		</g>
		<g>
			<g>
				<g>
					<g>
						<path class="st11" d="M468.9,312.4c0,0.1-0.7,0.3-1.5,0.5c-0.9,0.2-1.6,0.3-1.6,0.2c0-0.1,0.6-0.4,1.5-0.6
							C468.1,312.3,468.8,312.3,468.9,312.4z"/>
					</g>
				</g>
			</g>
			<g>
				<g>
					<g>
						<path class="st11" d="M475.5,312.1c0,0.1-0.7,0.1-1.7,0.1c-0.9,0-1.7,0-1.7-0.1c0-0.1,0.7-0.2,1.6-0.2
							C474.7,311.9,475.5,312,475.5,312.1z"/>
					</g>
				</g>
			</g>
		</g>
		<g>
			<g>
				<g>
					<g>
						<path class="st11" d="M509.9,347.7c0,0.1-0.6,0.4-1.4,0.7c-0.8,0.3-1.5,0.5-1.5,0.4c0-0.1,0.6-0.4,1.4-0.7
							C509.2,347.8,509.9,347.6,509.9,347.7z"/>
					</g>
				</g>
			</g>
			<g>
				<g>
					<g>
						<path class="st11" d="M515.9,345.6c0,0.1-0.6,0.4-1.4,0.7c-0.8,0.3-1.5,0.5-1.5,0.4c0-0.1,0.6-0.4,1.4-0.7
							C515.2,345.7,515.9,345.5,515.9,345.6z"/>
					</g>
				</g>
			</g>
			<g>
				<g>
					<g>
						<path class="st11" d="M521.9,343.5c0,0.1-0.6,0.4-1.4,0.7c-0.8,0.3-1.5,0.5-1.5,0.4c0-0.1,0.6-0.4,1.4-0.7
							C521.2,343.6,521.8,343.4,521.9,343.5z"/>
					</g>
				</g>
			</g>
			<g>
				<g>
					<g>
						<path class="st11" d="M527.2,341.6c0,0.1-0.5,0.4-1.1,0.6c-0.6,0.2-1.2,0.3-1.2,0.2c0-0.1,0.5-0.4,1.1-0.6
							C526.6,341.6,527.1,341.5,527.2,341.6z"/>
					</g>
				</g>
			</g>
		</g>
	</g>
</g>
</svg>
