<svg id="Logo" xmlns="http://www.w3.org/2000/svg" viewBox="0 0 453.76 125.5"><defs><style>.cls-1{fill:#2d3256;}.cls-2{fill:#4684e5;opacity:0.8;}.cls-3{fill:#2e3357;}</style></defs><title>Logo</title><g id="m"><path class="cls-1" d="M484.5,364.5v-45a42.11,42.11,0,0,1,16.59-33.86,40.56,40.56,0,0,1,24.41-8.14c21.48.09,39.93,17.64,41,40v47h-26V318.87a15.43,15.43,0,0,0-4.84-11.43,15,15,0,0,0-11.16-3.94,15.28,15.28,0,0,0-14,16v45Z" transform="translate(-168.74 -241)"/><path class="cls-2" d="M540.5,364.5v-45a42.11,42.11,0,0,1,16.59-33.86,40.56,40.56,0,0,1,24.41-8.14c21.48.09,39.93,17.64,41,40v47h-26V318.87a15.43,15.43,0,0,0-4.84-11.43,15,15,0,0,0-11.16-3.94,15.28,15.28,0,0,0-14,16v45Z" transform="translate(-168.74 -241)"/></g><g id="e"><path class="cls-1" d="M429.75,340.5a18.29,18.29,0,0,1-2.23-.14,18.18,18.18,0,0,1-9.95-4.52,18.22,18.22,0,0,1-6.07-13.59,18,18,0,0,1,.33-3.46,17.18,17.18,0,0,1,.47-1.91,18.26,18.26,0,0,1,35.52,7.95l24.68-9a44,44,0,0,0-87.23,11.55c0,.34.08.68.13,1a43.51,43.51,0,0,0,6,16.95A44,44,0,0,0,471.21,335l-24-7.37A18.25,18.25,0,0,1,429.75,340.5Z" transform="translate(-168.74 -241)"/><path class="cls-2" d="M472.5,315.85l-24.68,9-4.4,1.6-25.85,9.41-2.19.8-24,8.72a43.51,43.51,0,0,1-6-16.95l1.45-.53,25-9.09,3.06-1.11,26.37-9.6L466.2,299A43.74,43.74,0,0,1,472.5,315.85Z" transform="translate(-168.74 -241)"/></g><g id="V"><polygon class="cls-1" points="105.26 0 135.26 0 179.26 124 149.26 124 105.26 0"/><polygon class="cls-2" points="223.26 0 193.26 0 149.26 124 179.26 124 223.26 0"/></g><g id="Pin"><path class="cls-1" d="M230.11,271.2c-5.91-11.48-15.77-17.14-28.62-17.54-13,.36-22.88,6-28.8,17.47s-5.18,22.95,2.17,33.54c7.78,11.19,16.14,22,24.07,33.07,1.93,2.69,2.95,2.76,4.9,0,7.93-11.09,16.23-21.92,24-33.08C235.3,294.1,236,282.63,230.11,271.2Zm-28.76,27.32A12.37,12.37,0,0,1,189,286.15a12.16,12.16,0,0,1,12.18-12.42,12.44,12.44,0,0,1,12.69,12.51A12.64,12.64,0,0,1,201.35,298.52Z" transform="translate(-168.74 -241)"/><path class="cls-3" d="M198.51,346c10.15,0,20.29.17,30.25,2.33,1.63.35,4.25.32,4.35,2.57s-2.58,2.36-4.17,2.65a152.65,152.65,0,0,1-55,0c-1.64-.29-4.35-.34-4.36-2.52,0-2.56,2.91-2.4,4.65-2.79C182.21,346.48,190.36,346.18,198.51,346Z" transform="translate(-168.74 -241)"/></g></svg>