<?xml version="1.0" encoding="utf-8"?>
<!-- Generator: Adobe Illustrator 22.0.0, SVG Export Plug-In . SVG Version: 6.00 Build 0)  -->
<svg version="1.1" xmlns="http://www.w3.org/2000/svg" xmlns:xlink="http://www.w3.org/1999/xlink" x="0px" y="0px"
	 viewBox="0 0 884.96 506.97" style="enable-background:new 0 0 884.96 506.97;" xml:space="preserve">
<g id="BACKGROUND">
</g>
<g id="OBJECTS">
</g>
<g id="DESIGNED_BY_FREEPIK">
	<g>
		<defs>
			<rect id="SVGID_1_" width="884.96" height="506.55"/>
		</defs>
		<clipPath id="SVGID_2_">
			<use xlink:href="#SVGID_1_"  style="overflow:visible;"/>
		</clipPath>
		<linearGradient id="SVGID_3_" gradientUnits="userSpaceOnUse" x1="442.4779" y1="55.9738" x2="442.4779" y2="-222.0408">
			<stop  offset="0" style="stop-color:#BFE6FF"/>
			<stop  offset="0.2493" style="stop-color:#AADAF9"/>
			<stop  offset="0.7627" style="stop-color:#73BCEA"/>
			<stop  offset="1" style="stop-color:#58ADE3"/>
		</linearGradient>
		<rect style="clip-path:url(#SVGID_2_);fill:url(#SVGID_3_);" width="884.96" height="507.92"/>
		<g style="clip-path:url(#SVGID_2_);">
			<path style="fill:#FFFFFF;" d="M436.49,384.42c-45.65,0-70.97-22.13-70.97-61.6c0-14.74,3.46-27.05,10.13-36.72
				c12.38-15,31.97-24.25,60.75-24.25c28.65,0,47.12,8.5,60.75,24.24c6.66,9.67,10.12,21.99,10.12,36.73
				C507.26,362.29,481.94,384.42,436.49,384.42z M436.49,297.3c-31.9,0-45.06,7.58-45.06,25.52c0,17.54,13.16,25.32,45.06,25.32
				s44.86-7.78,44.86-25.32C481.35,304.87,468.39,297.3,436.49,297.3z"/>
			<linearGradient id="SVGID_4_" gradientUnits="userSpaceOnUse" x1="436.3912" y1="292.186" x2="436.3912" y2="255.1621">
				<stop  offset="0" style="stop-color:#F5B48B"/>
				<stop  offset="0.1963" style="stop-color:#F7C4A1"/>
				<stop  offset="0.4168" style="stop-color:#F9D1B1"/>
				<stop  offset="0.6657" style="stop-color:#FAD8BA"/>
				<stop  offset="1" style="stop-color:#FADABD"/>
			</linearGradient>
			<path style="fill:url(#SVGID_4_);" d="M394.71,289.44c20.83,0,20.83-8,41.66-8c20.83,0,20.83,8,41.67,8
				c9.26,0,14.4-1.58,19.09-3.34c-11.35-16.48-32-25.28-60.64-25.28c-28.78,0-49.47,8.8-60.84,25.29
				C380.33,287.86,385.47,289.44,394.71,289.44z"/>
			<ellipse style="fill:#D9B18D;" cx="436.39" cy="265.85" rx="12" ry="1.63"/>
		</g>
		<g style="clip-path:url(#SVGID_2_);">
			<path style="fill:#E8233D;" d="M436.39,173.01c-21.36,0-38.67,17.31-38.67,38.67c0,17.28,11.34,31.91,26.98,36.86l9.58,15.41
				c0.58,0.93,1.34,1.4,2.11,1.4c0.77,0,1.53-0.47,2.11-1.4l9.58-15.41c15.64-4.95,26.98-19.58,26.98-36.86
				C475.06,190.32,457.75,173.01,436.39,173.01z M436.39,228.17c-9.11,0-16.49-7.39-16.49-16.49c0-9.11,7.38-16.5,16.49-16.5
				c9.11,0,16.49,7.39,16.49,16.5C452.88,220.78,445.5,228.17,436.39,228.17z"/>
			<path style="fill:#CF1F36;" d="M475.06,211.68c0,17.28-11.34,31.91-26.98,36.86l-9.58,15.41c-0.58,0.93-1.34,1.4-2.11,1.4v-37.18
				c9.11,0,16.49-7.39,16.49-16.49c0-9.11-7.38-16.5-16.49-16.5v-22.17C457.75,173.01,475.06,190.32,475.06,211.68z"/>
		</g>
		<g style="clip-path:url(#SVGID_2_);">
			<path style="fill:#D9B18D;" d="M387.62,279.2c0.21,0.75,5.08,1.49,9.76,0.17c4.68-1.32,7.63-4.2,7.42-4.95
				c-0.21-0.75-4.64-1.07-9.32,0.26C390.8,276,387.41,278.45,387.62,279.2z"/>
			<path style="fill:#A87160;" d="M392.81,277.35c-0.15-0.1-0.04-0.25-0.12-0.71c-0.04-0.21-0.08-0.47-0.14-0.78
				c-0.07-0.33-0.15-0.72-0.24-1.15c-0.17-0.86-0.45-1.92-0.73-3.13c-0.34-1.21-0.66-2.59-1.14-4.07c-0.23-0.74-0.46-1.52-0.71-2.32
				c-0.27-0.79-0.56-1.61-0.85-2.46c-0.55-1.71-1.3-3.43-1.99-5.27c-0.77-1.79-1.56-3.66-2.45-5.51c-0.94-1.82-1.8-3.75-2.88-5.54
				c-0.52-0.91-1.03-1.83-1.55-2.74c-0.53-0.9-1.12-1.75-1.68-2.63c-0.57-0.87-1.13-1.73-1.68-2.58c-0.61-0.81-1.21-1.62-1.79-2.4
				c-0.59-0.79-1.16-1.58-1.75-2.33c-0.62-0.72-1.23-1.42-1.82-2.11c-0.6-0.69-1.17-1.36-1.73-2.01c-0.56-0.65-1.18-1.19-1.74-1.76
				c-1.13-1.11-2.16-2.15-3.11-3.04c-1-0.83-1.87-1.55-2.58-2.14c-1.44-1.2-2.27-1.88-2.27-1.88l1.27-1.96c0,0,0.94,0.58,2.59,1.58
				c0.83,0.51,1.83,1.12,2.99,1.83c1.1,0.78,2.32,1.7,3.67,2.69c0.66,0.51,1.4,0.99,2.08,1.58c0.68,0.59,1.38,1.2,2.11,1.83
				c0.73,0.63,1.47,1.28,2.23,1.94c0.73,0.69,1.44,1.44,2.19,2.18c0.74,0.75,1.5,1.5,2.26,2.27c0.71,0.81,1.44,1.63,2.17,2.46
				c0.72,0.84,1.48,1.66,2.18,2.54c0.69,0.88,1.37,1.77,2.06,2.66c1.42,1.76,2.63,3.65,3.92,5.47c1.24,1.84,2.37,3.71,3.47,5.52
				c1.02,1.85,2.1,3.61,2.95,5.36c0.45,0.87,0.88,1.71,1.3,2.53c0.39,0.83,0.77,1.64,1.13,2.41c0.75,1.54,1.33,3,1.89,4.28
				c0.52,1.3,0.99,2.43,1.33,3.39c0.18,0.48,0.33,0.91,0.47,1.28c0.14,0.41,0.25,0.75,0.34,1.03c0.17,0.52,0.26,0.8,0.26,0.8
				S399.83,280.1,392.81,277.35z"/>
			<path style="fill:#966556;" d="M396.76,276.46c-0.23-1-0.56-2.17-0.92-3.53c-0.41-1.33-0.81-2.86-1.38-4.47
				c-0.27-0.81-0.55-1.65-0.84-2.52c-0.32-0.86-0.65-1.75-0.99-2.66c-0.65-1.83-1.51-3.71-2.31-5.67c-0.89-1.93-1.79-3.92-2.8-5.89
				c-1.06-1.96-2.04-3.98-3.25-5.89c-0.58-0.96-1.16-1.93-1.74-2.89c-0.59-0.95-1.25-1.86-1.87-2.77c-0.63-0.91-1.25-1.81-1.86-2.7
				c-0.67-0.85-1.33-1.69-1.98-2.52c-0.66-0.82-1.28-1.64-1.92-2.42c-0.68-0.75-1.35-1.48-1.99-2.19c-0.64-0.71-1.27-1.4-1.88-2.06
				c-0.61-0.66-1.28-1.23-1.88-1.81c-1.22-1.14-2.32-2.2-3.33-3.1c-1.06-0.84-1.99-1.57-2.75-2.17c-1.25-0.98-2.05-1.61-2.3-1.8
				l-0.91,1.41c0,0,0.82,0.68,2.27,1.88c0.72,0.59,1.59,1.31,2.58,2.14c0.94,0.89,1.97,1.93,3.11,3.04
				c0.55,0.57,1.18,1.11,1.74,1.76c0.56,0.65,1.14,1.32,1.73,2.01c0.59,0.68,1.2,1.39,1.82,2.11c0.59,0.75,1.16,1.54,1.75,2.33
				c0.59,0.79,1.19,1.59,1.79,2.4c0.55,0.85,1.12,1.71,1.68,2.58c0.55,0.87,1.15,1.72,1.68,2.63c0.52,0.91,1.03,1.82,1.55,2.74
				c1.08,1.79,1.94,3.72,2.88,5.54c0.89,1.85,1.68,3.72,2.45,5.51c0.69,1.83,1.44,3.56,1.99,5.27c0.29,0.84,0.57,1.66,0.85,2.46
				c0.25,0.8,0.48,1.58,0.71,2.32c0.48,1.48,0.8,2.86,1.14,4.07c0.29,1.21,0.56,2.27,0.73,3.13c0.09,0.43,0.17,0.81,0.24,1.15
				c0.05,0.31,0.1,0.57,0.14,0.78c0.08,0.46-0.03,0.61,0.12,0.71c1.56,0.61,3,0.79,4.32,0.73c-0.02-0.1-0.04-0.18-0.06-0.29
				C396.98,277.4,396.87,276.96,396.76,276.46z"/>
			<path style="fill:#5BA85D;" d="M361.05,220.58c0,0-0.11,0.09-0.33,0.27c-0.2,0.15-0.5,0.44-0.87,0.71
				c-0.36,0.29-0.8,0.64-1.3,1.05c-0.48,0.37-1.02,0.79-1.62,1.25c-0.29,0.21-0.59,0.43-0.89,0.68c-0.3,0.22-0.62,0.45-0.94,0.69
				c-0.63,0.5-1.31,0.93-1.97,1.45c-0.33,0.26-0.69,0.47-1.03,0.72c-0.33,0.27-0.68,0.51-1.04,0.75c-0.71,0.47-1.4,1-2.13,1.47
				c-0.38,0.21-0.71,0.5-1.07,0.74c-0.35,0.25-0.73,0.47-1.09,0.71c-0.7,0.5-1.4,1-2.14,1.43c-0.69,0.48-1.38,0.95-2.08,1.36
				c-0.71,0.4-1.32,0.87-1.98,1.24c-0.64,0.38-1.29,0.7-1.81,1.04c-0.54,0.33-1.07,0.58-1.49,0.81c-0.42,0.23-0.81,0.38-1.05,0.5
				c-0.26,0.11-0.4,0.17-0.4,0.17l-0.24,0.1c-0.24,0.1-0.52-0.01-0.62-0.26c-0.05-0.12-0.04-0.25,0-0.37c0,0,0.2-0.47,0.6-1.27
				c0.21-0.4,0.46-0.88,0.74-1.44c0.27-0.57,0.67-1.16,1.1-1.8c0.45-0.63,0.86-1.37,1.45-2.04c0.58-0.68,1.16-1.42,1.83-2.13
				c0.71-0.67,1.41-1.4,2.18-2.08c0.81-0.63,1.61-1.31,2.46-1.9c0.89-0.56,1.74-1.17,2.66-1.63c0.45-0.25,0.9-0.49,1.35-0.71
				c0.46-0.2,0.92-0.4,1.37-0.59c0.88-0.42,1.8-0.67,2.65-0.96c0.86-0.24,1.68-0.47,2.45-0.6c0.38-0.07,0.75-0.13,1.1-0.2
				c0.35-0.04,0.69-0.07,1.01-0.1c0.63-0.07,1.18-0.08,1.64-0.1c0.46-0.01,0.81,0.01,1.07,0.03c0.25,0.01,0.37,0.03,0.37,0.03
				c0.26,0.04,0.45,0.28,0.41,0.55c-0.02,0.12-0.08,0.23-0.17,0.3L361.05,220.58z"/>
			<path style="fill:#5BA85D;" d="M361.47,220.31c0,0,0.02,0.15,0.07,0.42c0.03,0.25,0.13,0.65,0.18,1.11
				c0.07,0.46,0.16,1.01,0.26,1.65c0.08,0.6,0.17,1.28,0.28,2.02c0.04,0.36,0.08,0.73,0.14,1.11c0.04,0.37,0.08,0.76,0.13,1.16
				c0.12,0.79,0.16,1.6,0.27,2.43c0.06,0.42,0.06,0.83,0.1,1.25c0.07,0.42,0.1,0.85,0.13,1.27c0.05,0.85,0.17,1.71,0.21,2.58
				c-0.01,0.43,0.08,0.86,0.11,1.29c0.05,0.43,0.05,0.87,0.07,1.3c0.08,0.86,0.17,1.71,0.17,2.56c0.08,0.84,0.13,1.67,0.14,2.48
				c-0.01,0.82,0.09,1.58,0.08,2.33c0.01,0.74-0.04,1.46-0.01,2.09c0.02,0.63-0.03,1.22-0.04,1.7c-0.01,0.48-0.08,0.89-0.09,1.16
				c-0.04,0.28-0.06,0.43-0.06,0.43l-0.03,0.25c-0.03,0.26-0.27,0.44-0.53,0.41c-0.13-0.02-0.24-0.09-0.32-0.19
				c0,0-0.3-0.41-0.8-1.16c-0.24-0.38-0.54-0.84-0.88-1.36c-0.36-0.52-0.67-1.15-1.01-1.85c-0.32-0.7-0.76-1.43-1.04-2.28
				c-0.3-0.84-0.65-1.71-0.93-2.65c-0.23-0.95-0.51-1.92-0.71-2.92c-0.14-1.02-0.33-2.05-0.42-3.09c-0.04-1.04-0.14-2.09-0.08-3.12
				c0.01-0.51,0.03-1.02,0.06-1.53c0.06-0.5,0.11-1,0.17-1.48c0.08-0.98,0.32-1.9,0.49-2.78c0.22-0.87,0.43-1.69,0.71-2.42
				c0.13-0.37,0.26-0.72,0.38-1.05c0.15-0.33,0.29-0.63,0.41-0.92c0.26-0.58,0.52-1.07,0.73-1.47c0.22-0.4,0.42-0.7,0.56-0.91
				c0.14-0.21,0.21-0.31,0.21-0.31c0.17-0.21,0.47-0.24,0.68-0.08c0.1,0.08,0.16,0.18,0.18,0.3L361.47,220.31z"/>
			<path style="fill:#5BA85D;" d="M360.55,219.91c0,0,0.05-0.12,0.14-0.35c0.09-0.24,0.25-0.56,0.45-0.97
				c0.21-0.41,0.46-0.9,0.79-1.44c0.32-0.54,0.7-1.15,1.16-1.78c0.42-0.65,0.99-1.28,1.54-1.98c0.62-0.64,1.21-1.37,1.95-2.01
				c0.36-0.33,0.72-0.66,1.09-1c0.39-0.31,0.79-0.62,1.19-0.93c0.78-0.66,1.7-1.15,2.55-1.73c0.89-0.52,1.83-0.96,2.73-1.44
				c0.94-0.38,1.87-0.75,2.77-1.11c0.93-0.27,1.83-0.53,2.68-0.78c0.85-0.24,1.69-0.34,2.44-0.5c0.76-0.14,1.45-0.29,2.08-0.32
				c0.62-0.06,1.17-0.1,1.62-0.14c0.9-0.08,1.41-0.13,1.41-0.13c0.24-0.02,0.46,0.16,0.48,0.4c0.01,0.15-0.05,0.3-0.17,0.39
				l-0.27,0.21c0,0-0.12,0.09-0.35,0.27c-0.23,0.15-0.55,0.42-0.96,0.68c-0.41,0.25-0.9,0.6-1.45,0.92
				c-0.56,0.3-1.15,0.72-1.79,1.11c-0.63,0.42-1.33,0.75-2.02,1.19c-0.68,0.45-1.4,0.87-2.13,1.28c-0.7,0.46-1.41,0.93-2.15,1.33
				c-0.67,0.52-1.42,0.91-2.1,1.39l-1.02,0.7c-0.17,0.12-0.35,0.22-0.52,0.33l-0.49,0.36c-0.32,0.25-0.67,0.45-1.02,0.66
				c-0.32,0.24-0.65,0.46-0.99,0.67c-0.69,0.41-1.31,0.87-2,1.24c-0.62,0.43-1.32,0.78-1.92,1.16c-0.66,0.38-1.26,0.72-1.79,1.03
				c-0.28,0.16-0.55,0.31-0.8,0.45c-0.25,0.14-0.52,0.26-0.73,0.38c-0.42,0.25-0.81,0.43-1.05,0.56c-0.26,0.14-0.41,0.22-0.41,0.22
				l-0.34,0.18c-0.21,0.11-0.47,0.04-0.58-0.17C360.51,220.16,360.51,220.02,360.55,219.91z"/>
			<path style="fill:#5BA85D;" d="M360.85,219.61c0,0,0.13-0.04,0.36-0.12c0.24-0.08,0.59-0.17,1.03-0.29
				c0.44-0.1,0.98-0.23,1.61-0.33c0.62-0.1,1.33-0.2,2.1-0.26c0.77-0.1,1.62-0.07,2.5-0.1c0.89,0.06,1.83,0.04,2.79,0.19
				c0.48,0.06,0.97,0.13,1.46,0.19c0.49,0.1,0.98,0.21,1.48,0.31c1.01,0.17,1.97,0.56,2.97,0.84c0.97,0.34,1.92,0.78,2.86,1.15
				c0.9,0.48,1.78,0.95,2.63,1.41c0.8,0.54,1.58,1.06,2.32,1.55c0.73,0.5,1.35,1.07,1.95,1.55c0.6,0.49,1.16,0.93,1.58,1.39
				c0.45,0.44,0.83,0.83,1.15,1.14c0.64,0.63,1,1,1,1c0.17,0.17,0.17,0.45,0,0.63c-0.11,0.11-0.26,0.15-0.4,0.12l-0.33-0.07
				c0,0-0.15-0.03-0.43-0.09c-0.26-0.07-0.67-0.15-1.14-0.3c-0.46-0.15-1.04-0.3-1.64-0.52c-0.59-0.23-1.29-0.42-2-0.65
				c-0.73-0.21-1.43-0.54-2.21-0.77c-0.79-0.23-1.57-0.51-2.35-0.8c-0.8-0.24-1.62-0.47-2.4-0.79c-0.83-0.17-1.61-0.5-2.41-0.71
				l-1.2-0.33c-0.2-0.05-0.39-0.12-0.59-0.18l-0.59-0.15c-0.4-0.09-0.78-0.22-1.16-0.35c-0.39-0.09-0.77-0.2-1.15-0.33
				c-0.76-0.27-1.51-0.43-2.24-0.73c-0.73-0.19-1.45-0.51-2.13-0.72c-0.71-0.26-1.36-0.5-1.94-0.71c-0.3-0.11-0.59-0.22-0.86-0.32
				c-0.27-0.11-0.53-0.23-0.76-0.31c-0.46-0.16-0.85-0.34-1.11-0.44c-0.28-0.11-0.43-0.17-0.43-0.17l-0.36-0.14
				c-0.22-0.09-0.33-0.33-0.24-0.55C360.64,219.74,360.74,219.65,360.85,219.61z"/>
			<path style="fill:#5BA85D;" d="M360.59,220.34c0,0-0.09-0.08-0.27-0.28c-0.18-0.2-0.45-0.47-0.73-0.85
				c-0.28-0.38-0.64-0.84-0.97-1.41c-0.34-0.57-0.73-1.22-1.04-1.97c-0.36-0.74-0.65-1.57-0.94-2.47c-0.21-0.91-0.55-1.87-0.65-2.89
				c-0.07-0.51-0.13-1.03-0.2-1.56c-0.03-0.53-0.05-1.07-0.08-1.61c-0.05-1.09,0.12-2.19,0.19-3.29c0.11-1.1,0.43-2.17,0.64-3.23
				c0.31-1.03,0.68-2.04,1.05-2.99c0.44-0.92,0.89-1.8,1.35-2.61c0.45-0.81,1-1.51,1.48-2.15c0.24-0.32,0.47-0.63,0.69-0.92
				c0.22-0.29,0.49-0.52,0.71-0.76c0.45-0.47,0.87-0.86,1.22-1.17c0.34-0.32,0.63-0.55,0.82-0.71c0.19-0.16,0.29-0.24,0.29-0.24
				c0.21-0.17,0.52-0.14,0.69,0.07c0.07,0.09,0.11,0.19,0.11,0.3l0.01,0.22c0,0,0.02,0.64-0.08,1.61c-0.04,0.49-0.09,1.07-0.21,1.69
				c-0.11,0.62-0.16,1.35-0.27,2.08c-0.06,0.36-0.12,0.74-0.19,1.13c-0.07,0.38-0.17,0.76-0.21,1.17c-0.1,0.8-0.25,1.62-0.43,2.43
				c-0.12,0.83-0.25,1.67-0.45,2.5c-0.1,0.84-0.26,1.68-0.42,2.52c-0.06,0.42-0.09,0.85-0.18,1.26c-0.09,0.42-0.14,0.84-0.17,1.26
				c-0.06,0.42-0.12,0.84-0.18,1.25c-0.02,0.41-0.08,0.83-0.12,1.24c-0.13,0.83-0.12,1.62-0.24,2.42c-0.02,0.77-0.13,1.55-0.15,2.27
				c-0.04,0.72-0.11,1.41-0.13,2.03c-0.01,0.61-0.06,1.18-0.07,1.64c0,0.46-0.05,0.86-0.05,1.1c-0.02,0.26-0.01,0.42-0.01,0.42
				l0,0.11c0,0.29-0.23,0.52-0.51,0.53C360.81,220.47,360.69,220.42,360.59,220.34z"/>
			<path style="fill:#5BA85D;" d="M359.81,220.18c0,0-0.18,0-0.53,0c-0.32-0.02-0.82,0.02-1.41-0.03c-0.58-0.04-1.33-0.02-2.11-0.09
				c-0.81-0.03-1.68-0.12-2.62-0.18c-0.92-0.09-1.92-0.18-2.97-0.28c-1.03-0.14-2.11-0.21-3.19-0.37c-1.09-0.12-2.19-0.25-3.3-0.41
				c-0.55-0.06-1.11-0.11-1.67-0.19c-0.55-0.1-1.11-0.18-1.66-0.21c-0.55-0.04-1.1-0.14-1.65-0.22c-0.27-0.05-0.55-0.07-0.82-0.09
				l-0.81-0.09c-0.54-0.06-1.08-0.12-1.61-0.22c-0.53-0.06-1.05-0.06-1.58-0.14c-0.52-0.07-1.04-0.13-1.55-0.21
				c-0.5-0.04-1-0.07-1.5-0.12c-0.99-0.12-1.96-0.27-2.85-0.3c-0.9-0.08-1.77-0.2-2.55-0.29c-0.76-0.03-1.48-0.12-2.07-0.18
				c-0.59-0.04-1.09-0.15-1.43-0.19c-0.34-0.05-0.53-0.1-0.53-0.1l-0.35-0.08c-0.23-0.05-0.38-0.29-0.33-0.52
				c0.03-0.14,0.14-0.26,0.27-0.31c0,0,0.6-0.23,1.65-0.64c0.52-0.2,1.16-0.45,1.89-0.73c0.75-0.22,1.61-0.43,2.54-0.68
				c0.47-0.11,0.95-0.28,1.46-0.35c0.51-0.08,1.05-0.16,1.59-0.24c0.55-0.08,1.11-0.17,1.68-0.26c0.58-0.03,1.17-0.07,1.77-0.1
				c0.6-0.03,1.21-0.06,1.83-0.09c0.62,0.02,1.25,0.04,1.88,0.06c1.27,0,2.54,0.17,3.82,0.32c0.64,0.06,1.27,0.16,1.9,0.29
				c0.63,0.12,1.25,0.23,1.87,0.35c1.23,0.3,2.44,0.58,3.59,0.92c1.15,0.36,2.26,0.69,3.28,1.09c1.04,0.36,2,0.77,2.88,1.14
				c1.76,0.76,3.19,1.48,4.18,2.03c0.49,0.27,0.88,0.49,1.14,0.65c0.26,0.16,0.39,0.24,0.39,0.24c0.22,0.13,0.29,0.41,0.15,0.63
				c-0.09,0.14-0.24,0.22-0.39,0.22H359.81z"/>
		</g>
		<g style="clip-path:url(#SVGID_2_);">
			<path style="fill:#D9B18D;" d="M481.71,275.15c-0.21,0.75-5.08,1.49-9.76,0.17s-7.63-4.2-7.42-4.95
				c0.21-0.75,4.64-1.07,9.32,0.26C478.54,271.96,481.92,274.41,481.71,275.15z"/>
			<path style="fill:#A87160;" d="M464.54,270.37c0,0,0.1-0.23,0.29-0.67c0.18-0.41,0.45-0.96,0.8-1.66
				c0.7-1.38,1.73-3.28,3.11-5.46c1.37-2.18,3.07-4.64,5.09-7.11c1-1.24,2.1-2.48,3.24-3.7c1.16-1.21,2.36-2.4,3.64-3.52
				c1.27-1.13,2.58-2.2,3.93-3.17c1.34-0.99,2.72-1.87,4.07-2.66c1.36-0.79,2.72-1.47,4.03-2.06c1.32-0.57,2.57-1.07,3.75-1.44
				c1.16-0.42,2.28-0.65,3.24-0.92c0.98-0.19,1.83-0.37,2.53-0.49c1.4-0.18,2.21-0.29,2.21-0.29l0.21,0.98c0,0-0.73,0.27-2.02,0.75
				c-0.63,0.26-1.38,0.61-2.24,0.99c-0.83,0.46-1.79,0.9-2.76,1.53c-0.99,0.58-2.01,1.29-3.06,2.06c-1.04,0.79-2.09,1.67-3.12,2.63
				c-1.02,0.97-2.04,2.01-2.99,3.13c-0.97,1.11-1.88,2.29-2.74,3.51c-3.46,4.86-5.88,10.34-7.31,14.5c-0.72,2.08-1.2,3.84-1.49,5.04
				c-0.14,0.6-0.25,1.07-0.3,1.36c-0.03,0.16-0.04,0.24-0.05,0.29c-0.01,0.08,0.01,0.11-0.02,0.12
				C467.58,275.51,464.54,270.37,464.54,270.37z"/>
			<path style="fill:#966556;" d="M491.47,246.2c1.03-0.96,2.08-1.84,3.12-2.63c1.05-0.77,2.07-1.49,3.06-2.06
				c0.97-0.63,1.93-1.07,2.76-1.53c0.86-0.38,1.61-0.74,2.24-0.99c1.28-0.48,2.02-0.75,2.02-0.75l-0.37-0.93
				c0,0-0.77,0.24-2.12,0.67c-0.67,0.23-1.47,0.56-2.41,0.92c-0.89,0.43-1.95,0.85-3.03,1.46c-1.1,0.57-2.25,1.28-3.44,2.07
				c-1.19,0.8-2.4,1.71-3.61,2.73c-1.2,1.02-2.4,2.13-3.55,3.33c-1.16,1.19-2.27,2.48-3.32,3.8c-1.06,1.33-2.04,2.71-2.97,4.1
				c-0.91,1.4-1.78,2.8-2.55,4.2c-1.56,2.79-2.81,5.51-3.78,7.89c-0.94,2.3-1.61,4.28-2.06,5.75c1.44,0.21,3.13,0.24,5.12-0.06
				c0.03,0,0.01-0.04,0.02-0.12c0-0.05,0.01-0.13,0.05-0.29c0.05-0.29,0.16-0.76,0.3-1.36c0.3-1.2,0.77-2.96,1.49-5.04
				c1.42-4.16,3.85-9.65,7.31-14.5c0.86-1.22,1.77-2.4,2.74-3.51C489.44,248.21,490.45,247.17,491.47,246.2z"/>
			<path style="fill:#5BA85D;" d="M502.76,238.28c0,0,0.1,0.05,0.29,0.14c0.17,0.07,0.43,0.23,0.74,0.35
				c0.31,0.14,0.68,0.32,1.12,0.52c0.41,0.18,0.87,0.38,1.37,0.6c0.24,0.1,0.5,0.2,0.76,0.33c0.25,0.1,0.52,0.21,0.79,0.33
				c0.54,0.24,1.1,0.44,1.66,0.68c0.28,0.13,0.57,0.22,0.86,0.33c0.28,0.13,0.58,0.25,0.87,0.35c0.59,0.21,1.17,0.47,1.77,0.67
				c0.31,0.08,0.59,0.23,0.89,0.34c0.29,0.12,0.6,0.21,0.9,0.31c0.59,0.23,1.17,0.46,1.77,0.64c0.58,0.22,1.15,0.43,1.72,0.6
				c0.58,0.16,1.09,0.39,1.63,0.53c0.52,0.16,1.04,0.27,1.47,0.42c0.44,0.14,0.86,0.23,1.21,0.31c0.33,0.09,0.64,0.13,0.83,0.17
				c0.21,0.03,0.32,0.05,0.32,0.05l0.18,0.03c0.19,0.03,0.37-0.1,0.39-0.29c0.01-0.1-0.01-0.19-0.07-0.26c0,0-0.23-0.3-0.66-0.8
				c-0.21-0.25-0.48-0.55-0.78-0.89c-0.29-0.36-0.68-0.71-1.1-1.09c-0.43-0.37-0.86-0.83-1.4-1.2c-0.53-0.38-1.08-0.81-1.67-1.19
				c-0.62-0.35-1.25-0.75-1.92-1.1c-0.69-0.3-1.38-0.65-2.09-0.92c-0.73-0.24-1.44-0.53-2.18-0.69c-0.36-0.1-0.73-0.19-1.09-0.27
				c-0.36-0.06-0.72-0.12-1.08-0.18c-0.71-0.14-1.4-0.16-2.06-0.22c-0.66-0.02-1.28-0.04-1.85,0c-0.29,0.02-0.56,0.04-0.82,0.05
				c-0.26,0.04-0.5,0.07-0.73,0.1c-0.46,0.07-0.86,0.15-1.18,0.22c-0.33,0.07-0.58,0.15-0.76,0.21c-0.18,0.05-0.26,0.09-0.26,0.09
				c-0.18,0.07-0.27,0.28-0.19,0.46c0.03,0.08,0.1,0.15,0.18,0.19L502.76,238.28z"/>
			<path style="fill:#5BA85D;" d="M502.74,238.72c0,0,0.05,0.1,0.14,0.28c0.09,0.16,0.2,0.44,0.37,0.74
				c0.15,0.3,0.34,0.67,0.56,1.09c0.21,0.39,0.45,0.84,0.71,1.32c0.13,0.23,0.27,0.47,0.39,0.72c0.14,0.24,0.28,0.49,0.42,0.74
				c0.27,0.52,0.6,1.02,0.89,1.56c0.14,0.28,0.32,0.52,0.48,0.79c0.14,0.28,0.3,0.55,0.47,0.81c0.34,0.53,0.64,1.09,0.98,1.62
				c0.19,0.25,0.33,0.55,0.49,0.82c0.16,0.27,0.34,0.54,0.52,0.8c0.32,0.55,0.64,1.09,1,1.6c0.32,0.53,0.64,1.05,0.99,1.54
				c0.36,0.48,0.63,0.98,0.95,1.42c0.31,0.45,0.65,0.85,0.9,1.24c0.26,0.38,0.54,0.71,0.76,0.99c0.21,0.28,0.43,0.5,0.55,0.65
				c0.14,0.15,0.22,0.23,0.22,0.23l0.13,0.13c0.13,0.14,0.35,0.15,0.49,0.01c0.07-0.07,0.11-0.16,0.11-0.25c0,0,0-0.38-0.02-1.03
				c-0.02-0.33-0.04-0.73-0.06-1.19c-0.01-0.46-0.1-0.97-0.2-1.53c-0.11-0.56-0.17-1.18-0.37-1.8c-0.18-0.62-0.35-1.3-0.58-1.97
				c-0.27-0.66-0.52-1.36-0.84-2.04c-0.36-0.66-0.68-1.36-1.08-2.02c-0.42-0.63-0.81-1.3-1.29-1.89c-0.23-0.3-0.46-0.6-0.69-0.88
				c-0.25-0.27-0.5-0.54-0.74-0.81c-0.47-0.55-1.01-0.99-1.49-1.44c-0.5-0.42-0.98-0.82-1.46-1.13c-0.24-0.16-0.46-0.31-0.68-0.46
				c-0.23-0.13-0.44-0.25-0.64-0.37c-0.4-0.23-0.77-0.41-1.07-0.56c-0.3-0.15-0.55-0.24-0.72-0.3c-0.17-0.07-0.26-0.09-0.26-0.09
				c-0.19-0.05-0.38,0.06-0.44,0.25c-0.03,0.09-0.01,0.18,0.02,0.25L502.74,238.72z"/>
			<path style="fill:#5BA85D;" d="M502.53,238.01c0,0-0.05,0.1-0.14,0.28c-0.08,0.17-0.24,0.42-0.37,0.74
				c-0.15,0.3-0.33,0.67-0.54,1.1c-0.19,0.4-0.4,0.86-0.63,1.36c-0.1,0.24-0.21,0.49-0.34,0.75c-0.11,0.25-0.22,0.51-0.34,0.78
				c-0.26,0.53-0.46,1.09-0.72,1.64c-0.13,0.28-0.23,0.57-0.35,0.85c-0.14,0.28-0.26,0.57-0.37,0.87c-0.22,0.59-0.49,1.16-0.71,1.76
				c-0.09,0.31-0.24,0.59-0.36,0.88c-0.13,0.29-0.22,0.6-0.33,0.89c-0.25,0.58-0.49,1.16-0.68,1.76c-0.24,0.57-0.46,1.14-0.64,1.71
				c-0.17,0.58-0.41,1.09-0.57,1.62c-0.17,0.52-0.29,1.03-0.45,1.46c-0.15,0.44-0.25,0.86-0.34,1.2c-0.1,0.34-0.14,0.64-0.19,0.83
				c-0.03,0.21-0.05,0.31-0.05,0.31l-0.03,0.18c-0.03,0.19,0.09,0.37,0.28,0.4c0.1,0.02,0.19-0.01,0.26-0.06c0,0,0.3-0.22,0.81-0.64
				c0.25-0.21,0.56-0.47,0.91-0.76c0.37-0.28,0.72-0.66,1.11-1.07c0.38-0.42,0.84-0.84,1.22-1.37c0.39-0.52,0.83-1.05,1.23-1.65
				c0.37-0.61,0.78-1.23,1.14-1.89c0.32-0.68,0.68-1.36,0.97-2.07c0.26-0.72,0.56-1.43,0.74-2.16c0.1-0.36,0.21-0.72,0.29-1.08
				c0.07-0.36,0.14-0.72,0.21-1.08c0.16-0.7,0.19-1.4,0.26-2.05c0.03-0.65,0.07-1.27,0.04-1.85c-0.01-0.29-0.02-0.56-0.04-0.82
				c-0.03-0.26-0.06-0.51-0.09-0.74c-0.05-0.46-0.13-0.86-0.19-1.19c-0.06-0.33-0.14-0.58-0.19-0.76c-0.05-0.18-0.08-0.26-0.08-0.26
				c-0.07-0.18-0.27-0.27-0.46-0.2c-0.08,0.03-0.15,0.09-0.19,0.17L502.53,238.01z"/>
			<path style="fill:#5BA85D;" d="M503.26,237.93c0,0,0-0.1-0.01-0.28c-0.01-0.19-0.04-0.45-0.08-0.78c-0.05-0.33-0.1-0.73-0.2-1.18
				c-0.09-0.46-0.21-0.96-0.38-1.51c-0.14-0.55-0.38-1.12-0.59-1.74c-0.27-0.59-0.51-1.24-0.87-1.86c-0.17-0.31-0.34-0.63-0.52-0.95
				c-0.2-0.31-0.4-0.62-0.61-0.93c-0.38-0.64-0.9-1.2-1.36-1.81c-0.49-0.58-1.04-1.1-1.54-1.65c-0.56-0.49-1.12-0.96-1.66-1.43
				c-0.58-0.41-1.14-0.8-1.67-1.18c-0.53-0.37-1.09-0.64-1.58-0.93c-0.49-0.28-0.94-0.55-1.37-0.72c-0.42-0.19-0.78-0.35-1.09-0.49
				c-0.6-0.27-0.95-0.42-0.95-0.42c-0.16-0.07-0.36,0-0.43,0.16c-0.05,0.1-0.03,0.22,0.02,0.31l0.14,0.21c0,0,0.06,0.09,0.18,0.27
				c0.12,0.16,0.28,0.42,0.5,0.7c0.23,0.27,0.48,0.63,0.79,0.98c0.31,0.34,0.63,0.77,0.98,1.2c0.34,0.44,0.74,0.84,1.11,1.31
				c0.36,0.48,0.76,0.94,1.17,1.4c0.38,0.49,0.75,0.98,1.17,1.43c0.34,0.52,0.76,0.97,1.13,1.46l0.54,0.73
				c0.09,0.13,0.19,0.24,0.28,0.35l0.26,0.37c0.16,0.25,0.36,0.47,0.55,0.7c0.16,0.24,0.34,0.48,0.53,0.7
				c0.38,0.45,0.7,0.92,1.09,1.34c0.32,0.45,0.73,0.86,1.06,1.27c0.36,0.42,0.7,0.8,0.99,1.14c0.16,0.18,0.31,0.35,0.44,0.5
				c0.14,0.16,0.3,0.3,0.41,0.44c0.23,0.28,0.46,0.49,0.59,0.64c0.15,0.16,0.23,0.25,0.23,0.25l0.19,0.21
				c0.12,0.13,0.31,0.14,0.44,0.02C503.23,238.11,503.27,238.02,503.26,237.93z"/>
			<path style="fill:#5BA85D;" d="M503.12,237.65c0,0-0.08-0.06-0.22-0.17c-0.15-0.11-0.37-0.26-0.65-0.44
				c-0.28-0.18-0.63-0.39-1.04-0.61c-0.41-0.22-0.87-0.46-1.4-0.68c-0.51-0.25-1.1-0.43-1.71-0.67c-0.63-0.17-1.28-0.41-1.98-0.53
				c-0.35-0.07-0.7-0.14-1.06-0.22c-0.36-0.04-0.73-0.09-1.1-0.14c-0.74-0.12-1.5-0.08-2.26-0.13c-0.76,0-1.51,0.08-2.26,0.12
				c-0.74,0.12-1.46,0.23-2.16,0.35c-0.69,0.18-1.35,0.35-1.98,0.52c-0.63,0.17-1.19,0.42-1.72,0.61c-0.53,0.2-1.02,0.37-1.43,0.58
				c-0.42,0.2-0.78,0.37-1.07,0.52c-0.6,0.29-0.94,0.45-0.94,0.45c-0.16,0.08-0.23,0.27-0.15,0.43c0.05,0.1,0.14,0.17,0.25,0.18
				l0.25,0.03c0,0,0.11,0.01,0.32,0.04c0.2,0.01,0.5,0.05,0.86,0.07c0.35,0,0.79,0.04,1.26,0.03c0.46-0.02,1,0.02,1.55,0.03
				c0.56,0.02,1.12-0.03,1.72-0.01c0.6,0.03,1.21,0.02,1.82,0.01c0.62,0.03,1.24,0.06,1.85,0.03c0.62,0.08,1.23,0.04,1.84,0.08
				l0.91,0.06c0.15,0.01,0.3,0.01,0.45,0.01l0.45,0.04c0.3,0.04,0.6,0.03,0.89,0.03c0.29,0.03,0.58,0.05,0.88,0.05
				c0.59,0,1.15,0.06,1.73,0.03c0.55,0.04,1.13,0,1.65,0.01c0.55-0.01,1.06-0.02,1.51-0.03c0.24-0.01,0.46-0.01,0.67-0.02
				c0.21-0.01,0.42-0.03,0.6-0.03c0.36,0,0.67-0.03,0.87-0.04c0.22-0.01,0.34-0.01,0.34-0.01l0.28-0.01
				c0.17-0.01,0.31-0.15,0.3-0.33C503.24,237.79,503.19,237.71,503.12,237.65z"/>
			<path style="fill:#5BA85D;" d="M503.13,238.22c0,0,0.08-0.03,0.26-0.13c0.17-0.09,0.42-0.22,0.71-0.41
				c0.28-0.2,0.65-0.43,1.01-0.75c0.37-0.31,0.79-0.67,1.19-1.12c0.42-0.43,0.83-0.94,1.24-1.49c0.36-0.58,0.83-1.16,1.14-1.85
				c0.17-0.34,0.34-0.69,0.51-1.04c0.14-0.36,0.29-0.73,0.44-1.1c0.3-0.75,0.44-1.54,0.65-2.33c0.19-0.79,0.22-1.6,0.32-2.39
				c0.03-0.79,0.02-1.57-0.02-2.32c-0.08-0.75-0.18-1.46-0.31-2.13c-0.12-0.67-0.33-1.28-0.51-1.85c-0.09-0.28-0.18-0.55-0.26-0.8
				c-0.08-0.25-0.22-0.48-0.31-0.7c-0.2-0.43-0.4-0.8-0.57-1.1c-0.16-0.3-0.31-0.53-0.4-0.69c-0.09-0.16-0.15-0.24-0.15-0.24
				c-0.1-0.17-0.33-0.22-0.5-0.12c-0.07,0.04-0.12,0.11-0.15,0.18l-0.06,0.15c0,0-0.17,0.44-0.33,1.14
				c-0.09,0.35-0.19,0.77-0.26,1.22c-0.07,0.46-0.21,0.97-0.31,1.51c-0.04,0.26-0.09,0.54-0.14,0.83c-0.04,0.28-0.06,0.57-0.14,0.86
				c-0.12,0.58-0.21,1.18-0.28,1.79c-0.12,0.6-0.23,1.22-0.29,1.84c-0.13,0.61-0.22,1.23-0.31,1.85c-0.06,0.31-0.14,0.61-0.18,0.92
				c-0.04,0.31-0.1,0.62-0.18,0.91c-0.06,0.31-0.12,0.61-0.18,0.91c-0.09,0.29-0.14,0.59-0.21,0.89c-0.11,0.61-0.31,1.15-0.41,1.74
				c-0.17,0.54-0.28,1.11-0.44,1.61c-0.15,0.51-0.26,1.01-0.4,1.43c-0.14,0.42-0.24,0.83-0.34,1.16c-0.11,0.32-0.17,0.61-0.23,0.77
				c-0.05,0.18-0.09,0.29-0.09,0.29l-0.03,0.08c-0.07,0.2,0.03,0.42,0.23,0.49C502.95,238.26,503.05,238.25,503.13,238.22z"/>
			<path style="fill:#5BA85D;" d="M503.72,238.21c0,0,0.13-0.01,0.39-0.02c0.24-0.03,0.6-0.02,1.03-0.07
				c0.43-0.05,0.97-0.06,1.55-0.14c0.59-0.05,1.22-0.15,1.91-0.23c0.67-0.1,1.4-0.2,2.17-0.31c0.75-0.14,1.54-0.23,2.32-0.39
				c0.79-0.13,1.6-0.26,2.4-0.42c0.4-0.07,0.81-0.12,1.21-0.2c0.4-0.09,0.8-0.17,1.21-0.21c0.41-0.05,0.8-0.15,1.2-0.22
				c0.2-0.05,0.4-0.07,0.6-0.09l0.59-0.1c0.39-0.06,0.79-0.13,1.17-0.22c0.39-0.06,0.77-0.08,1.15-0.16
				c0.38-0.07,0.76-0.13,1.13-0.21c0.37-0.05,0.73-0.09,1.09-0.14c0.72-0.13,1.42-0.27,2.08-0.32c0.66-0.09,1.29-0.21,1.86-0.31
				c0.56-0.05,1.08-0.14,1.51-0.21c0.43-0.05,0.8-0.15,1.04-0.19c0.25-0.05,0.39-0.09,0.39-0.09l0.26-0.07
				c0.17-0.05,0.27-0.22,0.22-0.39c-0.03-0.1-0.11-0.18-0.21-0.21c0,0-0.45-0.15-1.23-0.41c-0.39-0.13-0.87-0.29-1.41-0.47
				c-0.56-0.14-1.2-0.26-1.89-0.41c-0.35-0.06-0.7-0.17-1.08-0.21c-0.38-0.04-0.77-0.08-1.17-0.12c-0.4-0.04-0.82-0.08-1.24-0.13
				c-0.43,0-0.86-0.01-1.3-0.01c-0.44,0-0.89,0-1.35,0c-0.45,0.04-0.91,0.08-1.37,0.12c-0.93,0.05-1.86,0.22-2.78,0.37
				c-0.47,0.07-0.93,0.17-1.38,0.28c-0.45,0.11-0.91,0.22-1.36,0.33c-0.89,0.26-1.77,0.51-2.59,0.81c-0.83,0.3-1.63,0.59-2.37,0.92
				c-0.75,0.31-1.44,0.64-2.07,0.94c-1.26,0.62-2.29,1.2-2.99,1.64c-0.35,0.21-0.63,0.39-0.81,0.52c-0.18,0.13-0.28,0.19-0.28,0.19
				c-0.15,0.1-0.19,0.31-0.09,0.47c0.07,0.1,0.18,0.15,0.29,0.15L503.72,238.21z"/>
		</g>
		<path style="opacity:0.4;clip-path:url(#SVGID_2_);fill:#65A4F7;" d="M686.39,281.44c-20.84,0-20.84,8-41.67,8
			c-20.84,0-20.84-8-41.67-8c-20.83,0-20.83,8-41.67,8c-20.83,0-20.83-8-41.67-8c-20.83,0-20.83,8-41.67,8c-20.83,0-20.83-8-41.67-8
			c-20.83,0-20.83,8-41.66,8c-20.83,0-20.83-8-41.67-8s-20.83,8-41.67,8c-20.83,0-20.83-8-41.67-8c-20.83,0-20.83,8-41.66,8
			s-20.83-8-41.66-8v225.11h500V281.44z"/>
		<path style="clip-path:url(#SVGID_2_);fill:#FFFFFF;" d="M292.48,369.19l-20.26-22l24.2-22.28l20.26,22l13.93-12.83l18.23,19.8
			l-13.93,12.83l20.8,22.59l-24.2,22.28l-20.8-22.59l-48.69,44.83l-16.07-17.45l-25.25-92.47l25.08-23.09l25,88.37L292.48,369.19z"
			/>
		<path style="opacity:0.4;clip-path:url(#SVGID_2_);fill:#65A4F7;" d="M686.39,319.14c-20.84,0-20.84,8-41.67,8
			c-20.84,0-20.84-8-41.67-8c-20.83,0-20.83,8-41.67,8c-20.83,0-20.83-8-41.67-8c-20.83,0-20.83,8-41.67,8c-20.83,0-20.83-8-41.67-8
			c-20.83,0-20.83,8-41.66,8c-20.83,0-20.83-8-41.67-8s-20.83,8-41.67,8c-20.83,0-20.83-8-41.67-8c-20.83,0-20.83,8-41.66,8
			s-20.83-8-41.66-8v187.41h500V319.14z"/>
		<path style="clip-path:url(#SVGID_2_);fill:#FFFFFF;" d="M591.12,407.35l20.03-22.21l24.43,22.03l-20.03,22.21l14.06,12.69
			l-18.03,19.99l-14.06-12.68l-20.56,22.8l-24.43-22.03l20.56-22.8L523.94,383l15.89-17.62l89.73-33.71l25.32,22.83l-85.67,33.07
			L591.12,407.35z"/>
		<path style="opacity:0.4;clip-path:url(#SVGID_2_);fill:#65A4F7;" d="M686.39,361.1c-20.84,0-20.84,8-41.67,8
			c-20.84,0-20.84-8-41.67-8c-20.83,0-20.83,8-41.67,8c-20.83,0-20.83-8-41.67-8c-20.83,0-20.83,8-41.67,8c-20.83,0-20.83-8-41.67-8
			c-20.83,0-20.83,8-41.66,8c-20.83,0-20.83-8-41.67-8s-20.83,8-41.67,8c-20.83,0-20.83-8-41.67-8c-20.83,0-20.83,8-41.66,8
			s-20.83-8-41.66-8v145.45h500V361.1z"/>
		<path style="opacity:0.4;clip-path:url(#SVGID_2_);fill:#65A4F7;" d="M686.39,404.11c-20.84,0-20.84,8-41.67,8
			c-20.84,0-20.84-8-41.67-8c-20.83,0-20.83,8-41.67,8c-20.83,0-20.83-8-41.67-8c-20.83,0-20.83,8-41.67,8c-20.83,0-20.83-8-41.67-8
			c-20.83,0-20.83,8-41.66,8c-20.83,0-20.83-8-41.67-8s-20.83,8-41.67,8c-20.83,0-20.83-8-41.67-8c-20.83,0-20.83,8-41.66,8
			s-20.83-8-41.66-8v102.44h500V404.11z"/>
		<path style="opacity:0.4;clip-path:url(#SVGID_2_);fill:#65A4F7;" d="M1186.39,281.44c-20.84,0-20.84,8-41.67,8
			c-20.84,0-20.84-8-41.67-8c-20.83,0-20.83,8-41.67,8c-20.83,0-20.83-8-41.67-8c-20.83,0-20.83,8-41.67,8c-20.83,0-20.83-8-41.67-8
			c-20.83,0-20.83,8-41.66,8c-20.83,0-20.83-8-41.67-8c-20.83,0-20.83,8-41.67,8s-20.83-8-41.67-8c-20.83,0-20.83,8-41.66,8
			c-20.83,0-20.83-8-41.66-8v225.11h500V281.44z"/>
		<path style="opacity:0.4;clip-path:url(#SVGID_2_);fill:#65A4F7;" d="M1186.39,319.14c-20.84,0-20.84,8-41.67,8
			c-20.84,0-20.84-8-41.67-8c-20.83,0-20.83,8-41.67,8c-20.83,0-20.83-8-41.67-8c-20.83,0-20.83,8-41.67,8c-20.83,0-20.83-8-41.67-8
			c-20.83,0-20.83,8-41.66,8c-20.83,0-20.83-8-41.67-8c-20.83,0-20.83,8-41.67,8s-20.83-8-41.67-8c-20.83,0-20.83,8-41.66,8
			c-20.83,0-20.83-8-41.66-8v187.41h500V319.14z"/>
		<path style="opacity:0.4;clip-path:url(#SVGID_2_);fill:#65A4F7;" d="M1186.39,361.1c-20.84,0-20.84,8-41.67,8
			c-20.84,0-20.84-8-41.67-8c-20.83,0-20.83,8-41.67,8c-20.83,0-20.83-8-41.67-8c-20.83,0-20.83,8-41.67,8c-20.83,0-20.83-8-41.67-8
			c-20.83,0-20.83,8-41.66,8c-20.83,0-20.83-8-41.67-8c-20.83,0-20.83,8-41.67,8s-20.83-8-41.67-8c-20.83,0-20.83,8-41.66,8
			c-20.83,0-20.83-8-41.66-8v145.45h500V361.1z"/>
		<path style="opacity:0.4;clip-path:url(#SVGID_2_);fill:#65A4F7;" d="M1186.39,404.11c-20.84,0-20.84,8-41.67,8
			c-20.84,0-20.84-8-41.67-8c-20.83,0-20.83,8-41.67,8c-20.83,0-20.83-8-41.67-8c-20.83,0-20.83,8-41.67,8c-20.83,0-20.83-8-41.67-8
			c-20.83,0-20.83,8-41.66,8c-20.83,0-20.83-8-41.67-8c-20.83,0-20.83,8-41.67,8s-20.83-8-41.67-8c-20.83,0-20.83,8-41.66,8
			c-20.83,0-20.83-8-41.66-8v102.44h500V404.11z"/>
		<path style="opacity:0.4;clip-path:url(#SVGID_2_);fill:#65A4F7;" d="M186.39,281.44c-20.84,0-20.84,8-41.67,8
			c-20.84,0-20.84-8-41.67-8c-20.83,0-20.83,8-41.67,8c-20.83,0-20.83-8-41.67-8c-20.83,0-20.83,8-41.67,8c-20.83,0-20.83-8-41.67-8
			c-20.83,0-20.83,8-41.66,8c-20.83,0-20.83-8-41.67-8s-20.83,8-41.67,8s-20.83-8-41.67-8c-20.83,0-20.83,8-41.66,8
			s-20.83-8-41.66-8v225.11h500V281.44z"/>
		<path style="opacity:0.4;clip-path:url(#SVGID_2_);fill:#65A4F7;" d="M186.39,319.14c-20.84,0-20.84,8-41.67,8
			c-20.84,0-20.84-8-41.67-8c-20.83,0-20.83,8-41.67,8c-20.83,0-20.83-8-41.67-8c-20.83,0-20.83,8-41.67,8c-20.83,0-20.83-8-41.67-8
			c-20.83,0-20.83,8-41.66,8c-20.83,0-20.83-8-41.67-8s-20.83,8-41.67,8s-20.83-8-41.67-8c-20.83,0-20.83,8-41.66,8
			s-20.83-8-41.66-8v187.41h500V319.14z"/>
		<path style="opacity:0.4;clip-path:url(#SVGID_2_);fill:#65A4F7;" d="M186.39,361.1c-20.84,0-20.84,8-41.67,8
			c-20.84,0-20.84-8-41.67-8c-20.83,0-20.83,8-41.67,8c-20.83,0-20.83-8-41.67-8c-20.83,0-20.83,8-41.67,8c-20.83,0-20.83-8-41.67-8
			c-20.83,0-20.83,8-41.66,8c-20.83,0-20.83-8-41.67-8s-20.83,8-41.67,8s-20.83-8-41.67-8c-20.83,0-20.83,8-41.66,8
			s-20.83-8-41.66-8v145.45h500V361.1z"/>
		<path style="opacity:0.4;clip-path:url(#SVGID_2_);fill:#65A4F7;" d="M186.39,404.11c-20.84,0-20.84,8-41.67,8
			c-20.84,0-20.84-8-41.67-8c-20.83,0-20.83,8-41.67,8c-20.83,0-20.83-8-41.67-8c-20.83,0-20.83,8-41.67,8c-20.83,0-20.83-8-41.67-8
			c-20.83,0-20.83,8-41.66,8c-20.83,0-20.83-8-41.67-8s-20.83,8-41.67,8s-20.83-8-41.67-8c-20.83,0-20.83,8-41.66,8
			s-20.83-8-41.66-8v102.44h500V404.11z"/>
	</g>
</g>
</svg>
