<?xml version="1.0" encoding="utf-8"?>
<!-- Generator: Adobe Illustrator 22.0.0, SVG Export Plug-In . SVG Version: 6.00 Build 0)  -->
<svg version="1.1" id="Pictures_1" xmlns="http://www.w3.org/2000/svg" xmlns:xlink="http://www.w3.org/1999/xlink" x="0px" y="0px"
	 viewBox="0 0 750 500" style="enable-background:new 0 0 750 500;" xml:space="preserve">
<g>
	<g>
		<g>
			<g>
				<g>
					<g>
						<g>
							<g>
								<g>
									<path style="fill:#EBEBEB;" d="M282.84,381.81l-2.18,0.61l-6.61-5.31l-1.21-4.35c0,0-3.43,0.73-1.44,6.32
										c1.98,5.59,1.15,4.26,1.15,4.26s-7.15,2.02-7.57,2.81c-0.31,0.57,1.48,7.74,2.48,11.61c0.5,1.95,2.2,3.42,4.13,3.38
										c0.27-0.01,0.54-0.04,0.8-0.11c1.79-0.5,10.5-4.49,10.5-4.49l3.77-1.05L282.84,381.81z"/>
								</g>
							</g>
						</g>
					</g>
				</g>
			</g>
			<g>
				<g>
					<g>
						<g>
							<g>
								<g>
									<polygon style="fill:#EBEBEB;" points="288.75,378.87 291.56,394.16 287.83,395.2 283.76,380.59 									"/>
								</g>
							</g>
						</g>
					</g>
				</g>
			</g>
		</g>
	</g>
	<g id="XMLID_51_">
		<g id="XMLID_60_">
			<g>
				<path style="fill:#EBEBEB;" d="M338.86,242.16L338.86,242.16c-15.84,0-28.69-12.84-28.69-28.69l0,0
					c0-15.84,12.84-28.69,28.69-28.69h0c15.84,0,28.69,12.84,28.69,28.69l0,0C367.55,229.32,354.7,242.16,338.86,242.16z"/>
			</g>
		</g>
		<g id="XMLID_52_">
			<g>
				<path style="fill:#FFFFFF;" d="M338.86,195.18c-10.1,0-18.29,8.19-18.29,18.29c0,10.1,8.19,18.29,18.29,18.29
					c10.1,0,18.29-8.19,18.29-18.29C357.15,203.37,348.96,195.18,338.86,195.18z M338.86,198.36c3.47,0,6.66,1.19,9.21,3.16
					c-1.84,2.37-4.37,4.24-7.6,5.61c-1.55-2.84-3.32-5.6-5.32-8.29C336.34,198.54,337.58,198.36,338.86,198.36z M332.04,200.01
					c2.03,2.66,3.83,5.39,5.39,8.2c-3.7,1.09-8.12,1.65-13.24,1.69C325.25,205.57,328.16,201.98,332.04,200.01z M323.75,213.47
					c0-0.13,0.02-0.26,0.02-0.39c5.86-0.01,10.92-0.68,15.16-2.02c0.36,0.72,0.7,1.45,1.02,2.18c-5.15,1.61-9.39,4.91-12.71,9.88
					C325.07,220.51,323.75,217.14,323.75,213.47z M338.86,228.58c-3.49,0-6.71-1.2-9.27-3.2c3-4.71,6.83-7.77,11.58-9.19
					c1.41,3.69,2.45,7.48,3.11,11.37C342.59,228.21,340.77,228.58,338.86,228.58z M347.24,226.03c-0.67-3.59-1.65-7.09-2.93-10.51
					c2.86-0.4,6-0.3,9.45,0.3C353.1,220.06,350.68,223.73,347.24,226.03z M343.1,212.51c-0.37-0.86-0.76-1.71-1.17-2.56
					c3.52-1.52,6.35-3.59,8.46-6.22c2.06,2.43,3.35,5.51,3.54,8.89C350,211.98,346.39,211.94,343.1,212.51z"/>
			</g>
		</g>
	</g>
	<g>
		<g>
			<g>
				<g>
					<g>
						<g>
							<g>
								<g>
									<path style="fill:#EBEBEB;" d="M243.28,178.52l-3.35,1.83l-12.88-6.17l-3.66-6.68c0,0-5.35,2.52,0.05,10.93
										c5.4,8.41,3.52,6.55,3.52,6.55s-10.96,6.06-11.35,7.51c-0.28,1.06,5.39,12.13,8.52,18.11c1.57,3.01,4.92,4.78,8.07,3.96
										c0.45-0.11,0.88-0.27,1.27-0.49c2.74-1.5,15.51-11.4,15.51-11.4l5.78-3.17L243.28,178.52z"/>
								</g>
							</g>
						</g>
					</g>
				</g>
			</g>
			<g>
				<g>
					<g>
						<g>
							<g>
								<g>
									<polygon style="fill:#EBEBEB;" points="251.86,171.43 262.34,195.44 256.61,198.58 244.32,176.16 									"/>
								</g>
							</g>
						</g>
					</g>
				</g>
			</g>
		</g>
	</g>
	<g>
		<g>
			<g>
				<g>
					<g>
						<g>
							<g>
								<g>
									<path style="fill:#EBEBEB;" d="M318.59,276.25l-2.17-0.35l-3.66-7.36l0.7-4.33c0,0-3.32-0.75-3.85,4.98
										c-0.53,5.73-0.72,4.22-0.72,4.22s-7.12-1.13-7.81-0.61c-0.5,0.38-1.85,7.42-2.55,11.24c-0.35,1.92,0.54,3.91,2.26,4.66
										c0.24,0.11,0.5,0.19,0.75,0.23c1.77,0.29,11.08,0.32,11.08,0.32l3.74,0.61L318.59,276.25z"/>
								</g>
							</g>
						</g>
					</g>
				</g>
			</g>
			<g>
				<g>
					<g>
						<g>
							<g>
								<g>
									<polygon style="fill:#EBEBEB;" points="324.99,276.07 321.24,290.68 317.53,290.08 319.89,275.55 									"/>
								</g>
							</g>
						</g>
					</g>
				</g>
			</g>
		</g>
	</g>
	<g id="XMLID_37_">
		<g id="XMLID_43_">
			<g>
				<path style="fill:#FF725E;" d="M342.59,412.14L342.59,412.14c-13.52,0-24.47-10.96-24.47-24.47v0
					c0-13.52,10.96-24.47,24.47-24.47l0,0c13.52,0,24.47,10.96,24.47,24.47v0C367.06,401.19,356.11,412.14,342.59,412.14z"/>
			</g>
		</g>
		<g id="XMLID_38_">
			<g id="XMLID_40_">
				<g>
					<path style="fill-rule:evenodd;clip-rule:evenodd;fill:#FFFFFF;" d="M356.01,386.99c-0.18-7.07-6-12.75-13.17-12.75
						c-7.08,0-12.86,5.55-13.17,12.51c-0.01,0.19-0.01,0.38-0.01,0.57c0,2.47,0.69,4.78,1.89,6.76l-2.38,7.02l7.3-2.32
						c1.89,1.04,4.06,1.63,6.37,1.63c7.28,0,13.18-5.86,13.18-13.08C356.01,387.21,356.01,387.1,356.01,386.99z M342.83,398.32
						c-2.25,0-4.34-0.67-6.1-1.82l-4.26,1.36l1.38-4.08c-1.33-1.81-2.11-4.04-2.11-6.45c0-0.36,0.02-0.72,0.06-1.07
						c0.54-5.57,5.28-9.93,11.03-9.93c5.82,0,10.6,4.47,11.04,10.14c0.02,0.28,0.04,0.57,0.04,0.86
						C353.92,393.39,348.94,398.32,342.83,398.32z"/>
				</g>
			</g>
			<g id="XMLID_39_">
				<g>
					<path style="fill-rule:evenodd;clip-rule:evenodd;fill:#FFFFFF;" d="M348.87,389.97c-0.33-0.16-1.91-0.94-2.21-1.04
						c-0.3-0.11-0.51-0.16-0.73,0.16c-0.22,0.32-0.84,1.04-1.02,1.25c-0.19,0.22-0.38,0.24-0.7,0.08c-0.32-0.16-1.36-0.49-2.6-1.59
						c-0.96-0.85-1.61-1.89-1.8-2.21c-0.18-0.32-0.02-0.49,0.14-0.65c0.15-0.15,0.32-0.38,0.49-0.56c0.04-0.06,0.08-0.11,0.12-0.15
						c0.07-0.12,0.13-0.23,0.2-0.38c0.11-0.22,0.06-0.4-0.02-0.56c-0.08-0.16-0.73-1.74-1-2.38c-0.27-0.64-0.54-0.53-0.73-0.53
						c-0.19,0-0.4-0.03-0.62-0.03c-0.22,0-0.57,0.08-0.86,0.4c-0.3,0.32-1.13,1.1-1.13,2.68c0,0.37,0.07,0.74,0.17,1.09
						c0.33,1.13,1.03,2.06,1.15,2.22c0.16,0.21,2.23,3.55,5.52,4.84c3.29,1.28,3.29,0.85,3.88,0.8c0.59-0.05,1.91-0.77,2.18-1.52
						c0.27-0.75,0.27-1.39,0.19-1.52C349.41,390.21,349.2,390.13,348.87,389.97z"/>
				</g>
			</g>
		</g>
	</g>
	<g id="XMLID_11_">
		<g id="XMLID_13_">
			<g>
				<path style="fill:#FF725E;" d="M275.8,255.24L275.8,255.24c-10.42,0-18.86-8.44-18.86-18.86l0,0c0-10.42,8.44-18.86,18.86-18.86
					h0c10.42,0,18.86,8.44,18.86,18.86l0,0C294.66,246.79,286.21,255.24,275.8,255.24z"/>
			</g>
		</g>
		<g id="XMLID_12_">
			<g>
				<path style="fill:#FFFFFF;" d="M269.76,238.13c0.29,0.12,0.56,0.01,0.64-0.32c0.06-0.23,0.2-0.8,0.26-1.03
					c0.09-0.32,0.05-0.44-0.19-0.72c-0.52-0.61-0.85-1.4-0.85-2.52c0-3.25,2.43-6.16,6.33-6.16c3.45,0,5.35,2.11,5.35,4.93
					c0,3.71-1.64,6.84-4.08,6.84c-1.35,0-2.35-1.11-2.03-2.48c0.39-1.63,1.14-3.39,1.14-4.57c0-1.05-0.57-1.93-1.74-1.93
					c-1.38,0-2.48,1.42-2.48,3.33c0,1.21,0.41,2.04,0.41,2.04s-1.41,5.97-1.66,7.01c-0.49,2.08-0.07,4.63-0.04,4.89
					c0.02,0.15,0.22,0.19,0.31,0.07c0.13-0.17,1.77-2.19,2.32-4.21c0.16-0.57,0.91-3.54,0.91-3.54c0.45,0.85,1.75,1.6,3.14,1.6
					c4.14,0,6.94-3.77,6.94-8.82c0-3.82-3.23-7.37-8.15-7.37c-6.11,0-9.2,4.38-9.2,8.04C267.13,235.43,267.96,237.4,269.76,238.13z"
					/>
			</g>
		</g>
	</g>
	<g id="XMLID_14_">
		<g id="XMLID_36_">
			<g>
				<path style="fill:#455A64;" d="M253.14,345.33L253.14,345.33c-14.26,0-25.82-11.56-25.82-25.82l0,0
					c0-14.26,11.56-25.82,25.82-25.82h0c14.26,0,25.82,11.56,25.82,25.82l0,0C278.96,333.77,267.4,345.33,253.14,345.33z"/>
			</g>
		</g>
		<g id="XMLID_16_">
			<g id="XMLID_1_">
				<g>
					<path style="fill:#FFFFFF;" d="M253.14,307.9c3.78,0,4.23,0.01,5.72,0.08c1.38,0.06,2.13,0.29,2.63,0.49
						c0.66,0.26,1.13,0.56,1.63,1.06c0.5,0.5,0.8,0.97,1.06,1.63c0.19,0.5,0.42,1.25,0.49,2.63c0.07,1.49,0.08,1.94,0.08,5.72
						c0,3.78-0.01,4.23-0.08,5.72c-0.06,1.38-0.29,2.13-0.49,2.63c-0.26,0.66-0.56,1.13-1.06,1.63c-0.5,0.5-0.97,0.8-1.63,1.06
						c-0.5,0.19-1.25,0.42-2.63,0.49c-1.49,0.07-1.94,0.08-5.72,0.08c-3.78,0-4.23-0.01-5.72-0.08c-1.38-0.06-2.13-0.29-2.63-0.49
						c-0.66-0.26-1.13-0.56-1.63-1.06c-0.5-0.5-0.8-0.97-1.06-1.63c-0.19-0.5-0.42-1.25-0.49-2.63c-0.07-1.49-0.08-1.94-0.08-5.72
						c0-3.78,0.01-4.23,0.08-5.72c0.06-1.38,0.29-2.13,0.49-2.63c0.26-0.66,0.56-1.13,1.06-1.63c0.5-0.5,0.97-0.8,1.63-1.06
						c0.5-0.19,1.25-0.42,2.63-0.49C248.91,307.91,249.36,307.9,253.14,307.9 M253.14,305.35c-3.85,0-4.33,0.02-5.84,0.09
						c-1.51,0.07-2.54,0.31-3.44,0.66c-0.93,0.36-1.72,0.85-2.51,1.63c-0.79,0.79-1.27,1.58-1.63,2.51
						c-0.35,0.9-0.59,1.93-0.66,3.44c-0.07,1.51-0.09,1.99-0.09,5.84s0.02,4.33,0.09,5.84c0.07,1.51,0.31,2.54,0.66,3.44
						c0.36,0.93,0.85,1.72,1.63,2.51c0.79,0.79,1.58,1.27,2.51,1.63c0.9,0.35,1.93,0.59,3.44,0.66c1.51,0.07,1.99,0.09,5.84,0.09
						c3.85,0,4.33-0.02,5.84-0.09c1.51-0.07,2.54-0.31,3.44-0.66c0.93-0.36,1.72-0.85,2.51-1.63c0.79-0.79,1.27-1.58,1.63-2.51
						c0.35-0.9,0.59-1.93,0.66-3.44c0.07-1.51,0.08-1.99,0.08-5.84s-0.02-4.33-0.08-5.84c-0.07-1.51-0.31-2.54-0.66-3.44
						c-0.36-0.93-0.85-1.72-1.63-2.51s-1.58-1.27-2.51-1.63c-0.9-0.35-1.93-0.59-3.44-0.66
						C257.47,305.36,256.98,305.35,253.14,305.35"/>
				</g>
			</g>
			<g id="XMLID_18_">
				<g>
					<path style="fill:#FFFFFF;" d="M253.14,312.23c-4.02,0-7.27,3.26-7.27,7.27c0,4.02,3.26,7.27,7.27,7.27
						c4.02,0,7.27-3.26,7.27-7.27C260.41,315.49,257.15,312.23,253.14,312.23 M253.14,324.22c-2.61,0-4.72-2.11-4.72-4.72
						c0-2.61,2.11-4.72,4.72-4.72c2.61,0,4.72,2.11,4.72,4.72C257.86,322.11,255.74,324.22,253.14,324.22"/>
				</g>
			</g>
			<g id="XMLID_17_">
				<g>
					<path style="fill:#FFFFFF;" d="M262.39,311.95c0,0.94-0.76,1.7-1.7,1.7c-0.94,0-1.7-0.76-1.7-1.7c0-0.94,0.76-1.7,1.7-1.7
						C261.63,310.25,262.39,311.01,262.39,311.95"/>
				</g>
			</g>
		</g>
	</g>
	<g id="XMLID_1419_">
		<g id="XMLID_1421_">
			<g>
				<path style="fill:#455A64;" d="M316.07,179.84L316.07,179.84c-8.59,0-15.55-6.96-15.55-15.55l0,0c0-8.59,6.96-15.55,15.55-15.55
					l0,0c8.59,0,15.55,6.96,15.55,15.55l0,0C331.62,172.87,324.66,179.84,316.07,179.84z"/>
			</g>
		</g>
		<g id="XMLID_1420_">
			<g>
				<path style="fill:#FFFFFF;" d="M313.7,173.68h3.79v-9.48h2.64l0.28-3.17h-2.92c0,0,0-1.19,0-1.81c0-0.75,0.15-1.04,0.87-1.04
					c0.58,0,2.05,0,2.05,0v-3.29c0,0-2.16,0-2.62,0c-2.82,0-4.09,1.24-4.09,3.62c0,2.07,0,2.53,0,2.53h-1.97v3.21h1.97V173.68z"/>
			</g>
		</g>
	</g>
	<g>
		<g>
			<g>
				<polygon style="fill:#FAFAFA;" points="285.58,60.14 303.78,36.8 308.23,66.16 332.24,65.34 314.44,88.72 338.08,106.99 
					307.9,95.78 303.68,125.17 283.44,105.46 257.92,123.2 263.51,97.41 234.55,92.85 257.07,79.56 243.94,56.92 266.8,69.87 
					269.19,37.79 				"/>
			</g>
		</g>
		<g>
			<g>
				<g>
					<path style="fill:#263238;" d="M314.44,88.72c0,0,0.56,0.41,1.62,1.22c1.06,0.81,2.63,2.01,4.69,3.58
						c4.1,3.15,10.12,7.77,17.84,13.69l0.61,0.47l-0.71-0.29c-4.12-1.7-8.81-3.39-13.95-5.18c-5.14-1.8-10.73-3.7-16.57-6.1
						l0.19-0.11c-1.34,8.75-2.85,18.6-4.47,29.16l-0.05,0.32l-0.23-0.23c-6.33-6.21-13.1-12.85-20.2-19.81l0.23,0.02
						c-8,5.56-16.41,11.4-25.12,17.46l-0.4,0.28l0.1-0.48c1.66-8.05,3.44-16.61,5.25-25.37l0.17,0.22
						c-9.17-1.44-18.88-2.96-28.77-4.52l-0.57-0.09l0.5-0.29c6.23-3.62,12.85-7.47,19.55-11.36c1.01-0.59,2.03-1.18,3.04-1.77
						l-0.07,0.3c-2.5-3.64-4.7-7.42-6.84-11.19c-2.14-3.77-4.19-7.55-6.18-11.32l-0.32-0.61l0.6,0.34
						c7.77,4.37,15.39,8.66,22.84,12.85l-0.3,0.16c0.38-5.59,0.76-11.08,1.13-16.49c0.17-2.7,0.33-5.38,0.49-8.03
						c0.07-1.33,0.14-2.65,0.2-3.96c0.02-0.66,0.05-1.31,0.07-1.97l0.02-0.98l0-0.48c0-0.14-0.03-0.36-0.02-0.38l0.24-0.32l0.07,0.1
						c5.78,7.91,11.33,15.51,16.63,22.77l-0.28,0c6.4-8.37,12.42-16.25,18.03-23.59l0.22-0.29l0.06,0.36
						c1.73,10.77,3.29,20.49,4.69,29.2l-0.14-0.11c9.27-0.29,17.16-0.54,23.9-0.75l0.21-0.01l-0.13,0.17
						c-5.78,7.58-10.24,13.43-13.25,17.39c-1.51,1.98-2.66,3.48-3.44,4.5C314.85,88.2,314.44,88.72,314.44,88.72
						s0.37-0.51,1.13-1.53c0.77-1.02,1.9-2.53,3.39-4.51c3-3.98,7.44-9.87,13.2-17.5l0.08,0.16c-6.74,0.23-14.62,0.5-23.89,0.81
						l-0.12,0l-0.02-0.11c-1.42-8.7-3-18.42-4.75-29.19l0.28,0.07c-5.6,7.35-11.61,15.24-18,23.62l-0.14,0.19l-0.14-0.19
						c-5.31-7.25-10.86-14.84-16.65-22.75l0.31-0.22c0.11,0.29,0.07,0.41,0.09,0.59l0,0.5l-0.02,0.99
						c-0.02,0.66-0.05,1.31-0.07,1.97c-0.07,1.32-0.13,2.64-0.2,3.97c-0.16,2.65-0.32,5.33-0.49,8.04
						c-0.37,5.4-0.74,10.9-1.13,16.49l-0.02,0.31l-0.28-0.15c-7.45-4.19-15.07-8.47-22.85-12.84l0.28-0.27
						c1.99,3.76,4.04,7.54,6.18,11.31c2.14,3.76,4.34,7.54,6.82,11.15l0.13,0.18l-0.19,0.11c-1.01,0.59-2.02,1.18-3.04,1.77
						c-6.7,3.89-13.31,7.74-19.55,11.36l-0.07-0.38c9.89,1.56,19.59,3.08,28.76,4.53l0.21,0.03l-0.04,0.19
						c-1.82,8.77-3.6,17.35-5.27,25.4l-0.3-0.2c8.71-6.05,17.12-11.88,25.13-17.44l0.12-0.09l0.11,0.11
						c7.09,6.97,13.86,13.62,20.18,19.84l-0.28,0.09c1.64-10.56,3.16-20.4,4.52-29.15l0.03-0.18l0.17,0.07
						c5.82,2.41,11.41,4.31,16.55,6.13c5.14,1.8,9.83,3.5,13.95,5.22l-0.1,0.17c-7.71-5.98-13.72-10.64-17.82-13.82
						c-2.03-1.58-3.59-2.79-4.64-3.61C314.97,89.14,314.44,88.72,314.44,88.72z"/>
				</g>
			</g>
		</g>
		<g>
			<g>
				<g>
					<path style="fill:#263238;" d="M283.32,83.76c0,1.33-1.07,2.4-2.4,2.4c-1.33,0-2.4-1.07-2.4-2.4s1.07-2.4,2.4-2.4
						C282.25,81.36,283.32,82.43,283.32,83.76z"/>
				</g>
			</g>
			<g>
				<g>
					<path style="fill:#263238;" d="M290.65,83.76c0,1.33-1.07,2.4-2.4,2.4s-2.4-1.07-2.4-2.4s1.07-2.4,2.4-2.4
						S290.65,82.43,290.65,83.76z"/>
				</g>
			</g>
			<g>
				<g>
					<path style="fill:#263238;" d="M297.98,83.76c0,1.33-1.07,2.4-2.4,2.4c-1.33,0-2.4-1.07-2.4-2.4s1.07-2.4,2.4-2.4
						C296.9,81.36,297.98,82.43,297.98,83.76z"/>
				</g>
			</g>
		</g>
	</g>
	<g>
		<g>
			<g>
				<g>
					<path style="fill:#263238;" d="M525.54,461.01H391.28c-11.55,0-20.91-9.36-20.91-20.91V64.38c0-11.55,9.36-20.91,20.91-20.91
						h134.26c11.55,0,20.91,9.36,20.91,20.91V440.1C546.46,451.65,537.09,461.01,525.54,461.01z"/>
				</g>
			</g>
			<g>
				<g>
					<path style="fill:#455A64;" d="M509.66,461.18H378.68c-12.46,0-22.55-10.1-22.55-22.55V66.19c0-12.46,10.1-22.55,22.55-22.55
						h130.98c12.46,0,22.55,10.1,22.55,22.55v372.43C532.21,451.08,522.11,461.18,509.66,461.18z"/>
				</g>
			</g>
			<g>
				<g>
					<g>
						<g>
							<g>
								<g>
									<g>
										<path style="fill:#FFFFFF;" d="M505.66,50.3l-23.92-0.03c-3.21,0-5.81,3.21-5.81,7.19l0,5.14c0,3.97-2.6,7.19-5.8,7.19
											l-46.63-0.07c-3.21,0-5.81-3.23-5.81-7.2l0-5.14c0-3.97-2.6-7.2-5.81-7.2l-8.41-0.01l-20.94-0.03
											c-10.4-0.01-18.83,9.96-18.82,22.28l0.17,357.7c0.01,12.31,8.43,22.3,18.83,22.32l123.14,0.18
											c10.4,0.02,18.82-9.96,18.82-22.28l-0.17-357.7C524.48,60.31,516.06,50.32,505.66,50.3z"/>
									</g>
								</g>
								<g>
									<g>
										<g>
											<path style="fill:#263238;" d="M505.66,50.3c0,0,0.24,0.01,0.73,0.03c0.48,0.03,1.21,0.03,2.15,0.23
												c1.87,0.32,4.68,1.2,7.65,3.49c1.44,1.19,2.91,2.7,4.22,4.6c1.32,1.9,2.41,4.21,3.16,6.83c0.37,1.31,0.66,2.71,0.82,4.17
												c0.17,1.46,0.19,2.99,0.19,4.56c0.01,3.14,0.01,6.48,0.02,10.02c0.03,28.32,0.08,69.29,0.14,119.91
												c0.04,50.63,0.09,110.91,0.14,177.85c0.01,8.37,0.01,16.84,0.02,25.41c0,4.28,0.01,8.59,0.01,12.93c0,2.17,0,4.34,0,6.52
												c-0.01,2.17,0.07,4.37-0.2,6.57c-0.22,2.2-0.8,4.36-1.6,6.43c-0.8,2.08-1.91,4.04-3.3,5.79
												c-1.38,1.75-3.04,3.31-4.94,4.53c-1.9,1.21-4.06,2.04-6.29,2.42c-2.26,0.37-4.51,0.22-6.75,0.25
												c-2.25,0-4.5-0.01-6.75-0.01c-4.51-0.01-9.04-0.01-13.6-0.02c-18.21-0.02-36.74-0.05-55.55-0.08
												c-9.4-0.01-18.88-0.03-28.41-0.04c-4.77-0.01-9.55-0.01-14.35-0.02c-2.42,0.01-4.88-0.44-7.11-1.44
												c-2.24-0.98-4.25-2.45-5.94-4.21c-3.42-3.52-5.46-8.19-6.18-12.97c-0.41-2.4-0.29-4.83-0.31-7.21c0-2.39,0-4.78,0-7.17
												c0-9.54-0.01-19.01-0.01-28.42c-0.01-18.81-0.01-37.35-0.02-55.56c-0.01-36.43-0.02-71.57-0.03-105.04
												c-0.01-33.47-0.01-65.28-0.02-95.05c0-14.88,0-29.26-0.01-43.08c0-6.91,0-13.68,0.01-20.3
												c0.06-6.64,2.61-13.24,7.36-17.57c2.36-2.13,5.2-3.76,8.28-4.35c0.77-0.14,1.53-0.3,2.31-0.31
												c0.78-0.06,1.54-0.07,2.3-0.06c1.52,0,3.04,0.01,4.54,0.01c6.02,0.01,11.88,0.02,17.59,0.03c1.43,0,2.84,0.01,4.25,0.01
												c0.71,0.01,1.39-0.02,2.11,0.03c0.72,0.06,1.42,0.28,2.04,0.62c1.26,0.69,2.18,1.84,2.76,3.1
												c0.58,1.26,0.81,2.67,0.78,4.02c0,1.34,0,2.67,0,4c-0.03,1.32,0.08,2.61,0.56,3.81c0.45,1.19,1.2,2.27,2.21,3.01
												c0.5,0.36,1.05,0.67,1.65,0.82c0.6,0.17,1.2,0.19,1.84,0.18c10.05,0.02,19.41,0.04,28.03,0.06
												c4.31,0.01,8.43,0.02,12.36,0.03c1.96,0,3.88,0.01,5.75,0.01c1.85-0.03,3.47-1.21,4.37-2.69
												c0.94-1.48,1.29-3.22,1.23-4.87c0-1.67,0.01-3.29,0.01-4.86c0.03-1.58,0.49-3.11,1.3-4.35c0.81-1.23,2-2.19,3.35-2.54
												c0.67-0.18,1.36-0.16,2.01-0.16c0.65,0,1.3,0,1.92,0.01c1.26,0,2.46,0.01,3.61,0.01c2.3,0.01,4.38,0.02,6.25,0.02
												c3.72,0.02,6.56,0.03,8.48,0.04C504.68,50.28,505.66,50.3,505.66,50.3s-0.98,0.02-2.89,0.02c-1.91,0-4.75,0.01-8.48,0.01
												c-1.86,0-3.95,0-6.25,0c-1.15,0-2.35,0-3.61,0c-0.63,0-1.27,0-1.92,0c-0.66,0-1.32-0.02-1.97,0.16
												c-1.31,0.34-2.46,1.28-3.25,2.48c-0.78,1.22-1.23,2.71-1.26,4.26c0,1.57,0,3.19,0,4.86c0.07,1.67-0.29,3.46-1.25,4.98
												c-0.93,1.52-2.6,2.76-4.54,2.79c-1.87,0-3.79,0-5.75,0c-3.93,0-8.05,0-12.36-0.01c-8.61-0.01-17.97-0.01-28.03-0.02
												c-0.62,0.01-1.29-0.01-1.92-0.18c-0.64-0.16-1.22-0.48-1.75-0.87c-1.06-0.78-1.84-1.9-2.32-3.14
												c-0.51-1.23-0.62-2.6-0.59-3.92c0-1.32,0-2.65,0-4c0.03-1.33-0.19-2.67-0.75-3.88c-0.56-1.21-1.45-2.3-2.63-2.95
												c-0.59-0.32-1.24-0.52-1.91-0.58c-0.67-0.05-1.39-0.01-2.09-0.02c-1.4,0-2.82,0-4.25,0c-5.7-0.01-11.57-0.01-17.59-0.02
												c-1.51,0-3.02,0-4.54,0c-0.76-0.01-1.53,0-2.28,0.06c-0.76,0.01-1.51,0.16-2.26,0.3c-3.01,0.58-5.79,2.18-8.11,4.27
												c-4.66,4.25-7.17,10.75-7.22,17.3c0,6.62,0.01,13.39,0.01,20.3c0.01,13.82,0.02,28.19,0.04,43.08
												c0.02,29.77,0.04,61.58,0.07,95.05c0.02,33.47,0.04,68.61,0.06,105.04c0.01,18.21,0.02,36.75,0.03,55.56
												c0,9.41,0.01,18.88,0.01,28.42c0,2.38,0,4.77,0,7.17c0.03,2.4-0.09,4.79,0.31,7.13c0.71,4.68,2.71,9.26,6.05,12.69
												c1.65,1.71,3.61,3.14,5.78,4.09c2.17,0.97,4.53,1.41,6.9,1.4c4.8,0.01,9.58,0.01,14.35,0.02
												c9.54,0.01,19.01,0.03,28.41,0.04c18.81,0.03,37.34,0.06,55.55,0.08c4.55,0.01,9.08,0.01,13.6,0.02
												c2.26,0,4.51,0.01,6.75,0.01c2.24-0.03,4.5,0.12,6.66-0.24c2.17-0.36,4.26-1.17,6.11-2.35c1.85-1.19,3.46-2.71,4.81-4.42
												c1.36-1.71,2.45-3.63,3.23-5.67c0.79-2.03,1.36-4.15,1.57-6.31c0.26-2.15,0.19-4.33,0.2-6.51c0-2.18,0-4.35,0-6.52
												c0-4.33,0-8.64,0-12.93c0-8.57,0-17.04-0.01-25.41c-0.01-66.94-0.02-127.22-0.03-177.85
												c0.01-50.62,0.02-91.59,0.03-119.91c0-3.54,0-6.88,0.01-10.02c0-1.57-0.01-3.09-0.18-4.54c-0.15-1.45-0.44-2.84-0.8-4.15
												c-0.74-2.61-1.82-4.91-3.12-6.8c-1.29-1.9-2.75-3.4-4.18-4.59c-2.94-2.3-5.73-3.19-7.59-3.52
												c-0.93-0.21-1.66-0.22-2.14-0.26C505.91,50.33,505.66,50.3,505.66,50.3z"/>
										</g>
									</g>
								</g>
							</g>
						</g>
					</g>
				</g>
			</g>
		</g>
	</g>
	<g>
		<g>
			<g>
				<polygon style="fill:#AA6550;" points="405.56,415.22 402.94,454.13 419.73,456.19 427.78,416.45 				"/>
			</g>
		</g>
		<g>
			<g>
				<g>
					<g>
						<g>
							<path style="fill:#FF725E;" d="M403.15,448.99l-0.15,1.11c0,0-19.92,5.06-20.61,8.62l37.57,4.84l1.1-12.57
								C415.13,452.86,409.25,452.4,403.15,448.99z"/>
						</g>
					</g>
				</g>
			</g>
		</g>
		<g>
			<g>
				<g>
					<g>
						<g>
							<g>
								<path style="fill:#FFFFFF;" d="M416.73,454.5c0.7,0.29,1.1,1.17,0.84,1.89c-0.26,0.71-1.16,1.12-1.86,0.84
									c-0.71-0.28-1.22-1.32-0.87-2c0.34-0.68,1.42-1.1,2.04-0.66"/>
							</g>
						</g>
					</g>
				</g>
			</g>
		</g>
		<g>
			<g>
				<g>
					<g>
						<g>
							<path style="fill:#FFFFFF;" d="M419.95,463.56l0.26-3.02l-36.1-3.53c0,0-1.77,0.51-1.73,1.71L419.95,463.56z"/>
						</g>
					</g>
				</g>
			</g>
		</g>
		<g>
			<g>
				<g>
					<g>
						<g>
							<g>
								<path style="fill:#263238;" d="M402.85,450.19c-0.02,0.18,0.89,0.39,1.72,1.09c0.85,0.68,1.21,1.54,1.39,1.49
									c0.17-0.01,0.04-1.15-0.97-1.98C403.97,449.94,402.83,450.02,402.85,450.19z"/>
							</g>
						</g>
					</g>
				</g>
			</g>
		</g>
		<g>
			<g>
				<g>
					<g>
						<g>
							<g>
								<path style="fill:#263238;" d="M398.7,451.31c-0.06,0.17,0.69,0.59,1.21,1.44c0.55,0.84,0.6,1.7,0.78,1.72
									c0.17,0.05,0.43-1.01-0.24-2.06C399.79,451.35,398.72,451.14,398.7,451.31z"/>
							</g>
						</g>
					</g>
				</g>
			</g>
		</g>
		<g>
			<g>
				<g>
					<g>
						<g>
							<g>
								<path style="fill:#263238;" d="M395.85,455.74c0.16,0.06,0.53-0.82,0.19-1.89c-0.33-1.07-1.15-1.58-1.25-1.43
									c-0.12,0.14,0.36,0.75,0.63,1.63C395.72,454.92,395.67,455.7,395.85,455.74z"/>
							</g>
						</g>
					</g>
				</g>
			</g>
		</g>
		<g>
			<g>
				<g>
					<path style="fill:#263238;" d="M473.4,102.02c0.42-2.69,2.84-4.75,5.48-5.4c2.64-0.65,5.44-0.11,8,0.81
						c2.87,1.02,5.62,2.55,7.69,4.79c2.07,2.24,3.41,5.25,3.25,8.29c-0.15,2.86-1.58,5.72-0.78,8.47c0.6,2.09,2.37,3.61,4.14,4.87
						c1.77,1.26,3.69,2.44,4.88,4.25c1.19,1.82,1.39,4.52-0.22,5.98c-1.43,1.3-4,1.45-4.6,3.28c-0.37,1.14,0.26,2.33,0.61,3.47
						c0.74,2.42,0.17,5.13-1.17,7.28c-1.34,2.15-3.37,3.8-5.58,5.05c-3.87,2.19-8.7,3.21-12.78,1.46c-2.02-0.86-3.75-2.36-5.04-4.14
						c-2.15-2.96-3.11-6.66-3.34-10.31c-0.22-3.65,0.24-7.31,0.71-10.94"/>
				</g>
			</g>
			<g>
				<g>
					<g>
						<path style="fill:#263238;" d="M471.98,145.5c3.37,0.93,7.16,0.18,9.91-1.97c2.76-2.15,4.41-5.64,4.33-9.13
							c-0.07-3.26-1.55-6.59-0.54-9.69c0.7-2.13,2.48-3.79,3.08-5.95c0.89-3.22-1.05-6.48-2.92-9.26c-1.19-1.78-2.41-3.59-4.08-4.95
							c-1.66-1.35-3.87-2.21-5.97-1.76"/>
					</g>
				</g>
			</g>
			<g>
				<g>
					<g>
						<g>
							<path style="fill:#263238;" d="M441.9,103.07c0.18,2.46-1.44,4.66-3.08,6.51c-1.64,1.85-3.46,3.77-3.82,6.22
								c-0.63,4.33,3.61,8.35,2.74,12.64c-0.47,2.3-2.35,4.14-2.69,6.46c-0.32,2.24,0.88,4.44,2.37,6.15
								c1.49,1.71,3.31,3.13,4.63,4.98c0,0,2.75,4.51,11.2,1.62"/>
						</g>
					</g>
				</g>
			</g>
			<g>
				<g>
					<g>
						<g>
							<path style="fill:#263238;" d="M479.74,106.83c0.06-2.23-2-3.96-4.08-4.78c-2.08-0.82-4.39-1.13-6.24-2.37
								c-1.64-1.1-2.74-2.83-4.13-4.24c-3.41-3.45-8.73-4.89-13.41-3.61c-4.68,1.28-8.54,5.21-9.72,9.92
								c-0.8,3.18-0.25,6.94,2.25,9.05c2.91,2.45,7.22,1.91,10.95,1.15c3.73-0.76,7.95-1.52,11.06,0.67
								c1.88,1.32,2.95,3.47,4.1,5.46c1.15,1.99,2.59,4.02,4.76,4.76c2.17,0.75,5.12-0.54,5.2-2.84"/>
						</g>
					</g>
				</g>
			</g>
			<g>
				<g>
					<g>
						<g>
							<g>
								<g>
									<g>
										<g>
											<g>
												<g>
													<g>
														<g>
															<g>
																<g>
																	<g>
																		<g>
																			<g>
																				<path style="fill:#AA6550;" d="M470.94,107.29c1.93,0.21,3.38,1.86,3.34,3.8l0,0l-2.23,50.47
																					c-0.09,5.96-8.81,9.31-15.19,9.16l0,0c-6.44-0.15-6.65-3.31-6.73-8.98c-0.13-9.47-0.12-13.03-0.13-12.98
																					c0,0-8.14-1.37-9.8-12c-0.83-5.29-0.54-13.95-0.08-21.03c0.42-6.37,4.66-14.18,11.01-13.5L470.94,107.29z"/>
																			</g>
																		</g>
																	</g>
																</g>
															</g>
														</g>
													</g>
												</g>
											</g>
										</g>
										<g>
											<g>
												<g>
													<g>
														<g>
															<g>
																<g>
																	<g>
																		<g>
																			<g>
																				<g>
																					<path style="fill:#263238;" d="M441.99,122.73c-0.03,0.72,0.56,1.34,1.31,1.38c0.75,0.04,1.38-0.51,1.41-1.23
																						c0.03-0.72-0.56-1.34-1.31-1.38C442.65,121.46,442.02,122.01,441.99,122.73z"/>
																				</g>
																			</g>
																		</g>
																	</g>
																</g>
															</g>
														</g>
													</g>
												</g>
											</g>
											<g>
												<g>
													<g>
														<g>
															<g>
																<g>
																	<g>
																		<g>
																			<g>
																				<g>
																					<g>
																						<path style="fill:#263238;" d="M441.64,119.1c0.17,0.18,1.2-0.58,2.67-0.58c1.46-0.01,2.54,0.74,2.7,0.56
																							c0.08-0.08-0.09-0.4-0.56-0.74c-0.46-0.34-1.25-0.67-2.16-0.67c-0.91,0-1.68,0.34-2.12,0.68
																							C441.71,118.7,441.56,119.02,441.64,119.1z"/>
																					</g>
																				</g>
																			</g>
																		</g>
																	</g>
																</g>
															</g>
														</g>
													</g>
												</g>
											</g>
										</g>
										<g>
											<g>
												<g>
													<g>
														<g>
															<g>
																<g>
																	<g>
																		<g>
																			<g>
																				<g>
																					<path style="fill:#263238;" d="M455.61,122.99c-0.03,0.72,0.56,1.34,1.31,1.38c0.75,0.04,1.38-0.51,1.41-1.23
																						c0.03-0.72-0.56-1.34-1.31-1.38C456.27,121.72,455.64,122.27,455.61,122.99z"/>
																				</g>
																			</g>
																		</g>
																	</g>
																</g>
															</g>
														</g>
													</g>
												</g>
											</g>
											<g>
												<g>
													<g>
														<g>
															<g>
																<g>
																	<g>
																		<g>
																			<g>
																				<g>
																					<g>
																						<path style="fill:#263238;" d="M456.39,119.82c0.17,0.18,1.2-0.58,2.67-0.58c1.46-0.01,2.54,0.74,2.7,0.56
																							c0.08-0.08-0.09-0.4-0.56-0.74c-0.46-0.34-1.25-0.67-2.16-0.67c-0.91,0-1.68,0.34-2.12,0.68
																							C456.46,119.42,456.31,119.74,456.39,119.82z"/>
																					</g>
																				</g>
																			</g>
																		</g>
																	</g>
																</g>
															</g>
														</g>
													</g>
												</g>
											</g>
										</g>
										<g>
											<g>
												<g>
													<g>
														<g>
															<g>
																<g>
																	<g>
																		<g>
																			<g>
																				<g>
																					<path style="fill:#263238;" d="M451.05,131.41c0.01-0.08-0.9-0.24-2.38-0.43c-0.37-0.04-0.73-0.11-0.79-0.37
																						c-0.09-0.27,0.07-0.67,0.25-1.11c0.35-0.91,0.72-1.85,1.11-2.85c1.55-4.06,2.67-7.39,2.5-7.45
																						c-0.16-0.06-1.55,3.18-3.1,7.23c-0.37,1-0.73,1.95-1.07,2.87c-0.14,0.42-0.39,0.91-0.2,1.47
																						c0.1,0.28,0.37,0.48,0.61,0.55c0.24,0.07,0.45,0.08,0.64,0.09C450.12,131.49,451.04,131.5,451.05,131.41z"/>
																				</g>
																			</g>
																		</g>
																	</g>
																</g>
															</g>
														</g>
													</g>
												</g>
											</g>
										</g>
										<g>
											<g>
												<g>
													<g>
														<g>
															<g>
																<g>
																	<g>
																		<g>
																			<g>
																				<path style="fill:#724940;" d="M449.99,148.76c0,0,7.15,0.48,14.24-3.76c0,0-3.61,7.3-14.24,6.28V148.76z"/>
																			</g>
																		</g>
																	</g>
																</g>
															</g>
														</g>
													</g>
												</g>
											</g>
										</g>
									</g>
								</g>
							</g>
							<g>
								<g>
									<g>
										<g>
											<g>
												<g>
													<g>
														<g>
															<g>
																<g>
																	<path style="fill:#263238;" d="M455.75,116.26c0.14,0.4,1.61,0.21,3.33,0.42c1.72,0.18,3.11,0.68,3.34,0.33
																		c0.1-0.17-0.14-0.55-0.7-0.93c-0.56-0.39-1.44-0.75-2.47-0.87c-1.03-0.12-1.98,0.05-2.61,0.3
																		C456.01,115.76,455.69,116.07,455.75,116.26z"/>
																</g>
															</g>
														</g>
													</g>
												</g>
											</g>
										</g>
									</g>
								</g>
							</g>
							<g>
								<g>
									<g>
										<g>
											<g>
												<g>
													<g>
														<g>
															<g>
																<g>
																	<path style="fill:#263238;" d="M441.86,115.85c0.29,0.33,1.44-0.01,2.82-0.02c1.38-0.06,2.54,0.23,2.81-0.12
																		c0.12-0.17-0.06-0.5-0.57-0.82c-0.5-0.32-1.34-0.57-2.29-0.55c-0.95,0.02-1.77,0.32-2.25,0.66
																		C441.89,115.34,441.73,115.68,441.86,115.85z"/>
																</g>
															</g>
														</g>
													</g>
												</g>
											</g>
										</g>
									</g>
								</g>
							</g>
						</g>
					</g>
				</g>
			</g>
			<g>
				<g>
					<g>
						<g>
							<path style="fill:#263238;" d="M478.36,142.25c-2.92,0.59-6.1-0.31-8.29-2.34c-2.18-2.03-3.31-5.14-2.94-8.1
								c0.33-2.61,1.74-5.26,0.83-7.73c-1.2-3.27-5.77-4.27-6.99-7.53c-0.71-1.89-0.07-4.11-0.87-5.97
								c-0.75-1.75-2.59-2.75-4.38-3.4c-1.79-0.65-3.7-1.09-5.2-2.26c-1.5-1.17-2.44-3.37-1.47-5c7.93,0.95,15.74,2.85,23.22,5.64
								c1.73,0.65,3.56,1.43,4.58,2.97c1.08,1.63,1.03,3.74,0.94,5.69c-0.45,9.54-0.89,19.08-1.34,28.62"/>
						</g>
					</g>
				</g>
			</g>
			<g>
				<g>
					<g>
						<g>
							<path style="fill:#455A64;" d="M483.97,107.73c0,0,0.12,0.12,0.18,0.43c0.06,0.31-0.02,0.81-0.41,1.28
								c-0.38,0.45-1.02,0.91-1.9,0.96c-0.87,0.02-1.78-0.36-2.69-0.81c-0.91-0.46-1.92-0.87-3.1-0.92
								c-1.17-0.07-2.43,0.11-3.75,0.34c-1.32,0.23-2.73,0.53-4.24,0.55c-1.49,0.02-3.17-0.43-4.35-1.59
								c-1.19-1.13-1.87-2.57-2.51-3.89c-0.63-1.33-1.22-2.61-2.03-3.65c-1.57-2.14-4.25-2.73-6.13-2.24
								c-1.94,0.49-3.11,1.81-3.7,2.74c-0.6,0.96-0.73,1.59-0.78,1.57c-0.02,0,0-0.16,0.08-0.46c0.08-0.29,0.23-0.72,0.51-1.23
								c0.55-0.99,1.72-2.42,3.79-3c1.02-0.28,2.22-0.3,3.41,0.07c1.2,0.34,2.36,1.13,3.22,2.23c0.87,1.09,1.48,2.41,2.12,3.73
								c0.64,1.31,1.31,2.69,2.39,3.72c1.07,1.05,2.56,1.46,3.98,1.45c1.43,0,2.82-0.29,4.15-0.51c1.33-0.22,2.64-0.39,3.87-0.3
								c1.24,0.07,2.35,0.54,3.24,1.02c0.9,0.47,1.74,0.84,2.51,0.85c0.76-0.01,1.39-0.4,1.75-0.79c0.37-0.4,0.48-0.84,0.46-1.13
								C484.02,107.88,483.94,107.74,483.97,107.73z"/>
						</g>
					</g>
				</g>
			</g>
			<g>
				<g>
					<g>
						<g>
							<path style="fill:#455A64;" d="M485.17,108.74c-0.14,0.12-1.76-2.59-5.03-4.43c-3.24-1.9-6.4-1.93-6.37-2.11
								c0-0.06,0.78-0.15,2.02,0.02c1.24,0.17,2.94,0.65,4.62,1.61c1.67,0.96,2.95,2.19,3.72,3.18
								C484.9,107.99,485.22,108.71,485.17,108.74z"/>
						</g>
					</g>
				</g>
			</g>
			<g>
				<g>
					<g>
						<path style="fill:#455A64;" d="M473.24,101.65c0.02,0.01-0.03,0.12-0.15,0.31c-0.13,0.18-0.33,0.46-0.68,0.72
							c-0.68,0.53-1.95,1.02-3.52,0.78c-1.57-0.24-3.18-1.32-4.6-2.74c-1.44-1.4-2.77-3.2-4.73-4.31c-1.95-1.1-4.23-1.26-6.1-0.78
							c-1.89,0.47-3.34,1.62-4.26,2.76c-0.93,1.15-1.39,2.3-1.62,3.09c-0.23,0.8-0.28,1.27-0.32,1.27c-0.02,0-0.02-0.12-0.01-0.34
							c0.01-0.22,0.04-0.56,0.13-0.97c0.18-0.83,0.59-2.04,1.52-3.28c0.92-1.22,2.42-2.47,4.43-3c1.98-0.54,4.4-0.39,6.49,0.79
							c2.09,1.2,3.42,3.05,4.81,4.43c1.37,1.41,2.87,2.45,4.31,2.72c1.44,0.27,2.66-0.12,3.33-0.58
							C472.97,102.05,473.2,101.61,473.24,101.65z"/>
					</g>
				</g>
			</g>
			<g>
				<g>
					<path style="fill:#455A64;" d="M472.75,146.81c0,0.02,0.16,0.07,0.47,0.13c0.31,0.06,0.79,0.13,1.4,0.14
						c1.21,0.03,3.04-0.15,5.02-1.13c1.98-0.94,4.08-2.77,5.36-5.41c1.3-2.6,1.78-6,0.91-9.26c-0.38-1.62-0.86-3.15-0.93-4.66
						c-0.11-1.51,0.37-2.89,1.05-4.13c0.67-1.24,1.36-2.47,1.64-3.76c0.31-1.27,0.29-2.52,0.1-3.6c-0.39-2.19-1.39-3.75-2.19-4.66
						c-0.4-0.46-0.76-0.77-1.02-0.97c-0.26-0.19-0.4-0.28-0.41-0.27c-0.04,0.05,0.5,0.45,1.24,1.39c0.73,0.93,1.63,2.47,1.94,4.57
						c0.15,1.04,0.14,2.22-0.17,3.41c-0.29,1.2-0.95,2.35-1.65,3.62c-0.34,0.64-0.67,1.32-0.89,2.07c-0.22,0.75-0.3,1.56-0.26,2.36
						c0.07,1.61,0.57,3.18,0.94,4.77c0.84,3.14,0.39,6.34-0.82,8.86c-1.19,2.54-3.15,4.31-5.03,5.27c-1.89,0.99-3.64,1.24-4.83,1.29
						C473.42,146.87,472.76,146.75,472.75,146.81z"/>
				</g>
			</g>
			<g>
				<g>
					<path style="fill:#455A64;" d="M491.57,99.76c0.04-0.06-0.58-0.58-1.81-0.94c-1.21-0.36-3.1-0.45-4.92,0.38
						c-1.82,0.84-2.98,2.33-3.49,3.48c-0.54,1.17-0.54,1.98-0.47,1.99c0.1,0.02,0.27-0.74,0.87-1.78c0.59-1.04,1.71-2.35,3.36-3.11
						c1.65-0.76,3.38-0.75,4.55-0.52C490.84,99.48,491.52,99.85,491.57,99.76z"/>
				</g>
			</g>
			<g>
				<g>
					<path style="fill:#455A64;" d="M483.72,106.46c0.03-0.01-0.03-0.24-0.04-0.69c-0.02-0.44,0.06-1.12,0.47-1.87
						c0.4-0.74,1.13-1.53,2.2-2.07c1.07-0.54,2.5-0.7,3.89-0.1c1.39,0.56,2.64,1.77,3.47,3.33c0.84,1.56,1.17,3.49,1.08,5.51
						c-0.07,2.02-0.52,4.12-1,6.3c-0.46,2.18-0.94,4.5-0.82,6.92c0.13,2.44,0.95,4.68,1.8,6.75c0.85,2.07,1.76,4.02,2.31,5.97
						c0.57,1.94,0.75,3.87,0.48,5.64c-0.25,1.77-0.82,3.37-1.47,4.76c-1.34,2.77-2.88,4.77-3.9,6.17c-0.49,0.65-0.88,1.18-1.2,1.6
						c-0.27,0.37-0.41,0.57-0.39,0.58c0.02,0.01,0.18-0.16,0.49-0.5c0.3-0.34,0.74-0.85,1.29-1.53c1.08-1.36,2.68-3.32,4.1-6.13
						c0.69-1.4,1.31-3.04,1.59-4.88c0.31-1.84,0.13-3.88-0.44-5.88c-0.55-2.01-1.46-3.99-2.3-6.04c-0.83-2.05-1.62-4.23-1.74-6.55
						c-0.19-4.66,1.7-8.98,1.76-13.17c0.07-2.08-0.28-4.12-1.2-5.77c-0.91-1.64-2.25-2.92-3.77-3.49c-1.5-0.62-3.1-0.41-4.21,0.2
						c-1.13,0.6-1.87,1.47-2.26,2.27c-0.4,0.8-0.44,1.53-0.38,1.99C483.6,106.24,483.72,106.46,483.72,106.46z"/>
				</g>
			</g>
			<g>
				<g>
					<g>
						<path style="fill:#724940;" d="M451.6,134.98c0.25,0.63,0.5,1.26,0.91,1.79c0.41,0.53,1.02,0.95,1.69,0.98
							c0.72,0.03,1.41-0.39,1.8-0.98c0.4-0.59,0.53-1.34,0.5-2.05c-0.03-0.65-0.33-1.42-0.97-1.5c-0.27-0.03-0.53,0.07-0.78,0.17
							c-1.13,0.46-2.25,0.91-3.38,1.37"/>
					</g>
				</g>
			</g>
			<g>
				<g>
					<g>
						<g>
							<path style="fill:#263238;" d="M452.95,137.76c0.02-0.11,0.76,0.2,1.8-0.22c0.51-0.2,1.06-0.61,1.36-1.24
								c0.3-0.63,0.36-1.47,0.04-2.21c-0.07-0.19-0.19-0.35-0.29-0.51c-0.13-0.14-0.11-0.13-0.26-0.11
								c-0.14,0.04-0.36,0.14-0.54,0.21c-0.19,0.08-0.37,0.15-0.55,0.23c-0.72,0.29-1.38,0.55-1.93,0.75
								c-1.11,0.41-1.81,0.63-1.84,0.55c-0.03-0.08,0.61-0.43,1.67-0.95c0.53-0.26,1.17-0.55,1.88-0.87
								c0.18-0.08,0.36-0.16,0.55-0.24c0.2-0.08,0.35-0.17,0.62-0.25c0.13-0.04,0.32-0.06,0.5,0.01c0.18,0.07,0.29,0.19,0.37,0.29
								c0.15,0.2,0.28,0.41,0.38,0.64c0.4,0.92,0.3,1.95-0.1,2.7c-0.41,0.77-1.12,1.21-1.72,1.39c-0.61,0.19-1.13,0.14-1.46,0.06
								C453.1,137.91,452.94,137.79,452.95,137.76z"/>
						</g>
					</g>
				</g>
			</g>
		</g>
		<g>
			<g>
				<path style="fill:#263238;" d="M490.57,267.45c0.03,0.12,0.05,0.26,0.07,0.38C490.59,267.41,490.55,267.06,490.57,267.45z"/>
			</g>
		</g>
		<g>
			<g>
				<g>
					<path style="fill:#AA6550;" d="M500.52,276.56l1.5,13.25l12.13,11.08c0,0,1.03-1.66,0.47-3.05c-0.55-1.38,2.77,1.8,2.77,1.8
						v7.61c0,0,2.08,0.83,2.77-0.97c0.69-1.8,1.11-8.31,1.11-8.31l-0.97-0.69c0,0,1.25-1.11,0.97-3.05c0,0,1.11-2.35,0.69-5.54
						c-0.42-3.18-1.25-4.85-1.25-4.85l-9.93-11.08L500.52,276.56z"/>
				</g>
			</g>
			<g>
				<g>
					<path style="fill:#724940;" d="M506.61,289.31c-0.11,0.08,1.37,2.19,3.58,4.45c2.2,2.27,4.27,3.81,4.35,3.7
						c0.09-0.11-1.81-1.81-3.99-4.06C508.37,291.17,506.73,289.22,506.61,289.31z"/>
				</g>
			</g>
			<g>
				<g>
					<path style="fill:#724940;" d="M515.13,291.73c-0.1,0.1,1.19,1.59,2.89,3.33c1.69,1.74,3.15,3.07,3.25,2.97
						s-1.19-1.58-2.89-3.33C516.68,292.96,515.23,291.63,515.13,291.73z"/>
				</g>
			</g>
			<g>
				<g>
					<path style="fill:#724940;" d="M516.77,288.7c-0.1,0.11,1.06,1.21,2.29,2.73c1.24,1.51,2.08,2.86,2.21,2.79
						c0.12-0.06-0.54-1.56-1.82-3.11C518.19,289.54,516.85,288.59,516.77,288.7z"/>
				</g>
			</g>
			<g>
				<g>
					<path style="fill:#724940;" d="M518.16,285.56c-0.1,0.11,0.79,1.02,1.8,2.2c1.02,1.17,1.79,2.18,1.91,2.1
						c0.12-0.07-0.48-1.23-1.53-2.43C519.31,286.22,518.25,285.46,518.16,285.56z"/>
				</g>
			</g>
		</g>
		<g>
			<g>
				<path style="fill:#455A64;" d="M428.9,126.8c-0.06,0.14-2.05-0.63-4.43-1.72c-2.38-1.09-4.26-2.09-4.2-2.23
					c0.06-0.14,2.05,0.63,4.43,1.72C427.09,125.66,428.97,126.66,428.9,126.8z"/>
			</g>
		</g>
		<g>
			<g>
				<g>
					<path style="fill:#AA6550;" d="M414.89,147.16c-1-0.04-3.43,1.41-5.37,4.09c-0.03,0.04-0.07,0.08-0.1,0.12
						c-1.39,1.8-2.69-3.34-2.92-5.26c-0.15-1.24-1.5-2.01-2.71-1.56l-6.44,3.01l-1.88,0.06c-0.95,0.35-1.47,1.32-1.23,2.27
						l3.08,10.16l0.07,2.77l12.89,1.74l0.2-6.95c0.19-0.8,0.45-1.75,0.79-2.83c0.31-0.97,0.79-1.9,1.42-2.71
						c0.66-0.86,1.56-1.93,2.32-2.54c0.07-0.04,0.15-0.11,0.21-0.14c0.16-0.08,0.27-0.2,0.37-0.32
						C416.23,148.38,415.87,147.2,414.89,147.16z"/>
				</g>
			</g>
			<g>
				<g>
					<path style="fill:#FF725E;" d="M414.64,115.85c0,0-7.52-1.44-18.33-11.26c-10.8-9.82-16.13-23.11-17.41-23.01
						c-1.29,0.1-6.98-2.35-17.01,21.21c-10.03,23.56-5.67,28.84-3.54,28.74c2.13-0.1,16.46-4.54,25.51-3.77
						c9.05,0.77,20.78,5.14,20.78,5.14L414.64,115.85z"/>
				</g>
			</g>
			<g>
				<g>
					<path style="fill:#263238;" d="M430.88,128.07l-2.41,4.92l-1.08,2.2c-1.48,3.02-5.07,4.36-8.17,3.04l-16.18-5.13l8.73-21.56
						l16.25,8.08C431.13,121.17,432.41,124.94,430.88,128.07z"/>
				</g>
			</g>
			<g>
				<g>
					<path style="fill:#263238;" d="M421.86,136.1l-4.82,10.15l-2.57-0.64l-16.29,14.04l-4.92-8.99c0,0,9.73-4.52,11.46-8.09
						c1.72-3.57-0.41-4.3-0.41-4.3l4.49-5.4L421.86,136.1z"/>
				</g>
			</g>
			<g>
				<g>
					<path style="fill:#263238;" d="M362.76,103.19c-5.33,12.76-7.38,24.05-4.58,25.23c2.8,1.17,9.4-8.22,14.73-20.98
						c5.33-12.76,7.38-24.05,4.58-25.23C374.69,81.04,368.09,90.43,362.76,103.19z"/>
				</g>
			</g>
			<g>
				<g>
					<polygon style="fill:#455A64;" points="432.45,135.04 428.07,133.8 430.61,128.61 433.93,130.54 					"/>
				</g>
			</g>
			<g style="opacity:0.3;">
				<g>
					<polygon points="407.26,134.72 419.14,141.83 420.51,138.93 					"/>
				</g>
			</g>
			<g>
				<g>
					<path style="fill:#455A64;" d="M427.65,129.88c-0.06,0.14-2.25-0.64-4.89-1.74c-2.64-1.11-4.74-2.12-4.68-2.26
						c0.06-0.14,2.25,0.64,4.89,1.74C425.62,128.72,427.71,129.73,427.65,129.88z"/>
				</g>
			</g>
			<g>
				<g>
					<path style="fill:#455A64;" d="M426.06,133.12c-0.02,0.07-0.54-0.03-1.37-0.26c-0.41-0.12-0.91-0.26-1.45-0.43
						c-0.54-0.18-1.1-0.44-1.71-0.7c-2.41-1.04-4.25-2.06-4.2-2.19c0.07-0.15,2.03,0.65,4.41,1.68c0.6,0.25,1.15,0.53,1.68,0.73
						c0.52,0.19,0.99,0.38,1.39,0.54C425.6,132.8,426.08,133.04,426.06,133.12z"/>
				</g>
			</g>
			<g>
				<g>
					<path style="fill:#FAFAFA;" d="M374.28,100.06c0,0-6.61-3.84-9.92,5.03c-3.31,8.88,3.57,10.13,3.57,10.13
						C370.61,110.81,372.74,105.77,374.28,100.06z"/>
				</g>
			</g>
			<g>
				<g>
					<path style="fill:#263238;" d="M380.89,89.41c0.04,0.01-0.04,0.6-0.21,1.68c-0.17,1.08-0.42,2.64-0.78,4.57
						c-0.25,0.95-0.52,1.99-0.81,3.1c-0.15,0.56-0.3,1.13-0.46,1.72c-0.08,0.3-0.16,0.6-0.24,0.9c-0.09,0.3-0.21,0.6-0.31,0.91
						c-0.43,1.22-0.89,2.5-1.36,3.83c-0.12,0.33-0.24,0.67-0.36,1c-0.12,0.34-0.29,0.66-0.43,0.99c-0.3,0.66-0.6,1.34-0.91,2.02
						c-0.31,0.68-0.61,1.35-0.91,2.02c-0.16,0.33-0.29,0.67-0.46,0.98c-0.17,0.31-0.35,0.63-0.52,0.93
						c-0.68,1.23-1.34,2.42-1.97,3.55c-0.16,0.28-0.31,0.57-0.47,0.83c-0.18,0.26-0.35,0.52-0.52,0.78
						c-0.34,0.51-0.67,1.01-0.99,1.49c-0.64,0.95-1.24,1.84-1.79,2.66c-1.2,1.54-2.21,2.76-2.9,3.6c-0.7,0.84-1.1,1.29-1.13,1.27
						c-0.03-0.02,0.31-0.52,0.96-1.4c0.67-0.9,1.61-2.16,2.76-3.71c0.53-0.82,1.1-1.72,1.72-2.68c0.31-0.48,0.63-0.98,0.96-1.49
						c0.17-0.26,0.33-0.51,0.5-0.78c0.16-0.27,0.3-0.55,0.46-0.83c0.62-1.13,1.26-2.32,1.93-3.55c0.17-0.31,0.34-0.62,0.51-0.93
						c0.17-0.31,0.3-0.65,0.46-0.97c0.3-0.66,0.6-1.33,0.9-2c0.31-0.68,0.61-1.34,0.91-2c0.14-0.33,0.31-0.65,0.43-0.99
						c0.12-0.33,0.24-0.67,0.36-1c0.48-1.31,0.94-2.58,1.38-3.79c0.11-0.3,0.23-0.6,0.32-0.9c0.08-0.3,0.17-0.6,0.25-0.89
						c0.16-0.59,0.33-1.16,0.48-1.71c0.31-1.1,0.6-2.12,0.87-3.06c0.4-1.89,0.72-3.42,0.95-4.51
						C380.71,89.99,380.86,89.4,380.89,89.41z"/>
				</g>
			</g>
			<g>
				<g>
					<path style="fill:#AA6550;" d="M401.53,142.61c-0.69,0.3-1.03,1.11-0.77,1.84c0.5,1.4,1.29,3.6,1.89,4.93
						c0.19,0.43,0.4,0.87,0.73,1.19c0.33,0.32,0.83,0.51,1.25,0.34c0.45-0.17,0.71-0.69,0.75-1.18c0.03-0.5-0.12-0.99-0.27-1.46
						c-0.42-1.31-1.15-3.27-1.77-4.86C403.06,142.65,402.24,142.3,401.53,142.61L401.53,142.61z"/>
				</g>
			</g>
			<g>
				<g>
					<path style="fill:#AA6550;" d="M399.58,145.19c-0.69,0.3-1.03,1.11-0.77,1.84c0.5,1.4,1.29,3.6,1.89,4.93
						c0.19,0.43,0.4,0.87,0.73,1.19c0.33,0.32,0.83,0.51,1.25,0.34c0.45-0.17,0.71-0.69,0.75-1.19c0.03-0.5-0.12-0.99-0.27-1.46
						c-0.42-1.31-1.15-3.27-1.77-4.86C401.1,145.24,400.29,144.88,399.58,145.19L399.58,145.19z"/>
				</g>
			</g>
			<g>
				<g>
					<path style="fill:#AA6550;" d="M397.69,146.83c-0.62,0.26-0.93,0.96-0.7,1.6c0.45,1.21,1.17,3.12,1.71,4.27
						c0.17,0.37,0.36,0.75,0.66,1.03c0.3,0.28,0.75,0.44,1.13,0.3c0.41-0.15,0.65-0.59,0.68-1.03c0.03-0.43-0.1-0.86-0.24-1.27
						c-0.38-1.13-1.04-2.83-1.6-4.21C399.07,146.87,398.33,146.56,397.69,146.83L397.69,146.83z"/>
				</g>
			</g>
			<g>
				<g>
					<path style="fill:#AA6550;" d="M395.21,147.38c-0.63,0.26-0.94,0.97-0.7,1.6c0.45,1.22,1.18,3.13,1.72,4.29
						c0.18,0.37,0.36,0.75,0.67,1.03c0.3,0.28,0.75,0.44,1.14,0.3c0.41-0.15,0.65-0.6,0.68-1.03c0.03-0.43-0.1-0.86-0.24-1.27
						c-0.38-1.14-1.05-2.84-1.61-4.23C396.59,147.42,395.85,147.11,395.21,147.38L395.21,147.38z"/>
				</g>
			</g>
			<g>
				<g>
					<g>
						<path style="fill:#724940;" d="M403.26,150.62c-0.13,0.06-0.72-1.04-1.31-2.45c-0.59-1.41-0.96-2.6-0.83-2.66
							c0.13-0.06,0.72,1.04,1.31,2.45C403.02,149.38,403.39,150.57,403.26,150.62z"/>
					</g>
				</g>
			</g>
			<g>
				<g>
					<g>
						<path style="fill:#724940;" d="M401.12,152.77c-0.13,0.05-0.76-1.22-1.4-2.83c-0.64-1.62-1.05-2.97-0.92-3.03
							s0.76,1.21,1.4,2.83C400.85,151.36,401.26,152.72,401.12,152.77z"/>
					</g>
				</g>
			</g>
			<g>
				<g>
					<g>
						<path style="fill:#724940;" d="M398.9,153.05c-0.12,0.07-0.82-1-1.41-2.44c-0.6-1.44-0.87-2.68-0.73-2.72
							c0.14-0.04,0.62,1.11,1.22,2.52C398.55,151.83,399.03,152.99,398.9,153.05z"/>
					</g>
				</g>
			</g>
			<g>
				<g>
					<g>
						<path style="fill:none;stroke:#4E585D;stroke-width:0.05;stroke-miterlimit:10;" d="M399.75,145.19"/>
					</g>
				</g>
			</g>
			<g>
				<g>
					<g>
						<path style="fill:none;stroke:#4E585D;stroke-width:0.05;stroke-miterlimit:10;" d="M399.75,131.26"/>
					</g>
				</g>
			</g>
		</g>
		<g>
			<g>
				<g>
					<path style="fill:#263238;" d="M492.7,349.38l-6.79-54.5c4.42-10.33,6.03-20.64,4.74-27.05c0.08,0.67,0.11,1.5-0.07-0.38
						c-1.1-11.35-10.9-19.69-10.9-19.69l-3.28-13.77l-41.96,5.9l1.59,23.05l-27.16,95.62l-4.93,80.83l21.93,2.57
						c0,0,8.6-40.42,10.91-57.31c2.13-15.52,2.18-27.64,2.18-27.64l20.6-30.82c2.44,12.72,5.2,28.43,6.62,36.62
						c0.64,3.67,2.21,7.1,4.57,9.97l53.91,42.43l0.01-25.56C519.52,377.42,492.7,349.38,492.7,349.38z"/>
				</g>
			</g>
			<g>
				<g>
					<g>
						<path style="fill:#455A64;" d="M439.82,256.99c-0.06,0.02-0.43-0.84-0.88-2.28c-0.45-1.44-0.95-3.47-1.3-5.76
							c-0.34-2.28-0.46-4.37-0.46-5.88c0-1.51,0.1-2.44,0.16-2.44c0.08,0,0.11,0.93,0.21,2.43c0.09,1.5,0.27,3.56,0.61,5.82
							c0.34,2.26,0.79,4.28,1.14,5.74C439.65,256.07,439.89,256.97,439.82,256.99z"/>
					</g>
				</g>
			</g>
			<g>
				<g>
					<g>
						<path style="fill:#455A64;" d="M441.76,241.31c-0.01-0.02,0.16-0.16,0.54-0.24c0.37-0.08,0.97-0.08,1.61,0.23
							c0.62,0.29,1.32,0.97,1.43,1.96c0.1,0.96-0.37,2.06-1.34,2.64c-1,0.61-2.22,0.32-2.94-0.27c-0.76-0.58-1.07-1.51-0.99-2.21
							c0.06-0.7,0.3-1.21,0.47-1.54c0.18-0.33,0.31-0.49,0.34-0.48c0.03,0.02-0.04,0.21-0.15,0.56c-0.11,0.34-0.28,0.85-0.29,1.47
							c-0.02,0.62,0.26,1.33,0.92,1.81c0.63,0.48,1.61,0.68,2.38,0.2c0.77-0.46,1.19-1.38,1.13-2.15c-0.06-0.79-0.59-1.38-1.12-1.68
							C442.62,241,441.76,241.41,441.76,241.31z"/>
					</g>
				</g>
			</g>
			<g>
				<g>
					<g>
						<path style="fill:#455A64;" d="M469.34,252.43c0.01,0.03-0.25,0.14-0.74,0.31c-0.48,0.18-1.21,0.35-2.12,0.48
							c-0.91,0.14-2.01,0.18-3.23,0.11c-1.22-0.1-2.55-0.32-3.89-0.74c-1.34-0.44-2.56-1.02-3.61-1.64
							c-1.04-0.64-1.91-1.31-2.57-1.96c-0.67-0.63-1.16-1.19-1.46-1.61c-0.3-0.41-0.46-0.65-0.43-0.67
							c0.08-0.06,0.76,0.84,2.13,2.01c0.68,0.59,1.55,1.21,2.57,1.82c1.03,0.58,2.22,1.13,3.52,1.56c1.31,0.41,2.59,0.64,3.77,0.76
							c1.18,0.09,2.26,0.09,3.15,0C468.23,252.68,469.31,252.34,469.34,252.43z"/>
					</g>
				</g>
			</g>
			<g>
				<g>
					<g>
						<path style="fill:#455A64;" d="M482.83,293.56c0.01,0.01-0.14,0.23-0.46,0.64c-0.35,0.44-0.81,1.03-1.38,1.77
							c-1.16,1.57-2.85,3.83-4.87,6.68c-4.05,5.68-9.52,13.63-15.5,22.44c-5.95,8.81-11.34,16.78-15.28,22.61
							c-1.94,2.86-3.51,5.18-4.64,6.85c-0.53,0.77-0.96,1.39-1.28,1.85c-0.3,0.42-0.46,0.64-0.48,0.63
							c-0.02-0.01,0.12-0.24,0.39-0.68c0.3-0.48,0.7-1.11,1.2-1.9c1.09-1.68,2.62-4.04,4.5-6.94c3.83-5.84,9.16-13.88,15.15-22.7
							c5.99-8.81,11.51-16.73,15.64-22.36c2.06-2.82,3.79-5.06,5.01-6.59c0.61-0.71,1.1-1.28,1.46-1.71
							C482.64,293.74,482.82,293.55,482.83,293.56z"/>
					</g>
				</g>
			</g>
		</g>
		<g>
			<g>
				<g>
					<path style="fill:#263238;" d="M475.44,171.45c0.08,0,0.08-1.05,0.36-2.71c0.28-1.65,0.92-3.91,2.2-6.12
						c1.24-2.24,2.93-3.9,4.46-4.54c1.53-0.66,2.62-0.31,2.62-0.42c0.01-0.02-0.24-0.14-0.72-0.2c-0.48-0.06-1.21-0.02-2.03,0.28
						c-1.66,0.59-3.51,2.33-4.77,4.62c-1.32,2.28-1.92,4.62-2.11,6.32C475.25,170.39,475.38,171.45,475.44,171.45z"/>
				</g>
			</g>
			<g>
				<g>
					<path style="fill:#FF725E;" d="M471.98,155.25l-21.98,3.41l-3.92,3.39c0,0-13.84,26.94-14.09,32.38
						c-0.28,6.01,2.94,16.33,2.94,16.33l-3.16,23.8c-0.47,2.73,1.31,5.36,2.5,5.36l37.97-5.09c4.95-0.97,6.98-3.56,6.68-6.43
						l-0.57-5.3l16.22-54.32c0.96,3.21-0.54-8.66-7.78-11.32C483.73,156.33,476.64,154.28,471.98,155.25z"/>
				</g>
			</g>
			<g>
				<g>
					<path style="fill:#FF725E;" d="M448.1,160.45c0,0-6.77,5.21-13.17,11.14c-6.41,5.93-23.49,17.79-23.49,17.79l-1.18-24.81
						l-12.89-1.74c0,0-6.3,30.94-2.3,39.48c4,8.54,8.77,8.9,22.06,4.63c13.28-4.27,17.08-6.17,17.08-6.17L448.1,160.45z"/>
				</g>
			</g>
			<g>
				<g>
					<path style="fill:#263238;" d="M444.71,164.13c-0.01-0.01-0.12,0.12-0.3,0.38c-0.21,0.31-0.47,0.69-0.79,1.16
						c-0.67,1.01-1.64,2.48-2.78,4.33c-2.26,3.7-5.36,8.93-7.38,15.3c-2.02,6.38-2.1,12.61-1.14,16.87
						c0.46,2.14,1.07,3.81,1.59,4.91c0.23,0.56,0.49,0.97,0.63,1.25c0.16,0.28,0.24,0.42,0.26,0.42c0.04-0.02-0.26-0.63-0.71-1.75
						c-0.46-1.12-1.01-2.79-1.42-4.9c-0.85-4.22-0.72-10.35,1.27-16.65c2-6.3,5.02-11.53,7.2-15.27c1.08-1.81,1.98-3.3,2.64-4.41
						c0.28-0.48,0.52-0.88,0.71-1.21C444.65,164.29,444.72,164.14,444.71,164.13z"/>
				</g>
			</g>
			<g>
				<g>
					<path style="fill:#FF725E;" d="M482.66,157.46c0,0-6.84,8.96-7.22,17.19c-0.37,8.22,12.28,57.53,12.28,57.53l11.1,45.01
						l13.81-5.1c0,0-3.21-32.04-3.83-36.02c-1.27-8.29-6.74-24.45-7.49-33.79c-0.75-9.34-4.21-27.34-5.92-31.55
						C493.69,166.51,493.62,157.23,482.66,157.46z"/>
				</g>
			</g>
			<g>
				<g>
					<path style="fill:#263238;" d="M476.01,179.19c-0.02,0-0.01,0.17,0.02,0.48c0.04,0.37,0.1,0.83,0.16,1.37
						c0.16,1.19,0.43,2.9,0.81,5.01c0.75,4.22,1.96,10.02,3.4,16.4c1.45,6.38,2.85,12.14,3.93,16.29c0.54,2.08,0.99,3.75,1.32,4.9
						c0.16,0.53,0.29,0.96,0.39,1.32c0.1,0.3,0.15,0.46,0.17,0.45c0.02,0-0.01-0.17-0.07-0.48c-0.08-0.37-0.18-0.81-0.3-1.35
						c-0.29-1.24-0.68-2.91-1.16-4.94c-0.98-4.25-2.31-9.98-3.78-16.31c-1.44-6.38-2.7-12.16-3.54-16.36
						c-0.4-2.04-0.73-3.73-0.97-4.98c-0.1-0.54-0.19-0.99-0.25-1.36C476.07,179.35,476.03,179.19,476.01,179.19z"/>
				</g>
			</g>
			<g style="opacity:0.3;">
				<g>
					<path d="M475.02,234.07c-2.18-2.19-2.64-5.5-2.98-8.57c-1.09-9.76-2.17-19.52-3.26-29.27c-0.68-6.08-1.32-12.46,0.98-18.14
						c0.34-0.85,0.85-1.77,1.74-2.01c0.84-0.24,1.76,0.25,2.28,0.94c0.53,0.7,2.01,1.7,2.23,2.55c2.22,8.7,3.18,17.27,5.39,25.97
						c0.59,2.3,1.35,2.21,0.84,4.53c-0.74,3.37-3.89,13.03-3.89,13.03s0.45,3.51,0.58,5.56
						C479.07,230.7,477.87,233.25,475.02,234.07"/>
				</g>
			</g>
			<g>
				<g>
					<path style="fill:#FAFAFA;" d="M477.06,184.04c-0.02,0.03,0.25,0.23,0.75,0.54c0.51,0.31,1.25,0.76,2.23,1.2
						c0.98,0.42,2.25,0.85,3.71,0.75c1.48-0.08,2.96-0.8,4.31-1.7c1.36-0.9,2.58-1.84,3.83-2.41c1.24-0.59,2.48-0.78,3.49-0.57
						c1.01,0.18,1.73,0.66,2.13,1.07c0.4,0.42,0.53,0.73,0.57,0.7c0.02-0.01-0.05-0.35-0.42-0.84c-0.38-0.48-1.12-1.05-2.21-1.29
						c-1.07-0.28-2.45-0.11-3.76,0.5c-1.32,0.58-2.58,1.53-3.91,2.41c-1.33,0.88-2.72,1.56-4.07,1.66
						c-1.35,0.12-2.57-0.24-3.54-0.62C478.24,184.66,477.11,183.96,477.06,184.04z"/>
				</g>
			</g>
			<g>
				<g>
					<path style="fill:#FAFAFA;" d="M434.23,183c-0.01,0.01,0.05,0.14,0.2,0.37c0.14,0.24,0.39,0.56,0.75,0.94
						c0.72,0.76,2.01,1.67,3.83,2.16c1.81,0.51,4.1,0.62,6.53,0.09c2.43-0.5,4.94-1.53,7.59-2.44c5.29-1.97,10.54-1.77,14.09-0.95
						c3.59,0.81,5.6,1.99,5.64,1.88c0.01-0.02-0.11-0.09-0.35-0.23c-0.24-0.13-0.59-0.33-1.06-0.55c-0.94-0.44-2.34-1.01-4.15-1.46
						c-1.8-0.45-4.02-0.77-6.49-0.7c-2.47,0.04-5.18,0.56-7.85,1.51c-2.67,0.93-5.16,1.95-7.52,2.47c-2.35,0.55-4.57,0.47-6.33,0.02
						c-1.77-0.43-3.04-1.27-3.78-1.96C434.57,183.46,434.28,182.96,434.23,183z"/>
				</g>
			</g>
			<g>
				<g>
					<path style="fill:#FAFAFA;" d="M426.15,178.63c-0.05-0.01-0.2,0.78-0.1,2.06c0.09,1.27,0.49,3.04,1.41,4.78
						c0.92,1.74,2.15,3.07,3.15,3.86c1,0.8,1.73,1.12,1.76,1.08c0.05-0.07-0.61-0.5-1.52-1.35c-0.91-0.84-2.05-2.15-2.93-3.83
						c-0.88-1.68-1.32-3.35-1.5-4.58C426.23,179.42,426.24,178.64,426.15,178.63z"/>
				</g>
			</g>
			<g style="opacity:0.3;">
				<g>
					<path d="M440.27,170.73c-10.38,10.42-19.31,22.01-23.13,36.22c5.93-1.94,11.54-3.83,15.24-5.37c0,0-1.11-5.85-0.44-9.3
						C432.77,188.06,432.76,184.52,440.27,170.73"/>
				</g>
			</g>
			<g>
				<g>
					<g>
						<path style="fill:#263238;" d="M411.64,189.44c0.11,0.11-1.17,1.31-2.07,3.22c-0.93,1.9-1.06,3.65-1.21,3.63
							c-0.13,0.02-0.23-1.84,0.75-3.86C410.05,190.42,411.57,189.33,411.64,189.44z"/>
					</g>
				</g>
			</g>
		</g>
	</g>
	<g>
		<g>
			<g>
				<g>
					<g>
						<g>
							<g>
								<g>
									<g>
										<g>
											<g>
												
													<rect x="355.1" y="215.74" transform="matrix(0.1175 -0.9931 0.9931 0.1175 88.3036 606.1879)" style="fill:#FAFAFA;" width="60.23" height="75.34"/>
											</g>
										</g>
									</g>
								</g>
							</g>
						</g>
					</g>
					<g>
						<g>
							<g>
								<g>
									<g>
										<g>
											<g>
												<g>
													<path style="fill:#263238;" d="M426.16,227.93c0,0-0.13-0.01-0.36-0.03c-0.25-0.03-0.6-0.06-1.05-0.11
														c-0.93-0.11-2.3-0.26-4.07-0.46c-3.56-0.41-8.75-1-15.32-1.76c-13.14-1.53-31.83-3.71-54.03-6.29l0.22-0.17
														c-2.1,17.8-4.51,38.21-7.05,59.81l0,0.01l-0.19-0.24c27.7,3.29,53.44,6.35,74.81,8.89l-0.2,0.16
														c2.17-18.01,3.97-32.93,5.23-43.37c0.64-5.22,1.14-9.31,1.48-12.12c0.17-1.39,0.31-2.46,0.4-3.2
														C426.1,228.31,426.16,227.93,426.16,227.93s-0.03,0.36-0.11,1.07c-0.08,0.73-0.2,1.79-0.35,3.17
														c-0.32,2.8-0.79,6.88-1.38,12.09c-1.22,10.47-2.95,25.44-5.05,43.51l-0.02,0.18l-0.18-0.02
														c-21.38-2.52-47.12-5.55-74.82-8.81l-0.22-0.03l0.03-0.22l0-0.01c2.56-21.59,4.99-42,7.1-59.8l0.02-0.19l0.19,0.02
														c22.25,2.67,40.97,4.92,54.14,6.5c6.55,0.8,11.72,1.43,15.27,1.86c1.75,0.22,3.1,0.38,4.02,0.5
														c0.44,0.06,0.79,0.1,1.03,0.13C426.05,227.91,426.16,227.93,426.16,227.93z"/>
												</g>
											</g>
										</g>
									</g>
								</g>
							</g>
						</g>
					</g>
				</g>
			</g>
		</g>
		<g>
			<g>
				<g>
					<g>
						<g>
							<g>
								<g>
									
										<rect x="358.84" y="218.38" transform="matrix(0.1175 -0.9931 0.9931 0.1175 88.2669 606.1349)" style="fill:#EBEBEB;" width="52.65" height="70.04"/>
								</g>
							</g>
						</g>
					</g>
				</g>
			</g>
		</g>
		<g>
			<g>
				<g>
					<g>
						<g>
							<g>
								<g>
									<polygon style="fill:#E0E0E0;" points="347.29,275.43 375.43,245.81 388.08,267.92 399.57,258.26 416.85,283.66 									
										"/>
								</g>
							</g>
						</g>
					</g>
				</g>
			</g>
		</g>
		<g>
			<g>
				<g>
					<g>
						<g>
							<g>
								<g>
									<g>
										<g>
											<path style="fill:#E0E0E0;" d="M397.34,244.36c-0.36,3.03-3.1,5.19-6.13,4.83c-3.02-0.36-5.19-3.1-4.83-6.12
												c0.36-3.03,3.1-5.19,6.12-4.83C395.54,238.6,397.7,241.34,397.34,244.36z"/>
										</g>
									</g>
								</g>
							</g>
						</g>
					</g>
				</g>
			</g>
		</g>
	</g>
	<g>
		<g>
			<g>
				<g>
					<polyline style="fill:#FAFAFA;" points="523.68,250.17 501.46,250.17 501.46,178.56 523.68,178.56 					"/>
				</g>
			</g>
			<g>
				<g>
					<g>
						<path style="fill:#263238;" d="M523.68,178.56c0,0.01-0.13,0.02-0.4,0.03c-0.29,0.01-0.68,0.02-1.16,0.03
							c-1.06,0.01-2.55,0.03-4.45,0.06c-3.89,0.02-9.44,0.05-16.21,0.09l0.2-0.2c0.02,9.74,0.03,22.23,0.06,35.8
							c-0.02,13.58-0.04,26.06-0.06,35.81l-0.2-0.2c6.77,0.04,12.32,0.07,16.21,0.09c1.9,0.02,3.39,0.04,4.45,0.06
							c0.48,0.01,0.87,0.02,1.16,0.03c0.26,0.01,0.4,0.02,0.4,0.03c0,0.01-0.13,0.02-0.4,0.03c-0.29,0.01-0.68,0.02-1.16,0.03
							c-1.06,0.01-2.55,0.03-4.45,0.06c-3.89,0.02-9.44,0.05-16.21,0.09l-0.2,0l0-0.21c-0.02-9.74-0.03-22.23-0.06-35.81
							c0.02-13.57,0.04-26.06,0.06-35.8l0-0.21l0.2,0c6.77,0.04,12.32,0.07,16.21,0.09c1.9,0.02,3.39,0.04,4.45,0.06
							c0.48,0.01,0.87,0.02,1.16,0.03C523.55,178.54,523.68,178.55,523.68,178.56z"/>
					</g>
				</g>
			</g>
		</g>
		<g>
			<g>
				<polygon style="fill:#EBEBEB;" points="523.68,245.38 505.14,245.65 505.14,182.68 523.68,182.41 				"/>
			</g>
		</g>
		<g>
			<g>
				<polygon style="fill:#E0E0E0;" points="505.28,245.46 523.68,245.65 523.8,220.22 				"/>
			</g>
		</g>
	</g>
	<g>
		<g>
			<g>
				<g>
					<g>
						<g>
							<g>
								<g>
									<g>
										<g>
											<g>
												
													<rect x="301.28" y="302.31" transform="matrix(0.9961 -0.0888 0.0888 0.9961 -27.7832 30.8694)" style="fill:#FAFAFA;" width="63.78" height="50.99"/>
											</g>
										</g>
									</g>
								</g>
							</g>
						</g>
					</g>
					<g>
						<g>
							<g>
								<g>
									<g>
										<g>
											<g>
												<g>
													<path style="fill:#263238;" d="M362.68,299.58c0,0-0.11,0.02-0.31,0.04c-0.21,0.02-0.5,0.05-0.89,0.09
														c-0.79,0.08-1.95,0.18-3.45,0.33c-3.02,0.28-7.42,0.69-13,1.2c-11.16,1.01-27.02,2.46-45.87,4.17l0.15-0.18
														c1.35,15.12,2.9,32.45,4.55,50.78l0,0.01l-0.2-0.17c23.52-2.08,45.38-4.02,63.53-5.63l-0.14,0.17
														c-1.33-15.3-2.43-27.98-3.2-36.85c-0.38-4.44-0.67-7.92-0.88-10.3c-0.1-1.18-0.17-2.09-0.22-2.72
														C362.69,299.9,362.68,299.58,362.68,299.58s0.04,0.3,0.1,0.91c0.06,0.62,0.14,1.52,0.26,2.69
														c0.22,2.37,0.54,5.84,0.95,10.26c0.81,8.89,1.97,21.6,3.37,36.93l0.01,0.15l-0.15,0.01
														c-18.15,1.63-40.01,3.59-63.53,5.69l-0.18,0.02l-0.02-0.18l0-0.01c-1.63-18.34-3.17-35.67-4.51-50.79l-0.01-0.17
														l0.16-0.01c18.9-1.65,34.8-3.04,45.99-4.02c5.57-0.48,9.96-0.85,12.97-1.11c1.49-0.12,2.64-0.22,3.42-0.29
														c0.38-0.03,0.67-0.05,0.87-0.07C362.58,299.58,362.68,299.58,362.68,299.58z"/>
												</g>
											</g>
										</g>
									</g>
								</g>
							</g>
						</g>
					</g>
				</g>
			</g>
		</g>
		<g>
			<g>
				<g>
					<g>
						<g>
							<g>
								<g>
									
										<rect x="303.48" y="305.52" transform="matrix(0.9961 -0.0888 0.0888 0.9961 -27.7837 30.8657)" style="fill:#EBEBEB;" width="59.3" height="44.57"/>
								</g>
							</g>
						</g>
					</g>
				</g>
			</g>
		</g>
		<g>
			<g>
				<g>
					<g>
						<g>
							<g>
								<g>
									<polygon style="fill:#E0E0E0;" points="305.58,352.64 323.75,323.2 338.07,339.33 345.91,329.33 364.64,347.37 									
										"/>
								</g>
							</g>
						</g>
					</g>
				</g>
			</g>
		</g>
		<g>
			<g>
				<g>
					<g>
						<g>
							<g>
								<g>
									<g>
										<g>
											<path style="fill:#E0E0E0;" d="M341.65,318.2c0.23,2.57-1.67,4.84-4.24,5.07c-2.57,0.23-4.84-1.67-5.07-4.24
												c-0.23-2.57,1.67-4.84,4.24-5.07C339.15,313.73,341.42,315.63,341.65,318.2z"/>
										</g>
									</g>
								</g>
							</g>
						</g>
					</g>
				</g>
			</g>
		</g>
	</g>
</g>
</svg>
